<?xml version="1.0" encoding="utf-8"?>
<!-- Generator: Adobe Illustrator 13.0.0, SVG Export Plug-In  -->
<!DOCTYPE svg PUBLIC "-//W3C//DTD SVG 1.1 Tiny//EN" "http://www.w3.org/Graphics/SVG/1.1/DTD/svg11-tiny.dtd" [
	<!ENTITY ns_flows "http://ns.adobe.com/Flows/1.0/">
]>
<svg version="1.1" baseProfile="tiny"
	 xmlns="http://www.w3.org/2000/svg" xmlns:xlink="http://www.w3.org/1999/xlink" xmlns:a="http://ns.adobe.com/AdobeSVGViewerExtensions/3.0/"
	 x="0px" y="0px" width="41px" height="51px" viewBox="-0.682 -0.967 41 51" xml:space="preserve">
<defs>
</defs>
<path d="M37.917,2.926c-1.481-0.522-2.045-0.937-2.375-1.229c-0.33-0.294-0.431-0.813-0.817-1.069
	c-0.385-0.256-1.839-1.078-3.516-0.304c-0.421,0.19-1.509,0.756-1.704,0.97c0.167-0.017,0.337-0.052,0.337-0.052
	c-0.132,0.139-0.218,0.441-0.278,0.661c-0.061,0.219-0.507,1.108-0.51,1.483c0.105-0.202,0.239-0.456,0.239-0.456
	c0.027,0.063-0.011,0.316-0.011,0.316c-0.216,0.229-0.255,0.353-0.231,0.499c0.033-0.109,0.111-0.216,0.111-0.216
	c-0.022,0.156-0.172,0.475-0.172,0.475c0.109-0.108,0.247-0.223,0.247-0.223c-0.02,0.208-0.039,0.243-0.039,0.243
	c-0.378,0.27-0.797,0.685-0.876,0.87c-0.357,0.222-0.844,0.664-0.844,0.664c0.292-0.222,1.277-0.743,1.277-0.743
	c-0.104,0.211-0.294,0.536-0.24,0.629c0.074-0.159,0.354-0.652,0.587-0.769c0.007,0.2,0.023,0.794,0.095,0.93
	c0.01-0.19,0.011-0.948,0.011-0.948c0.04-0.005,0.097,0.031,0.097,0.031c-0.014,0.312-0.063,0.952,0.042,1.344
	c0.008,0.297,0.009,0.772,0.139,1.04c-0.017-0.15-0.05-0.658-0.05-0.658c0.078,0.239,0.262,0.762,0.208,1.966
	c0.083-0.229,0.112-0.596,0.112-0.596c0.129,0.409,0.196,0.904,0.196,0.904c0.042-0.364-0.087-0.87-0.234-1.386
	c0.104-0.482,0.303-1.17,0.303-1.17c0.034,0.334,0.042,1.106,0.227,1.359c-0.075-0.252-0.146-1.036-0.047-1.19
	c0.172,0.25,0.573,0.948,0.728,1.902c0.155,0.954,0.382,2.377,0.265,3.171s-0.478,1.862-1.308,2.213
	c-0.83,0.351-3.511,0.399-4.622,0.641c-1.111,0.241-4.623,1.301-5.617,1.699c-0.745,0.239-1.698,0.63-1.919,0.782
	c0.332-0.053,0.366-0.066,0.366-0.066c-0.502,0.214-0.873,0.336-1.679,0.801c-0.807,0.465-2.567,1.527-4.642,3.141
	c-0.459,0.325-2.019,1.855-3.23,3.213c-0.477,0.315-0.999,0.628-1.218,0.876c0.211-0.102,0.823-0.487,0.957-0.546
	c-0.468,0.612-0.687,1.129-0.687,1.129c-0.334,0.303-0.619,0.693-1.26,1.336c-0.209,0.186-0.478,0.629-0.68,0.951
	c-0.202,0.322-0.602,0.844-1.258,1.433c-0.139,0.16-0.641,0.644-0.899,0.82c-0.258,0.176-0.281,0.3-0.281,0.3l0.115-0.068
	c-0.243,0.198-0.809,0.683-1.461,1.183c-0.554,0.422-0.622,0.544-0.542,0.489c0.241-0.153,0.482-0.308,0.482-0.308
	c-0.523,0.422-0.702,0.696-0.805,0.863c-0.26,0.221-0.655,0.448-0.851,0.938C0.138,33.313,0,33.57,0,33.57
	c0.125-0.086,0.197-0.059,0.197-0.059c0.02,0.03,0.1,0.083,0.1,0.083c-0.155,0.215-0.196,0.361-0.148,0.447
	c0.038-0.134,0.101-0.263,0.362-0.388c0.224-0.099,0.429-0.305,0.687-0.48c0.258-0.177,0.633-0.292,0.883-0.496
	c0.251-0.203,0.494-0.511,0.642-0.547s0.437-0.168,0.437-0.168c-0.035,0.25-0.049,0.466-0.254,0.941
	c-0.163,0.316-0.53,1.487-0.593,2.233C2.25,35.88,2.138,37.709,2.12,38.348c-0.018,0.639-0.016,3.188-0.176,4.044
	c-0.139,0.739-0.354,1.577-0.465,1.906c0.53-1.398,0.831-2.343,0.891-2.5c0.062-0.161,0.907-2.058,0.996-2.67
	c0.089-0.613,0.123-0.689,0.126-0.638c0.076,0.759,0.205,1.232,0.205,1.232c-0.038-0.514,0.016-1.384,0.074-1.585
	c0.057-0.201,0.198-0.232,0.192,0.139c-0.006,0.372-0.085,1.712-0.294,2.591c-0.081,0.325-0.1,0.835-0.222,1.416
	c-0.122,0.581-0.315,0.994-0.766,1.378c0.528-0.351,0.792-0.455,1.182-1.91c0.334-1.17,0.552-2.767,0.552-2.767
	c0.059,0.197,0.125,0.768,0.125,0.768c0.034-0.456-0.073-1.387-0.073-1.387c0.214-0.525,0.66-1.738,0.8-2.072
	c0.005,0.181,0.021,0.267,0.021,0.267c0.064-0.238,0.113-0.64,0.507-1.298c0.394-0.658,1.273-2.06,1.273-2.06
	c-0.023,0.125-0.006,0.308-0.006,0.308c0.129-0.271,1.312-1.989,1.529-2.191c0.172-0.063,0.157,0.087,0.157,0.087
	c0.286-0.184,1.113-0.458,1.546-0.776c-0.05,0.164-0.091,0.278-0.091,0.278c0.457-0.312,1.64-0.828,2.357-1.265
	c0.147,0.137,0.695,0.336,0.895,0.329c-0.002,0.218,0,0.443,0,0.443c-0.432,0.554-0.802,1.294-0.371,1.529
	c0.047,0.054,0.109,0.444,0.459,0.465c0.349,0.021,0.941-0.125,1.562-0.625s0.621-0.5,0.621-0.5
	c-0.683,0.867-1.229,1.792-1.646,2.131c-0.416,0.338-0.919,0.552-0.987,1.085c-0.055,0.221-0.086,0.458,0.188,1.114
	c0.076,0.522,0.335,2.041,0.32,2.777c-0.016,0.735-0.055,2.308-0.154,3.413c-0.098,1.105-0.185,3.034-0.23,3.206
	c-0.221,0.356-0.483,0.558-0.501,0.958c-0.018,0.401-0.132,0.836-0.191,0.876c-0.078,0.075-0.264,0.31-0.507,0.476l-0.064,0.044
	c-0.143,0.012-0.417,0.091-0.754,0.483c0.182-0.128,0.345-0.202,0.482-0.247c-0.021,0.043-0.027,0.087,0.036,0.087
	c0.128-0.002,1.082-0.221,1.343,0.098c0.26,0.319,0.884,1.309,1.082,1.488c0.061,0.055,0.139,0.072,0.214,0.066
	c0.152,0.157,0.407,0.431,0.562,0.658c-0.152-0.336-0.302-0.577-0.398-0.718c0.08-0.061,0.12-0.158,0.057-0.271
	c-0.144-0.258-0.524-0.767-0.582-0.899c-0.059-0.133,0.119-0.158,0.516,0.058c0.403,0.146,2.148,0.186,2.408,0.17
	c0.097-0.006,0.173-0.038,0.225-0.08c0.154,0.097,0.361,0.24,0.484,0.374c-0.052-0.087-0.198-0.294-0.411-0.479
	c0.015-0.048,0.007-0.096-0.027-0.129c-0.098-0.095-0.149-0.201-0.496-0.234c-0.347-0.033-1.828-0.318-2.091-0.483
	c-0.266-0.166,0.012-0.377,0.098-0.457c0.036-0.034,0.049-0.092,0.042-0.15c0.136-0.079,0.371-0.213,0.49-0.258
	c-0.181-0.015-0.416,0.085-0.537,0.144c-0.026-0.028-0.059-0.048-0.104-0.052c-0.159-0.01-0.345,0.097-0.44,0.053
	c-0.094-0.043-0.329-0.607-0.321-0.786c0.008-0.178,0.108-2.419,0.159-3.136c0.051-0.715,0.246-3.356,0.271-3.763
	c0.025-0.406,0.251-1.577,0.136-2.157c0.139-0.636,0.236-1.156,0.236-1.156c0.151-0.254,0.067-0.392,0.035-0.565
	c0.129-0.207,0.375-0.386,0.253-0.865c0.371-0.642,1.019-1.734,1.245-2.083c0.227-0.349,0.581-0.938,0.673-1.119
	c0.307-0.264,0.596-0.504,0.646-0.527c0.152-0.061,0.329-0.073,0.329-0.073c0.038-0.07,0.076-0.236,0.076-0.236
	c0.19,0.011,0.405-0.04,0.712-0.174c0.339,0.212,0.519,0.553,0.814,0.59c0.245-0.006,0.187-0.17,0.21-0.198
	c0.09-0.041,0.402,0.082,0.41,0.108c-0.206,0.963-0.43,2.802-0.718,3.615c-0.14,0.442-0.364,0.812-0.311,0.969
	c0.053,0.158,0.025,0.307,0.136,0.437c0.11,0.13,0.162,0.159,0.162,0.159c-0.139,0.16-0.116,0.415,0.064,0.789
	c0.197,1.205,0.376,2.78,0.417,3.488c0.041,0.708,0.048,2.411,0.084,3.316c0.019,0.486,0.02,1.131-0.023,1.714l-0.34,1.342
	c-0.207,0.244-0.191,0.422-0.133,0.526l-0.049,0.195c-0.071,0.082-0.235,0.332-0.463,0.519l-0.061,0.05
	c-0.14,0.025-0.407,0.127-0.707,0.548c0.168-0.144,0.326-0.231,0.458-0.289c-0.018,0.045-0.02,0.089,0.042,0.083
	c0.129-0.013,1.059-0.316,1.347-0.021c0.288,0.294,0.997,1.226,1.209,1.386c0.066,0.049,0.145,0.059,0.22,0.047
	c0.165,0.143,0.443,0.393,0.617,0.604c-0.18-0.319-0.351-0.546-0.459-0.679c0.074-0.067,0.106-0.168,0.033-0.275
	c-0.167-0.245-0.59-0.717-0.66-0.844c-0.07-0.127,0.105-0.167,0.519,0.012c0.414,0.11,2.157-0.006,2.414-0.045
	c0.096-0.014,0.169-0.053,0.217-0.1c0.163,0.083,0.381,0.207,0.515,0.33c-0.059-0.083-0.224-0.276-0.452-0.441
	c0.011-0.049,0-0.096-0.038-0.127c-0.106-0.086-0.166-0.188-0.515-0.189c-0.348-0.002-1.849-0.154-2.126-0.295
	c-0.278-0.141-0.021-0.376,0.057-0.464c0.034-0.036,0.042-0.096,0.03-0.152c0.128-0.092,0.35-0.246,0.464-0.3
	c-0.181,0-0.407,0.121-0.522,0.19c-0.028-0.026-0.064-0.043-0.107-0.042c-0.159,0.004-0.335,0.126-0.434,0.092
	c-0.049-0.018-0.143-0.161-0.228-0.322c-0.067-0.357-0.085-0.704-0.085-0.704c-0.023-0.84-0.166-2.741-0.167-3.756
	c-0.002-1.015-0.122-4.479-0.116-4.818c0.185-0.299,0.116-0.415,0.116-0.415c0.145-0.185-0.075-0.663,0.005-0.847
	c0.09-0.375,0.27-0.618-0.115-1.371c0.116-0.716,0.047-2.064,0.373-2.903c0.199-0.688,0.037-1.084,0.231-1.336
	s0.767-1.314,1.083-1.421s1.322-0.644,1.782-0.873c0.461-0.228,1.214-0.959,2.007-1.934c0.792-0.725,1.932-1.666,1.996-1.699
	c-0.166,0.232-0.192,0.272-0.192,0.272c1.125-1.138,1.936-2.372,2.097-2.58c0.16-0.207,0.288-0.132,0.199,0.07
	c-0.09,0.202-1.078,1.666-1.292,1.953c0.196-0.188,1.034-1.302,1.129-1.431c0.03,0.044,0.16,0.106-0.387,0.794
	c-0.546,0.687-2.359,3.018-2.618,3.271c0.386-0.243,0.756-0.571,1.086-0.894c0.331-0.323,1.198-1.489,1.265-1.535
	c0.066-0.045,0.167,0.102,0.12,0.177c-0.046,0.075-0.668,1.235-1.464,1.984c0.347-0.236,1.038-0.806,1.038-0.806
	s0.138-0.083,0.108,0.143c-0.178,0.403-0.453,0.839-0.453,0.839c0.27-0.206,0.638-0.49,0.638-0.49
	c-0.194,0.522-0.77,2.385-0.846,3.713c0.042,0.284-0.177,1.116-0.248,1.283c0.19-0.26,0.197-0.297,0.197-0.297
	c-0.064,0.443-0.082,0.607-0.082,0.607c0.307-0.815,0.78-1.927,0.959-2.677c0.18-0.75,0.709-2.474,0.709-2.474
	c0.571-1.125,1.333-2.889,1.676-3.794c0.78-2.338,1.607-3.152,2.097-4.73c0.488-1.578,0.645-2.409,0.709-3.642
	c0.065-1.234-0.221-3.471-0.62-4.625s-1.038-2.577-1.07-3.02s0.069-1.669,0.62-2.035c0.55-0.365,1.057-0.398,1.505-0.596
	c0.449-0.198,0.831-0.223,1.164-0.147c0.333,0.076,1.032,0.182,1.392,0.249c0.36,0.067,1.678,0.399,2.39,0.269
	C39.633,4.045,39.398,3.449,37.917,2.926z"/>
</svg>
