<?xml version="1.0" encoding="utf-8"?>
<!-- Generator: Adobe Illustrator 13.0.2, SVG Export Plug-In  -->
<!DOCTYPE svg PUBLIC "-//W3C//DTD SVG 1.1 Tiny//EN" "http://www.w3.org/Graphics/SVG/1.1/DTD/svg11-tiny.dtd" [
	<!ENTITY ns_flows "http://ns.adobe.com/Flows/1.0/">
]>
<svg version="1.1" baseProfile="tiny"
	 xmlns="http://www.w3.org/2000/svg" xmlns:xlink="http://www.w3.org/1999/xlink" xmlns:a="http://ns.adobe.com/AdobeSVGViewerExtensions/3.0/"
	 x="0px" y="0px" width="85px" height="60px" viewBox="-0.935 -0.004 85 60" xml:space="preserve">
<defs>
</defs>
<path fill="#010101" d="M23.602,22.013c1.55,0.36,2.804,0.269,2.917-0.216c0.076-0.331-0.717-1.006-2.726-1.475l-0.57-0.133
	l-0.382,1.642C23.063,21.887,23.313,21.946,23.602,22.013z"/>
<path fill="#010101" d="M27.243,16.69c0.031-0.134-0.383-0.617-1.995-0.993c-0.361-0.084-0.67-0.15-0.933-0.199l-0.249,1.071
	l0.515,0.12C26.502,17.137,27.214,16.819,27.243,16.69z"/>
<path fill="#010101" d="M16.511,0L4.781,9.582L0,29.491l6.337,14.195l67.36,15.688L83.87,15.688L16.511,0z M35.007,14.208
	l0.86,0.201l11.421,2.659l0.861,0.201l-0.201,0.86l-0.507,2.18l-0.201,0.859l-0.858-0.199l-6.379-1.486l-0.169,0.722l5.966,1.39
	l0.859,0.199l-0.2,0.861l-0.504,2.161l-0.199,0.86l-0.86-0.201l-5.966-1.389l-0.249,1.07l6.766,1.574l0.858,0.2l-0.201,0.861
	l-0.506,2.179l-0.201,0.861l-0.859-0.201l-11.808-2.75l-0.861-0.2l0.201-0.86l2.737-11.753L35.007,14.208z M16.349,23.105
	l2.685-11.526l0.176-0.758l0.774,0.081c1.284,0.132,3.583,0.551,5.593,1.019c2.817,0.655,4.339,1.216,5.586,2.047
	c1.632,1.009,2.382,2.389,2.059,3.783c-0.121,0.515-0.547,1.512-2.016,2.067c1.179,1.008,1.707,2.251,1.412,3.509
	c-0.31,1.333-1.434,2.294-3.157,2.703c-1.748,0.425-4.274,0.224-7.951-0.633c-2.353-0.548-3.88-1.021-4.579-1.254l-0.764-0.255
	L16.349,23.105z M10.757,21.765c-0.332,1.425-1.757,2.312-3.182,1.98c-1.426-0.333-2.312-1.757-1.979-3.182
	c0.331-1.426,1.755-2.312,3.182-1.98C10.202,18.916,11.088,20.34,10.757,21.765z M31.25,34.84l-1.438,6.17l-0.153,0.663l-0.681,0.02
	c-1.336,0.04-3.462-0.081-5.421-0.536c-2.896-0.674-4.939-1.748-6.251-3.287c-1.316-1.567-1.783-3.533-1.315-5.543
	c1.011-4.232,5.371-6.102,11.11-4.766c2.03,0.473,3.569,1.16,4.334,1.647l0.734,0.467l-0.457,0.741l-1.214,1.971l-0.473,0.767
	l-0.758-0.486c-0.578-0.372-1.399-0.806-3.1-1.203c-0.977-0.227-4.209-0.756-4.842,1.963c-0.512,2.198,1.326,3.452,3.219,3.893
	c0.315,0.073,0.584,0.123,0.806,0.155l0.202-0.875l-1.469-0.342l-0.861-0.2l0.201-0.86l0.481-2.067l0.199-0.86l0.86,0.2l5.625,1.31
	l0.86,0.201L31.25,34.84z M50.151,33.901l-1.535,6.591c-0.477,2.049-1.701,3.496-3.54,4.187c-1.68,0.63-3.868,0.64-6.502,0.025
	c-6.829-1.591-7.472-5.321-6.808-8.172l1.527-6.558l0.199-0.86l0.861,0.201l4.184,0.974l0.86,0.201l-0.201,0.859l-1.572,6.749
	c-0.221,0.948-0.255,2.269,1.984,2.79c2.249,0.524,2.812-0.522,3.066-1.613l1.571-6.75l0.201-0.859l0.859,0.2l4.185,0.974l0.859,0.2
	L50.151,33.901z M68.822,38.852l-7.432,5.237l-1.064,4.572l-0.199,0.859l-0.86-0.199l-4.184-0.976l-0.859-0.199l0.199-0.861
	l1.048-4.496l-4.099-8.02l-0.866-1.692l1.853,0.431l4.816,1.122l0.463,0.107l0.164,0.444c0,0,1.214,3.261,1.211,3.254
	c0.186,0.481,0.34,0.896,0.481,1.288c0.306-0.302,0.627-0.608,0.978-0.942L63,36.394l0.346-0.327l0.461,0.107l4.707,1.096
	l1.92,0.448L68.822,38.852z M78.276,27.545l-0.199,0.86l-0.86-0.199l-4.205-0.979l-2.017,8.66l-0.199,0.86l-0.861-0.199
	l-4.184-0.976l-0.858-0.201l0.199-0.858l2.017-8.66l-4.148-0.967l-0.86-0.201l0.2-0.859l0.457-1.962l-0.321,0.43L61.005,24.2
	l-0.477,0.635l-0.682-0.404c-0.566-0.336-1.771-0.959-3.472-1.355c-0.966-0.225-1.531-0.181-1.796-0.11
	c0.423,0.399,1.786,1.09,2.475,1.439c2.214,1.094,5.081,2.866,4.439,5.63c-0.507,2.177-3.236,3.996-9.368,2.567
	c-2.274-0.53-4.372-1.445-5.36-2.072l-0.772-0.49l0.52-0.755l1.36-1.981l0.474-0.69l0.716,0.438c0.922,0.564,2.516,1.312,4.22,1.708
	c1.428,0.333,2.032,0.156,2.167,0.064c-0.09-0.145-0.486-0.544-2.236-1.378c-1.356-0.657-5.484-2.657-4.778-5.692
	c0.611-2.621,4.188-3.644,8.899-2.547c1.919,0.447,3.547,1.049,4.836,1.79l0.696,0.4l0.156-0.663l0.858,0.199l14.257,3.32
	l0.86,0.201l-0.199,0.858L78.276,27.545z"/>
</svg>
