<?xml version="1.0" encoding="utf-8"?>
<!-- Generator: Adobe Illustrator 15.0.0, SVG Export Plug-In  -->
<!DOCTYPE svg PUBLIC "-//W3C//DTD SVG 1.1 Tiny//EN" "http://www.w3.org/Graphics/SVG/1.1/DTD/svg11-tiny.dtd" [
	<!ENTITY ns_flows "http://ns.adobe.com/Flows/1.0/">
]>
<svg version="1.1" baseProfile="tiny"
	 xmlns="http://www.w3.org/2000/svg" xmlns:xlink="http://www.w3.org/1999/xlink" xmlns:a="http://ns.adobe.com/AdobeSVGViewerExtensions/3.0/"
	 x="0px" y="0px" width="101px" height="117px" viewBox="-0.97 -0.94 101 117" overflow="visible" xml:space="preserve">
<defs>
</defs>
<path fill="#FAFA00" d="M50.14,60.68c-0.31,0.05-0.61,0.14-0.93,0.27c-0.3,0.13-0.56,0.23-0.78,0.31c-0.06-0.04-0.11-0.07-0.16-0.11
	c-1.74-1.18-3.98-1.63-5.59,0.08c-0.03,0.04-0.06,0.07-0.09,0.11c-1.54-1.21-3.65-2.09-6.21-1.52c-5.42,1.2-4.93,3.21-5.99,3.68
	c-1.06,0.46-2.33,0.36-2.58-0.85c-0.25-1.21,0.92-2.11,2.32-2.33c1.4-0.22,5.06-0.85,6.28-2.23s1.2-2.63,0.57-2.89
	c-0.64-0.26-2.18,0.58-3.11,0.72c-0.93,0.14-2.14-0.32-2-1.36c0.14-1.04,1.41-1.65,2.57-1.53c1.15,0.12,2.49-0.87,2.51-1.88
	s-1.44-1.98-2.25-2.16s-2.06-0.53-3.38-0.02c-1.32,0.51-1.94,0.94-3,1.12c-1.15,0.19-1.59-0.93-1.43-1.44s0.36-0.92,1.28-0.69
	c0.92,0.23,2.86,0.41,3.74,0.33c0.88-0.08,2.64-1.07,3.99-0.8c1.36,0.27,4.63,2.14,6.52,2.39c1.62,0.21,5-0.42,7.31,0.27
	c-0.12,0.97-0.5,1.97-0.67,2.9c-0.36,1.96,2.61,5.5,3.43,6.67c0.15,0.22,0.32,0.43,0.51,0.63c-0.64-0.05-1.27,0.06-1.82,0.3
	C50.83,60.62,50.48,60.63,50.14,60.68z"/>
<path fill="#FAFA00" d="M48.61,75.59c0.07-0.11,0.14-0.22,0.22-0.33c-0.01,0.1-0.02,0.21-0.04,0.3c-0.11,0.55-0.22,1.48-0.31,2.6
	C48.12,77.31,48.1,76.35,48.61,75.59z"/>
<path fill="#FAFA00" d="M37.1,73.68c-1.9-1.08-0.41-2.26,0.63-2.84c1.04-0.58,4.69-1.32,6.21-2.28c0.02-0.01,0.05-0.03,0.07-0.04
	c0.15,0.32,0.26,0.62,0.29,0.88c0.02,0.12,0.03,0.24,0.04,0.36c-0.12,0.09-0.24,0.18-0.35,0.28C42.14,71.58,39,74.75,37.1,73.68z"/>
<path fill="#FAFA00" d="M51.25,78.34c1.05,0.97,0.26,2.46-1.25,1.57c-0.08-0.04-0.15-0.09-0.22-0.14c0.23-1.42,0.6-2.42,0.94-3.24
	C50.7,77.34,50.87,77.99,51.25,78.34z"/>
<path fill="#FAFA00" d="M51.51,72.3c0.1-0.29,0.19-0.34,0.4-0.06c-0.17,0.33-0.32,0.66-0.45,0.99
	C51.46,72.81,51.44,72.49,51.51,72.3z"/>
<path fill="#FAFA00" d="M30.77,56.76c0.82-0.13,2.5,0.63,4.39,0.76c0.85,0.05-4.69,1.92-5.33,1.66
	C29.43,58.16,29.95,56.89,30.77,56.76z"/>
<path fill="#FAFA00" d="M25.95,56.85c0.88,1.06-0.12,3.84-2.12,2.06c-0.44-0.39-0.68-1.33-0.39-2.15
	C23.72,55.95,25.07,55.79,25.95,56.85z"/>
<path fill="#FAFA00" d="M13.81,42.09c-0.87-0.5-1.43-1.15-1.38-1.93c0.06-0.78,0.66-2,1.94-1.58c1.28,0.42,2.46,1.07,2.45,2.21
	C16.83,41.92,15.12,42.84,13.81,42.09z"/>
<path fill="#FAFA00" d="M5.09,53.17c1.17,0.65,1.7,0.93,2.24,0.61c0.55-0.32,1.41-0.89,1.75-0.66s0.23,1.08-0.41,1.23
	s-1.06-0.21-1.62-0.23c-0.57-0.03-1.65-0.09-2.38,0.61s-1.91,0.77-2.41,0.61c-0.79-0.25-0.7-1.44-0.1-1.83
	C2.76,53.11,3.92,52.52,5.09,53.17z"/>
<path fill="#FAFA00" d="M1.03,37.39c0.93-0.14,1.6,1.48,1.97,1.96c0.37,0.48,1.15,1.25,2.4,1.24c1.25-0.02,2.81,0.82,2.49,2.24
	c-0.32,1.42-1.94,1.44-2.9,0.6c-0.65-0.57-0.86-2.1-1.47-2.97c-0.61-0.86-1.98-1.24-2.46-1.59C0.61,38.53,0.1,37.54,1.03,37.39z"/>
<path fill="#FAFA00" d="M11.54,44.77C12,45,12,45.41,11.8,45.69c-0.2,0.27-0.47,0.07-0.7-0.31C10.83,44.95,11.09,44.54,11.54,44.77z
	"/>
<path fill="#FAFA00" d="M18.86,56.52c0.29,0.31,0.31,0.85,0.11,1.11c-0.2,0.27-0.57,0.21-0.85-0.1c-0.34-0.37-0.29-0.73-0.1-1
	C18.22,56.26,18.57,56.21,18.86,56.52z"/>
<path fill="#FAFA00" d="M76.44,25.78c-0.68,0.76-1.49,1.38-2.28,1.03c-0.79-0.35-0.91-1.81,0.01-2.5c0.61-0.45,1.24-0.65,1.77-0.37
	C76.47,24.23,77.12,25.02,76.44,25.78z"/>
<path fill="#FAFA00" d="M81.45,20.45c-0.19,0.93-1.05,1.96-2.06,1.5c-1.01-0.46-0.76-1.67,0.01-2.25c0.52-0.39,1.7-0.3,2.44-0.62
	c0.74-0.32,1.24-1.27,1.57-1.57c0.33-0.29,1.15-0.52,1.11,0.2c-0.04,0.72-1.35,0.95-1.77,1.15C82.34,19.07,81.64,19.53,81.45,20.45z
	"/>
<path fill="#FAFA00" d="M69.25,32.2c-0.26,0.01-0.49-0.14-0.61-0.35c-0.19-0.33,0.14-0.53,0.65-0.6c0.11-0.02,0.21-0.01,0.3,0.01
	c-0.04,0.05-0.07,0.11-0.1,0.17C69.37,31.66,69.29,31.92,69.25,32.2z"/>
<path fill="#FAFA00" d="M82.73,78.04c0,0,6.61,3.26,7.35,5.2c0.74,1.95-1.46,1.34-2.57-0.21c-0.51-0.7-2.72-3.03-3.8-3.8
	C82.63,78.47,81.91,77.96,82.73,78.04z"/>
<path fill="#FAFA00" d="M70.84,65.69c0.44,0.31,0.93,0.55,1.45,0.68c1.83,3.22,4.27,6.69,3.71,6.36c-0.68-0.4-7.21-6.57-10.05-5.75
	c-2.83,0.82-2.99,0.75-2.54,2.28s3.23,4.02,4.19,4.83c0.96,0.81,0.34,1.58-0.09,2.52c-0.42,0.95,0.24,3.05,1.32,3.83
	c1.08,0.77,0.15,1.78-1.11,1.21c-1.26-0.57-1.86-1.78-1.81-3.38c0.05-1.59-0.5-5.45-1.72-6.95c-1.23-1.5-5.3-0.48-5.2,1.84
	c0.09,2.32,1.88,3.22,1.47,4.56c-0.41,1.33-1.47,0.95-1.75-0.12c-0.28-1.08-0.45-4.29-2.05-6.43s-2.76-3.14-4.75-4.23
	s-2.21-2.7-1.15-4.41c1.05-1.71,2.18-0.83,3.09,0.53c0.42,0.62,1.55,1.15,3,1.35c-1.1-1.02-1.94-2.32-2.73-3.67
	c-0.84-1.45-1.61-2.96-2.57-4.24c-1.12-1.49-0.95-3.92-0.07-5.9s2.48-4.54,2.62-5.82c0.14-1.27-1.1-6.59-0.56-8.21
	c0.55-1.62,1.66-1.45,2.02-0.81c0.35,0.64-0.23,2.64-0.98,4.98c-0.76,2.34,0.98,5.16,2.19,6.06c1.21,0.9,3.22,1.55,4.06,0.95
	c1.08-0.77,1.52-2.58,1.7-3.99c0.03-0.22,0.41,3.37-0.28,5.49c-0.42,1.28-2.02,3.57-1.87,4.85c0.49,4.21,8.91,2.68,9.22,7.99
	c0.06,0.98-0.32,1.84-0.94,2.57c0.15-0.07,0.3-0.13,0.44-0.2c0.48-0.25,0.85-0.53,1.12-0.84C70.15,64.47,70.23,65.25,70.84,65.69z"
	/>
<path fill="#FAFA00" d="M76.93,85.3c0.1-1.17,2.39-2.25,2.53,0.04c0.03,0.5-0.39,1.22-1.06,1.54C77.73,87.2,76.82,86.48,76.93,85.3z
	"/>
<path fill="#FAFA00" d="M72.88,103.37c-0.52-1.03-0.84-2.13-0.15-2.82c0.69-0.69,2.28-0.21,2.62,1.04c0.23,0.83,0.17,1.56-0.34,2
	C74.51,104.03,73.4,104.39,72.88,103.37z"/>
<path fill="#FAFA00" d="M85.82,95.57c-0.66-0.27-1.76-0.67-1.79-1.12c-0.03-0.45,0.81-0.94,1.39-0.47s0.54,1.09,0.9,1.62
	c0.36,0.53,1.04,1.55,2.17,1.72c1.13,0.17,2,1.19,2.19,1.75c0.31,0.89-0.82,1.62-1.58,1.35c-0.76-0.27-2.09-0.91-2.3-2.41
	C86.59,96.5,86.49,95.85,85.82,95.57z"/>
<path fill="#FAFA00" d="M78.05,108.97c0.2,0.71-0.38,1.91-0.35,2.81c0.03,0.9,0.83,1.82,1.01,2.29c0.17,0.47,0.07,1.42-0.66,1.09
	c-0.74-0.34-0.45-1.81-0.49-2.33c-0.04-0.52-0.23-1.44-1.13-2.01c-0.9-0.58-1.62-1.91-0.73-2.78
	C76.59,107.17,77.76,107.92,78.05,108.97z"/>
<path fill="#FAFA00" d="M69.11,93.77c-0.21-0.63,0.17-1.02,0.6-1.08c0.43-0.07,0.5,0.36,0.37,0.93
	C69.93,94.26,69.32,94.39,69.11,93.77z"/>
<path fill="#FAFA00" d="M81.54,90.29c-0.28,0.04-0.53-0.13-0.51-0.5c0.01-0.36,0.32-0.7,0.6-0.75c0.28-0.04,0.47,0.22,0.45,0.58
	C82.06,90.05,81.82,90.25,81.54,90.29z"/>
<path fill="#FAFA00" d="M81.83,69.81c1.14,0.05,2.11,0.97,2.37,1.51c0.41,0.85-0.64,1.69-1.43,1.5c-0.78-0.19-2.17-0.68-2.54-2.15
	c-0.37-1.47-0.55-2.12-1.24-2.31s-1.82-0.48-1.9-0.92c-0.08-0.45,0.71-1.02,1.33-0.62c0.62,0.4,0.65,1.03,1.06,1.52
	C79.91,68.82,80.69,69.77,81.83,69.81z"/>
<path fill="#FAFA00" d="M41.88,8.59c-0.6-0.83-0.73-2.63,0.03-2.97C42.66,5.27,44.21,6,43.59,8.8C43.47,9.31,42.48,9.41,41.88,8.59z
	"/>
<path fill="#FAFA00" d="M39.22,39.97c0.61,0.39,1,2.25-0.7,2.07c-0.54-0.06-0.95-1-0.78-1.57C37.9,39.89,38.61,39.59,39.22,39.97z"
	/>
<path fill="#FAFA00" d="M46.2,44.03c-0.56-1.01-1.99-3.29-1.57-7.12c0.42-3.83-1.15-5.37-1.52-5.94c-0.46-0.71-2.84-4.62-2.97-6.29
	c-0.14-1.67,0.42-1.97,1.27-1.72s0.99,3.77,0.95,5c-0.05,1.23,0.65,2.82,1.6,3.56c0.94,0.74,3.73,2.09,3.73,3.41
	s-2.08,3.42-1.47,6.39c0.61,2.96,1.13,3.58,1.83,4.63C47.9,46.16,46.75,45.05,46.2,44.03z"/>
<path fill="#FAFA00" d="M60.23,32.78c-1.22-1.58-1.92-2.73-1.62-4.03c0.2-0.87,1.62-1.14,2.5,0.18c0.7,1.06,1.28,2,1.26,8.73
	C62.37,37.66,61.46,34.38,60.23,32.78z"/>
<path fill="#FAFA00" d="M67.65,38.12c0.33-0.69,0.79-1.15,1.38-1.16c0.6,0,1.55,0.38,1.31,1.38c-0.24,0.99-0.66,1.92-1.52,1.99
	C67.96,40.39,67.16,39.15,67.65,38.12z"/>
<path fill="#FAFA00" d="M71.94,29.89c0.5-0.63,0.49-1.71,0.64-2.12c0.15-0.42,0.77-1,1.07-0.35c0.3,0.65-0.74,1.48-1.01,1.85
	c-0.27,0.37-0.67,1.1-0.4,2.01s0,2.22-1.11,2.29c-1.1,0.07-1.46-1.11-1.05-1.99C70.36,30.99,71.44,30.52,71.94,29.89z"/>
<path fill="#FAFA00" d="M66.33,47.37c-0.33-0.2-0.12-0.53,0.29-0.84c0.47-0.35,0.96-0.09,0.74,0.45
	C67.14,47.53,66.66,47.57,66.33,47.37z"/>
<path fill="#FAFA00" d="M60.26,20.19c-0.61,1-3.14,0.95-2.26-1.16c0.2-0.46,0.89-0.92,1.63-0.91
	C60.39,18.13,60.88,19.18,60.26,20.19z"/>
<path fill="#FAFA00" d="M56.5,8.64c-0.31-0.67,0-1.22-0.08-1.85c-0.09-0.63-0.25-1.85-1.18-2.5c-0.94-0.65-1.26-1.95-1.19-2.55
	c0.11-0.93,1.45-1.08,2.01-0.5c0.56,0.58,1.47,1.74,0.99,3.18c-0.48,1.44-0.67,2.08-0.2,2.61c0.47,0.54,1.28,1.38,1.11,1.79
	C57.78,9.25,56.81,9.31,56.5,8.64z"/>
<path fill="#FAFA00" d="M57.71,14.74c-0.27-0.08-0.32-0.4-0.15-0.72c0.21-0.38,0.51-0.44,0.78-0.35s0.41,0.35,0.24,0.67
	C58.41,14.67,57.98,14.83,57.71,14.74z"/>
<path fill="#32DA00" d="M24.94,83.76c-1.53,0-0.99-1.78-0.02-2.62c0.97-0.84,5.15-1.83,6.26-2.66
	C31.17,78.47,26.47,83.75,24.94,83.76z"/>
<path fill="#32DA00" d="M17.06,56.11c0,0-9.59,5.17-11.32,4.69c-1.74-0.48-0.67-1.89,0.7-2.53C7.8,57.63,15.54,56.7,17.06,56.11z"/>
<path fill="#32DA00" d="M30.29,54.54c-0.3-0.3-0.33-0.69-0.03-0.89c0.09-0.06,0.36-0.13,0.75-0.19
	C30.68,53.77,30.43,54.14,30.29,54.54z"/>
<path fill="#32DA00" d="M53.26,41.8c0.16,0.87,0.29,1.61,0.32,2.04c0.06,0.94-1.07,3.17-2.74,3.11c0.18-0.56,0.34-1.11,0.48-1.61
	c0.19-0.7,0.33-1.31,0.42-1.73C51.96,42.58,52.6,41.97,53.26,41.8z"/>
<path fill="#32DA00" d="M55.91,44.27c-0.01,0.05-0.02,0.09-0.03,0.14c-0.55-0.73-0.83-1.4-0.92-2.01
	C55.54,42.98,56.02,43.79,55.91,44.27z"/>
<path fill="#32DA00" d="M74.68,44.18c-0.43,1-1.04,1.9-1.95,1.82c-0.03,0-0.05-0.01-0.08-0.01c0.55-0.75,1.3-1.6,2.11-2.52
	C74.81,43.67,74.79,43.91,74.68,44.18z"/>
<path fill="#32DA00" d="M61.18,39.56c0.08,0.24,0.17,0.52,0.25,0.8c-0.13,0.44-0.25,0.87-0.38,1.28c-0.36-0.04-0.77-0.34-0.78-0.82
	c-0.02-0.7,0.46-1.05,0.63-1.63c0.16-0.58,0.49-1.69-0.08-2.62c-0.42-0.68-0.41-1.54-0.26-2.13c0.57,1.05,0.96,2.3,1.18,3.62
	C61.22,38.68,61.02,39.07,61.18,39.56z"/>
<path fill="#32DA00" d="M77.91,37.1c0.01,0.09,0.02,0.18,0.02,0.28c-0.1-0.52-0.32-0.98-0.62-1.42c0.2-0.11,0.38-0.23,0.53-0.37
	c0.63-0.57,0.81-1.71,1.05-2.12c0.23-0.41,0.98-0.92,1.19-0.18c0.2,0.74-1.04,1.43-1.39,1.77C78.33,35.4,77.78,36.09,77.91,37.1z"/>
<path fill="#32DA00" d="M59.15,45.88c0.19-0.14,0.37-0.18,0.52-0.15c-0.05,0.13-0.1,0.27-0.15,0.41c-0.2,0.06-0.41,0.09-0.62,0.1
	C58.93,46.11,59.01,45.98,59.15,45.88z"/>
<path fill="#32DA00" d="M80.34,94.08c-0.75,0.51-1.94-2.08-2.19-3.76c-0.09-0.63-0.38-1.68-0.75-2.84c0.1,0.02,0.21,0.02,0.3,0.01
	c0.03,0,0.06-0.01,0.09-0.01c0.64,1.56,1.56,3.54,2.52,4.34C81.03,92.41,81.09,93.57,80.34,94.08z"/>
<path fill="#32DA00" d="M67.08,72.54c-0.01-0.46,0.27-0.81,1.42-0.47c1.97,0.59,3.76,1.99,4.34,2.47c0.9,2.65,2.55,6.93,3.51,9.37
	c-0.07,0.06-0.14,0.12-0.21,0.19c-0.35-0.81-0.7-1.54-1.02-2.04c0.48,1.1,0.21,2.13-0.25,2.34c-0.46,0.2-0.59-1.29-0.43-2.14
	c0.16-0.85-0.23-1.91-0.8-2.47c-0.57-0.57-1.71-1.7-2.1-1.23c-0.4,0.48,1.4,8.15,2.42,10.63c1.02,2.48,1.26,3.22,0.92,3.61
	c-0.34,0.39-0.98-1.4-0.97-1.98c0.01-0.59-4.07-13.96-4.76-15.66c-0.01-0.02-0.01-0.03-0.02-0.05c-0.12-0.63-0.51-1.21-1.02-1.72
	C67.75,72.94,67.37,72.62,67.08,72.54z"/>
<path fill="#32DA00" d="M63.13,73.32c0.77,0.35,0.88,1.52,0.9,2.49c-0.32-0.59-0.71-1.15-1.16-1.5c-0.18,0.49-0.62,4.49-0.38,6.75
	c0.24,2.27-0.08,3.99,3.19,13.58c3.26,9.58,5.28,13.24,5.06,14.77c-0.22,1.53-2.47,1.51-2.85,0.23c-0.53-1.83-0.43-3.93-0.71-5.81
	c-0.4-2.66-1.38-4.91-2.34-7.39c-1.09-2.83-1.3-5.96-1.91-8.93c-0.47-2.32-1.05-4.62-1.5-6.95c-0.06-0.32-0.17-0.85-0.31-1.51
	c0.1-0.18,0.19-0.39,0.26-0.64c0.55-2.12-0.28-2.76-0.96-4.06C60.58,73.56,62.62,73.09,63.13,73.32z"/>
<path fill="#32DA00" d="M64.98,78.39c0-0.01,0-0.03,0-0.04l0.08,0.15c0.01,0.09,0.03,0.18,0.04,0.28
	C65.03,78.62,64.99,78.48,64.98,78.39z"/>
<path fill="#32DA00" d="M42.85,62.29c0.99-1.67,3.15-1.34,4.62-0.52c-0.26,0.27-0.39,0.71-0.53,1.66c-0.23,1.57,0.1,2.51,1.31,3.64
	c2.3,2.14,4.82,2.79,6.26,3.8c1.17,0.83,2.15,2.44,2.49,3.03c0.03,0.72,0.12,1.52,0.3,2.37c0.49,2.42,1,6.14,0.8,7.44
	c-0.2,1.3-0.1,2.66,0.48,3.59c0.58,0.93,1.35,2.68,0.73,3.74c-0.62,1.06-1.68,0.56-2.22,0.12c-0.54-0.43-0.96-1.62-0.64-2.74
	c0.32-1.12,1.11-2.84,0.86-3.75c-0.25-0.92-0.87-2.16-0.99-3.29c-0.12-1.13,0.13-5.95-0.12-7.63c-0.25-1.68-1.13-1.72-1.54-1.61
	c-0.41,0.12-0.83,1.41-0.92,1.95c-0.09,0.54,0.41,2.37,0.3,3.13c-0.11,0.76-1.09,0.31-0.93-0.54c0.16-0.85,0.44-3.41-0.4-4.49
	c-0.83-1.08-1.28-2.05-1.74-1.84c-0.46,0.21-0.31,1.47-0.08,2.43c0.23,0.96-0.26,2.92-0.64,3.76c-0.38,0.84-1.36,5.35-0.64,11.21
	c0.72,5.86,2.92,9.98,3.79,11.55s0.31,4.44-0.52,4.9c-0.84,0.46-2.25-0.96-1.81-2.48c0.45-1.51,0.1-3.61-0.14-4.93
	s-1.63-7.57-1.93-9.16s0.34-10.32,0.59-11.71c0.25-1.39-2.25-7.1-3.17-7.64c-0.92-0.54-0.93,0.05-1.11,0.54
	c-0.18,0.49-0.64,2.23,0.23,3.44c0.87,1.21,0.37,1.87-0.18,2.02c-0.54,0.16-1.14-0.55-1.1-1c0.04-0.45,1.02-4.02,0.34-5.35
	C43.93,66.58,42.33,63.17,42.85,62.29z"/>
<path fill="#32DA00" d="M83.22,49.92c-0.18-1.1,1.65-2.63,2.33-0.57c0.15,0.45-0.07,1.2-0.6,1.66C84.4,51.47,83.4,51.02,83.22,49.92
	z"/>
<path fill="#32DA00" d="M85.84,67.1c-0.36,0.52-1.28,1.12-2,0.31c-0.72-0.82-1.27-1.75-0.81-2.54s2.03-0.74,2.64,0.32
	C86.07,65.89,86.2,66.57,85.84,67.1z"/>
<path fill="#32DA00" d="M97.96,60.83c-0.75-0.06-2.12-0.33-2.68-1.65c-0.55-1.32-0.81-1.9-1.48-1.99c-0.67-0.09-1.77-0.19-1.9-0.59
	c-0.13-0.41,0.52-1.05,1.15-0.77c0.63,0.28,0.75,0.87,1.21,1.27c0.46,0.4,1.32,1.17,2.4,1.05c1.08-0.11,2.11,0.61,2.43,1.08
	C99.58,59.96,98.72,60.9,97.96,60.83z"/>
<path fill="#32DA00" d="M91.37,76.95c-0.75-0.13-0.84-1.55-1-2.02c-0.16-0.46-0.56-1.26-1.52-1.57C87.89,73.05,86.91,72,87.52,71
	s1.86-0.6,2.38,0.29c0.35,0.6,0.11,1.83,0.35,2.65c0.25,0.82,1.2,1.47,1.47,1.85C91.99,76.19,92.12,77.08,91.37,76.95z"/>
<path fill="#32DA00" d="M78.94,59.16c0.02,0.62-0.51,0.89-0.85,0.37c-0.34-0.52-0.09-0.97,0.29-1.13
	C78.76,58.23,78.92,58.61,78.94,59.16z"/>
<path fill="#32DA00" d="M88.04,53.05c-0.07-0.34,0.13-0.72,0.38-0.83s0.48,0.08,0.55,0.42c0.08,0.4-0.09,0.63-0.34,0.74
	C88.38,53.48,88.11,53.39,88.04,53.05z"/>
<path fill="#32DA00" d="M61.55,19.16c0.05-0.22,0.1-0.42,0.18-0.57c1.03-1.99,2.12,0.21,1.68,2.21c-0.2,0.91-0.47,4.37-0.31,5.79
	c0.16,1.42,0.26,2.37-0.26,1.65c0,0-1.23-4.4-1.38-7.4C61.73,20.36,61.73,19.73,61.55,19.16z"/>
<path fill="#32DA00" d="M63.43,37.46c0.17,0.83-0.08,10.52,2.61,12.21c2.7,1.69,2.75,1.87,3.66,0.4c0.91-1.46,0.9-5.48,0.86-6.84
	s1.02-1.4,2.09-1.74c1.07-0.34,2.28-2.39,2.12-3.81c-0.16-1.42,1.32-1.4,1.77,0.03c0.45,1.42-0.1,2.78-1.41,3.88
	c-1.31,1.1-4.02,4.32-4.34,6.38c-0.32,2.06,3.42,4.6,5.22,2.85c1.79-1.75,1.23-3.82,2.6-4.46c1.37-0.63,1.82,0.5,1.16,1.49
	c-0.66,0.99-3.12,3.45-3.69,6.27c-0.57,2.83-1.17,4.77-0.61,7.15c0.56,2.37,0.05,3.43-2.08,3.81c-2.13,0.38-2.23-1.15-1.79-2.86
	c0.44-1.71-1.93-5.76-5.99-7.41c-0.88-0.36-2.1-0.79-3.21-1.23c-0.37-0.44-0.51-1.02-0.27-1.86c1.07-3.73,1.97-6.92,1-10.89
	c-0.2-0.8-0.2-1.65-0.12-2.55C63.24,37.57,63.38,37.23,63.43,37.46z"/>
<path fill="#32DA00" d="M61.96,41.89c-0.04,0.67-0.11,1.32-0.22,1.94c-0.08,0.45-0.39,1-0.84,1.46C61.27,44.18,61.63,43,61.96,41.89
	z"/>
<path fill="#209C00" d="M1.16,59.53c-0.01,1.87,1.74,5.41,10.93-0.21c2.08-1.27,3.91-2.23,5.52-2.95c0.02-0.03,0.05-0.07,0.08-0.09
	c0.36-0.39,0.77-0.58,1.18-0.44c4.7-1.86,7.31-1.52,8.8-1.23c0.89,0.17,1.68,0.47,2.48,0.69c0-0.26,0.05-0.52,0.14-0.77
	c-0.3-0.3-0.33-0.69-0.03-0.89c0.09-0.06,0.36-0.13,0.75-0.19c0.35-0.34,0.8-0.62,1.33-0.82c1.41-0.52,2.77,0.17,3.44-0.47
	c0.26-0.25,0.43-0.54,0.46-0.85c-1.88,0.07-3.75,0.23-5.49,0.76c-3.52,1.07-10.84,2.95-18.4,3.24C4.79,55.61,1.16,57.66,1.16,59.53z
	 M6.44,58.27c1.37-0.64,9.1-1.57,10.62-2.16c0,0-9.59,5.17-11.32,4.69C4,60.32,5.07,58.91,6.44,58.27z"/>
<path fill="#209C00" d="M55.88,44.41c0.01-0.05,0.02-0.09,0.03-0.14c0.11-0.48-0.37-1.29-0.95-1.87c-0.03-0.21-0.04-0.41-0.03-0.6
	c0.91,0.8,1.51,1.96,1.41,3.15c-0.12-0.13-0.25-0.27-0.37-0.43C55.93,44.49,55.91,44.45,55.88,44.41z"/>
<path fill="#209C00" d="M51.74,43.6c-0.09,0.42-0.24,1.03-0.42,1.73c-0.95-1.67-2.13-3.33-0.47-4.23c0.72-0.39,1.5-0.44,2.25-0.27
	c0.06,0.33,0.11,0.65,0.17,0.96C52.6,41.97,51.96,42.58,51.74,43.6z"/>
<path fill="#209C00" d="M60.82,36.57c0.57,0.92,0.24,2.03,0.08,2.62c-0.16,0.58-0.64,0.94-0.63,1.63c0.01,0.48,0.42,0.77,0.78,0.82
	c0.13-0.41,0.25-0.84,0.38-1.28c-0.08-0.28-0.18-0.57-0.25-0.8c-0.16-0.49,0.04-0.88,0.56-1.5c0.22,1.26,0.28,2.58,0.22,3.84
	c-0.32,1.1-0.68,2.29-1.06,3.4c-0.37,0.37-0.84,0.68-1.37,0.84c0.05-0.14,0.1-0.27,0.15-0.41c-0.15-0.03-0.33,0.01-0.52,0.15
	c-0.14,0.1-0.22,0.23-0.25,0.35c-0.15,0.01-0.3,0-0.45-0.02c-0.01-0.1,0.03-0.17,0.09-0.24c0.33-0.37,0.84-0.63,1.25-0.56
	c0.02-0.05,0.03-0.09,0.05-0.13c0.22-0.62,0.55-1.56,0.91-2.69c-0.75-0.25-1.35-1.39-0.68-2.58c0.69-1.23,0.62-2.17,0.29-3.13
	c-0.27-0.78-1.07-2.26-0.35-3.33c0.2,0.27,0.39,0.57,0.56,0.88C60.41,35.03,60.41,35.89,60.82,36.57z"/>
<path fill="#209C00" d="M77.4,87.48c0.38,1.17,0.66,2.22,0.75,2.84c0.25,1.68,1.44,4.27,2.19,3.76c0.75-0.51,0.69-1.67-0.02-2.26
	c-0.96-0.8-1.88-2.78-2.52-4.34c0.09-0.01,0.19-0.03,0.28-0.05c0.31,0.76,0.58,1.37,0.75,1.75c1.15,2.44,3.41,3.41,2.05,5.33
	s-3.47-1.2-3.55-2.78c-0.05-0.86-0.55-3.03-0.99-4.84C76.65,87.2,77.03,87.42,77.4,87.48z"/>
<path fill="#209C00" d="M70.39,80.51c-0.04-0.08-0.07-0.15-0.1-0.21c-0.41-0.81-1.06-2.08-1.65-3.24c0.17-0.29,0.37-0.62,0.47-1.06
	c0.08-0.31,0.08-0.61,0.02-0.9c0.01,0.02,0.01,0.03,0.02,0.05c0.69,1.7,4.77,15.07,4.76,15.66s0.63,2.38,0.97,1.98
	c0.34-0.39,0.1-1.12-0.92-3.61c-1.02-2.48-2.81-10.15-2.42-10.63c0.4-0.48,1.53,0.66,2.1,1.23c0.57,0.57,0.96,1.62,0.8,2.47
	c-0.16,0.85-0.03,2.35,0.43,2.14c0.46-0.2,0.73-1.23,0.25-2.34c0.32,0.51,0.67,1.23,1.02,2.04c-0.15,0.15-0.29,0.32-0.4,0.52
	c-0.08-0.32-0.13-0.51-0.13-0.51s0.17,1.05-0.95,1.22c-1.12,0.17-1.4-1.64-1.04-2.26c0.36-0.62,0.57-1.92-0.02-2.26
	c-0.59-0.34-1.42-1.42-1.63-1.07c-0.21,0.35,2.1,9.26,2.66,10.41c0.56,1.15,1.55,2.92,0.48,3.59c-1.08,0.67-1.8-0.58-1.97-2.21
	c-0.14-1.42-1.49-7.52-2.46-10.27C70.63,81.02,70.54,80.77,70.39,80.51z"/>
<path fill="#209C00" d="M61.43,80.57c0.45,2.33,1.03,4.63,1.5,6.95c0.61,2.97,0.81,6.1,1.91,8.93c0.96,2.48,1.94,4.73,2.34,7.39
	c0.28,1.88,0.18,3.98,0.71,5.81c0.37,1.28,2.62,1.29,2.85-0.23c0.22-1.52-1.79-5.18-5.06-14.77c-3.26-9.58-2.94-11.31-3.19-13.58
	c-0.24-2.27,0.2-6.27,0.38-6.75c0.44,0.34,0.84,0.9,1.16,1.5c-0.02-0.97-0.12-2.14-0.9-2.49c-0.51-0.23-2.55,0.24-2.71,1.04
	c-0.11-0.21-0.22-0.44-0.32-0.7c-0.7-1.83,2-2.33,3.22-1.88c1.17,0.43,1.27,3.42,1.74,6.71l-0.08-0.15c0,0.01,0,0.03,0,0.04
	c0.01,0.1,0.05,0.23,0.12,0.39c0.01,0.06,0.02,0.12,0.03,0.19c0.14,0.93,0.35,1.67,0.62,2.25c-1.1-0.14-1.88-1.37-1.65-2.28
	c0.34-1.34-1.03-2.85-1.03-2.85s-0.41,6.63,1.54,13.4c1.88,6.53,1.94,7.32,4.61,13.13c2.67,5.81,3.2,7.78,1.55,9.42
	c-1.65,1.64-4.63-0.58-4.24-3.54c0.54-4.04-0.81-8.09-2.23-11.75c-0.77-1.99-1.14-4.09-1.42-6.2c-0.23-1.77-0.8-3.39-1.12-5.15
	c-0.42-2.3-0.78-4.21-1.11-5.82c0.18-0.12,0.34-0.29,0.47-0.52C61.26,79.72,61.37,80.25,61.43,80.57z"/>
<path fill="#209C00" d="M72.84,74.54c-0.58-0.48-2.37-1.88-4.34-2.47c-1.14-0.34-1.43,0.01-1.42,0.47c0.29,0.08,0.67,0.4,1.03,0.84
	c-0.38-0.37-0.83-0.7-1.28-0.97c-1.35-0.8-2.44-2.62-1.96-3.45c0.75-0.99,4.35,0.87,7.88,3.08c0.15,0.62,0.24,1.2,0.29,1.7
	c0.08,0.71,1.93,5.76,3.57,9.98c-0.08,0.06-0.17,0.12-0.25,0.19C75.39,81.47,73.73,77.19,72.84,74.54z"/>
<path fill="#209C00" d="M42.08,64.57c0.25,0.8,0.67,1.6,1.08,2.35c0.31,0.57,0.62,1.1,0.84,1.58c0.15,0.32,0.25,0.62,0.29,0.88
	c0.02,0.12,0.03,0.24,0.04,0.36c0.02,0.3,0.02,0.6-0.01,0.89c0,0.03,0,0.06-0.01,0.08c-0.05,0.02-0.09,0.04-0.14,0.06
	c-1.53,1.45-4.15,3.81-6.6,3.7c-2.76,1.5-6.24,3.14-9.94,4.28c-4.92,1.51-6.3,2.42-5.97,4.63c0.24,1.57,2.67,3.58,7.03-1.16
	c6.21-6.74,9.52-7.4,11.34-7.54c1.41-0.11,2.65,0.2,3.98-0.25c0.48,0.87,1.65,1.06,2.19,0.32c0.35-0.48,0.53-1.07,0.45-1.64
	c0.47-0.16,0.99-0.29,1.59-0.42c0.2,0.48,0.36,0.96,0.46,1.42c0.09,0.41,0.13,0.79,0.11,1.13c-0.01,0.1-0.02,0.21-0.04,0.3
	c-0.11,0.55-0.22,1.48-0.31,2.6c-0.04,0.51-0.08,1.06-0.11,1.63c-0.16,2.81-0.2,6.16,0.09,7.98c0.49,3,1.93,9.16,1.13,12.24
	c-0.8,3.08,0.51,6.21,2.8,5.77c2.29-0.44,3.06-4.34,1.01-7.45c-1.63-2.47-2.75-4.91-3.58-11.54c-0.33-2.61-0.33-4.58-0.17-6.11
	c0.03-0.33,0.08-0.64,0.12-0.93c0.23-1.42,0.6-2.42,0.94-3.24c0.09-0.22,0.18-0.44,0.26-0.63c0.44-1.1,0.48-2.01,0.48-2.66
	c0-0.42-0.02-0.74,0.05-0.93c0.1-0.29,0.19-0.34,0.4-0.06c0.12,0.16,0.27,0.41,0.49,0.79c0.04,0.07,0.08,0.14,0.13,0.22
	c0.73,1.25-0.13,3.47,0.09,4.43c0.01,0.04,0.02,0.07,0.03,0.1c0.01,0.05,0.03,0.09,0.05,0.13c0.32,0.73,1.15,0.75,1.61,0.16
	c0.5-0.65-0.09-1.95-0.21-3.08c-0.12-1.13,0.13-1.94,1.07-1.62c0.94,0.31,0.55,7.29,0.43,8.64c-0.12,1.35,1.31,2.18,0.95,3.75
	c-0.36,1.57-1.2,3.56-0.87,5.87c0.33,2.32,4.88,2.26,4.64-0.96c-0.25-3.22-1.68-3.46-1.64-5.45c0.04-1.99-0.03-3.21-0.37-5.3
	c-0.07-0.44-0.15-0.94-0.24-1.46c-0.14-0.32-0.22-0.68-0.22-1.08c0-0.09,0-0.19,0-0.28c-0.16-1.05-0.31-2.09-0.38-2.84
	c-0.38-1.5-1.05-2.94-2.04-3.95c-1.7-1.71-5.98-2.97-6.32-5.6c-0.26-1.99,0.68-3.46,2.06-4.07c-0.34-0.04-0.68-0.03-1.02,0.02
	c-0.31,0.05-0.61,0.14-0.92,0.27c-0.3,0.13-0.56,0.23-0.78,0.31c-0.06-0.04-0.11-0.07-0.16-0.11c-1.74-1.18-3.98-1.63-5.59,0.08
	c-0.03,0.04-0.06,0.07-0.09,0.11C41.73,62.33,41.73,63.45,42.08,64.57z M31.17,78.47c0,0-4.7,5.28-6.23,5.29
	c-1.53,0-0.99-1.78-0.02-2.62C25.89,80.3,30.06,79.31,31.17,78.47z M46.61,69.93c-0.4,0.12-0.8,0.25-1.19,0.39
	c0-0.39,0.1-0.71,0.31-0.84c0,0,0.01,0,0.01,0c0.07-0.04,0.15-0.06,0.24-0.05C46.13,69.44,46.36,69.63,46.61,69.93z M44.61,67.92
	c-0.68-1.34-2.27-4.76-1.75-5.63c0.99-1.67,3.15-1.34,4.62-0.52c-0.26,0.27-0.39,0.71-0.53,1.66c-0.23,1.57,0.1,2.51,1.31,3.65
	c2.3,2.14,4.82,2.78,6.26,3.8c1.17,0.83,2.15,2.44,2.49,3.03c0.03,0.72,0.12,1.52,0.3,2.37c0.49,2.42,1,6.14,0.8,7.44
	c-0.2,1.3-0.1,2.66,0.48,3.59c0.58,0.93,1.35,2.68,0.73,3.74c-0.62,1.06-1.68,0.56-2.22,0.12s-0.96-1.62-0.64-2.74
	c0.32-1.11,1.11-2.84,0.86-3.75c-0.25-0.92-0.87-2.16-0.99-3.29c-0.12-1.13,0.13-5.95-0.12-7.63c-0.25-1.68-1.13-1.72-1.54-1.6
	c-0.41,0.12-0.83,1.41-0.92,1.94c-0.09,0.54,0.41,2.37,0.3,3.13c-0.11,0.76-1.09,0.31-0.93-0.54c0.16-0.85,0.44-3.41-0.4-4.49
	c-0.83-1.08-1.28-2.05-1.74-1.84c-0.46,0.21-0.31,1.47-0.08,2.44c0.23,0.96-0.26,2.92-0.64,3.76c-0.38,0.84-1.36,5.35-0.64,11.21
	c0.72,5.86,2.92,9.98,3.79,11.55c0.88,1.58,0.31,4.44-0.52,4.9c-0.84,0.46-2.25-0.96-1.81-2.48c0.45-1.51,0.1-3.61-0.14-4.93
	c-0.24-1.32-1.63-7.57-1.93-9.16c-0.3-1.6,0.34-10.32,0.59-11.71s-2.25-7.1-3.17-7.64c-0.92-0.54-0.93,0.05-1.11,0.54
	c-0.18,0.49-0.64,2.23,0.23,3.44c0.87,1.21,0.37,1.87-0.18,2.02c-0.54,0.16-1.14-0.55-1.1-1C44.31,72.82,45.28,69.26,44.61,67.92z"
	/>
<path fill="#209C00" d="M100,59.68c-0.1-2.13-2.42-1.97-3.43-2.09c-1.01-0.11-1.89-0.45-2.7-1.6c-0.81-1.15-2.16-1.06-2.67-0.43
	c-0.51,0.63-0.14,1.61,0.24,1.81c0.38,0.2,1.96,0.12,2.54,1.14c0.58,1.02,1.06,2.75,2.95,3.2C98.83,62.16,100.06,60.85,100,59.68z
	 M97.96,60.83c-0.75-0.06-2.12-0.33-2.68-1.65c-0.55-1.32-0.81-1.9-1.48-1.99c-0.67-0.09-1.77-0.19-1.9-0.59
	c-0.13-0.41,0.52-1.05,1.15-0.77c0.63,0.28,0.75,0.87,1.21,1.27c0.46,0.4,1.32,1.17,2.4,1.05c1.08-0.11,2.11,0.61,2.43,1.08
	C99.58,59.96,98.72,60.9,97.96,60.83z"/>
<path fill="#209C00" d="M92.24,76.01c-0.38-0.8-1.3-1.39-1.58-1.86c-0.52-0.87,0.35-2.14-0.26-3.28c-0.62-1.13-2.16-2.02-3.73-0.43
	c-1.57,1.6,0.13,3.62,0.79,3.64c0.67,0.03,1.63,0.34,1.79,0.97c0.45,1.75,1.25,2.83,1.94,2.76C91.89,77.74,92.62,76.81,92.24,76.01z
	 M91.37,76.95c-0.75-0.13-0.84-1.55-1-2.02c-0.16-0.46-0.56-1.26-1.52-1.57C87.89,73.05,86.91,72,87.52,71s1.86-0.6,2.38,0.29
	c0.35,0.6,0.11,1.83,0.35,2.65c0.25,0.82,1.2,1.47,1.47,1.85C91.99,76.19,92.12,77.08,91.37,76.95z"/>
<path fill="#209C00" d="M76.8,58.86c0.04,0.88,0.83,1.65,1.61,1.65c0.78,0,1.47-0.75,1.23-1.54C78.9,56.49,76.75,57.99,76.8,58.86z
	 M78.39,58.39c0.38-0.16,0.54,0.21,0.56,0.76c0.02,0.62-0.51,0.89-0.85,0.37C77.75,59.01,78.01,58.56,78.39,58.39z"/>
<path fill="#209C00" d="M82.8,63.73c-1.33,0.5-1.63,1.85-1.22,2.81c0.41,0.96,1.71,2.43,3.08,2.13c1.37-0.3,1.91-1.32,1.73-2.29
	C85.96,64.1,84.13,63.23,82.8,63.73z M85.84,67.1c-0.36,0.52-1.28,1.12-2,0.31c-0.72-0.82-1.27-1.75-0.81-2.54s2.03-0.74,2.64,0.32
	C86.07,65.89,86.2,66.57,85.84,67.1z"/>
<path fill="#209C00" d="M84.45,51.74c1.02-0.37,1.63-1.34,1.48-2.34c-0.11-0.76-0.57-1.3-1.42-1.58c-0.86-0.29-2.2,0.52-2.54,1.78
	C81.62,50.88,83.44,52.11,84.45,51.74z M84.94,51.01c-0.54,0.45-1.54,0.01-1.72-1.09c-0.18-1.1,1.65-2.63,2.33-0.57
	C85.69,49.81,85.48,50.56,84.94,51.01z"/>
<path fill="#209C00" d="M79.86,62.49c-0.22-0.34,0.17-0.96,0.72-1.05c0.82-0.14,1.16,0.97,0.53,1.39
	C80.48,63.25,80.09,62.83,79.86,62.49z"/>
<path fill="#209C00" d="M88.76,53.69c0.58-0.18,0.66-1.02,0.39-1.64c-0.08-0.19-0.2-0.28-0.83-0.15c-0.64,0.13-0.87,0.45-0.76,1.13
	C87.67,53.72,88.17,53.87,88.76,53.69z M88.62,53.38c-0.25,0.11-0.51,0-0.58-0.33c-0.07-0.34,0.13-0.72,0.38-0.83
	s0.48,0.08,0.55,0.42C89.05,53.04,88.87,53.27,88.62,53.38z"/>
<path fill="#209C00" d="M72.29,66.37c0.36,0.09,0.74,0.13,1.12,0.1c0.97-0.07,1.99-0.55,2.94-1.66c1.86-2.16-0.21-6.5-0.06-9.1
	c0.15-2.6,2.02-5.35,3.94-7.04c1.91-1.69,0.72-4.83-1.73-3.57c-2.44,1.26-1.92,2.57-2.9,4.45c-0.97,1.88-3.31,0.08-3.83-1.23
	c-0.15-0.39-0.03-0.87,0.27-1.42c0.98,0.72,2.17,0.41,2.8-0.32c0.69-0.79,1.46-2.59,0.6-3.69c-0.03-0.05-0.07-0.08-0.1-0.12
	c0.3-0.34,0.59-0.7,0.89-1.06c0.37-0.45,0.67-0.87,0.92-1.27c1.48-0.13,2.21-1.9,1.99-2.41c-0.26-0.61-0.39-1.62,0.1-2.03
	c1.38-1.16,2.02-2.34,1.66-2.93c-0.36-0.59-1.52-0.86-2.08-0.17c-0.57,0.69-0.69,1.77-1,2.22c-0.17,0.26-0.44,0.42-0.74,0.54
	c-0.02-0.03-0.04-0.05-0.06-0.08c-1.16-1.49-3.59-0.81-3.52,2.2c0.08,3.01-1.09,2.11-2.52,2.86c-1.43,0.75-1.58,2.76-1.24,4.42
	c0.33,1.66-0.35,3.84-1.36,4.06c-0.34,0.03-0.67-0.23-0.98-0.7c-0.76,0.35-2.77-0.51-1.33-2.31c0.08-0.1,0.18-0.18,0.28-0.25
	c-1.32-4.48-2.16-12.21-2.34-14.46c-0.25-3.25-0.2-7.09,0.8-10.74c0.99-3.65-1.33-6.64-3.43-4.3c-0.36,0.4-0.57,0.96-0.68,1.63
	c0.37,0.23,0.66,0.68,0.82,1.19c0.05-0.22,0.1-0.42,0.18-0.57c1.03-1.99,2.12,0.21,1.68,2.21c-0.2,0.91-0.47,4.37-0.31,5.79
	c0.16,1.42,0.26,2.37-0.26,1.65c0,0-1.23-4.4-1.38-7.4c-0.1,0.19-0.24,0.35-0.43,0.47c-0.07,0.05-0.15,0.09-0.22,0.13
	c0.32,2.32,1.03,4.94,1.57,7.02c0.32,0.48,0.6,1.09,0.8,1.85c0.79,2.92,0.04,5.6-0.18,7.96c0.22-0.7,0.37-1.04,0.42-0.81
	c0.17,0.83-0.08,10.52,2.61,12.21c2.7,1.69,2.75,1.87,3.66,0.4c0.91-1.46,0.9-5.48,0.86-6.84s1.02-1.4,2.09-1.74
	s2.28-2.39,2.12-3.81c-0.16-1.42,1.32-1.4,1.77,0.03c0.46,1.42-0.1,2.77-1.41,3.88c-1.31,1.1-4.02,4.32-4.34,6.38
	c-0.32,2.06,3.42,4.6,5.22,2.85c1.79-1.75,1.23-3.82,2.6-4.46s1.82,0.5,1.16,1.49c-0.66,0.99-3.12,3.44-3.69,6.27
	c-0.57,2.83-1.17,4.77-0.61,7.15c0.56,2.37,0.05,3.43-2.08,3.81c-2.13,0.38-2.23-1.15-1.79-2.86c0.44-1.71-1.93-5.76-5.99-7.41
	c-0.88-0.36-2.1-0.79-3.21-1.23c0.63,0.76,1.9,1.09,2.95,1.54c2.35,1.01,7.27,5.78,4.87,8.5c-0.08,0.86,0,1.64,0.62,2.08
	C71.28,66,71.77,66.24,72.29,66.37z M78.68,35.05c-0.35,0.34-0.9,1.04-0.77,2.04c0.01,0.09,0.02,0.18,0.02,0.28
	c-0.1-0.52-0.32-0.98-0.62-1.42c0.2-0.11,0.38-0.23,0.53-0.37c0.63-0.57,0.81-1.71,1.05-2.12c0.23-0.41,0.98-0.92,1.19-0.18
	C80.28,34.02,79.03,34.71,78.68,35.05z M72.66,45.99c0.55-0.75,1.3-1.6,2.11-2.52c0.05,0.21,0.04,0.44-0.08,0.71
	c-0.43,1-1.04,1.9-1.95,1.82C72.71,46,72.68,45.99,72.66,45.99z"/>
<path fill="#B1B100" d="M2.41,52.27c-1.66,0.77-1.79,2.45-1.08,3.27c1.31,1.51,2.93,0.05,3.73-0.45c0.81-0.51,1.65-0.77,2.92-0.39
	s2.21-0.47,2.22-1.23c0.01-0.77-0.83-1.27-1.23-1.19c-0.4,0.07-1.52,1.05-2.53,0.64C5.42,52.5,4.06,51.5,2.41,52.27z M2.16,53.51
	c0.6-0.39,1.76-0.99,2.93-0.34c1.17,0.65,1.7,0.93,2.24,0.61c0.55-0.32,1.41-0.89,1.75-0.66s0.23,1.08-0.41,1.23
	s-1.06-0.21-1.62-0.23c-0.57-0.03-1.65-0.09-2.38,0.61s-1.91,0.77-2.41,0.61C1.47,55.09,1.57,53.9,2.16,53.51z"/>
<path fill="#B1B100" d="M0.38,38.84c0.76,0.79,2.08,1.11,2.59,1.55c0.95,0.81,0.44,2.64,1.61,3.73c1.17,1.09,3.34,1.51,4.54-0.98
	c1.2-2.49-1.59-4.18-2.38-3.95c-0.79,0.24-2.04,0.25-2.48-0.42c-1.23-1.87-2.59-2.82-3.37-2.46C0.11,36.67-0.38,38.05,0.38,38.84z
	 M1.03,37.39c0.93-0.14,1.6,1.48,1.97,1.96c0.37,0.48,1.15,1.25,2.4,1.24c1.25-0.02,2.81,0.82,2.49,2.24
	c-0.32,1.42-1.94,1.44-2.9,0.6c-0.65-0.57-0.86-2.1-1.47-2.97c-0.61-0.86-1.98-1.24-2.46-1.59C0.61,38.53,0.1,37.54,1.03,37.39z"/>
<path fill="#B1B100" d="M10.92,44.21c-0.55,0.32-0.72,1.13-0.23,1.59c1.54,1.43,2.43-0.5,2.04-1.09
	C12.33,44.11,11.46,43.89,10.92,44.21z M11.54,44.77C12,45,12,45.41,11.8,45.69c-0.2,0.27-0.47,0.07-0.7-0.31
	C10.83,44.95,11.09,44.54,11.54,44.77z"/>
<path fill="#B1B100" d="M50,79.9c1.51,0.9,2.29-0.59,1.25-1.57c-0.38-0.35-0.55-1-0.53-1.82c0.09-0.22,0.18-0.44,0.26-0.63
	c0.45-1.1,0.48-2.01,0.48-2.66c0.13-0.33,0.28-0.67,0.45-0.99c0.12,0.16,0.27,0.41,0.49,0.79c-0.54,1.41-0.74,3-0.1,4.01
	c0.15,0.24,0.27,0.49,0.36,0.74c0.01,0.05,0.03,0.09,0.05,0.13c0.44,1.33,0.16,2.72-0.67,3.1c-0.45,0.21-1.44,0.1-2.38-0.32
	c0.03-0.33,0.08-0.64,0.12-0.93C49.85,79.81,49.92,79.86,50,79.9z"/>
<path fill="#B1B100" d="M43.94,68.56c-1.52,0.95-5.16,1.7-6.21,2.28c-1.04,0.58-2.53,1.76-0.63,2.84c1.9,1.08,5.04-2.1,6.89-3.63
	c0.12-0.1,0.24-0.19,0.35-0.28c0.02,0.3,0.02,0.6-0.01,0.89c-0.05,0.04-0.1,0.09-0.15,0.14c-1.53,1.45-4.15,3.81-6.6,3.7
	c-0.76-0.03-1.49-0.3-2.18-0.91c-0.71-0.63-1.4-2.47,1.02-3.8c2.42-1.33,5.77-1.67,6.62-2.7c0.04-0.05,0.08-0.1,0.11-0.16
	c0.31,0.57,0.62,1.1,0.84,1.58C43.98,68.53,43.96,68.54,43.94,68.56z"/>
<path fill="#B1B100" d="M45.74,69.47c0,0-0.01,0-0.01,0C45.73,69.48,45.74,69.48,45.74,69.47z"/>
<path fill="#B1B100" d="M48.61,75.59c-0.5,0.77-0.49,1.72-0.13,2.58c-0.04,0.51-0.08,1.06-0.11,1.63c-0.54-0.57-0.88-1.32-0.77-2.27
	c0.19-1.58,0.62-2.6,1.11-3.41c0.09,0.41,0.13,0.79,0.11,1.13C48.75,75.37,48.68,75.48,48.61,75.59z"/>
<path fill="#B1B100" d="M30.29,54.54c-0.09,0.25-0.14,0.51-0.14,0.77c0,0.06,0,0.11,0,0.17c-1.56,0.72-1.49,4.27-1.49,4.27
	s-2.36,0.86-2.29,2.88c0.08,2.02,2.83,2.48,4.37,1.1c1.53-1.38,2.74-2.21,4.55-2.84c1.74-0.61,4.07-0.22,5.95,1.15
	c-0.07,0.06-0.13,0.12-0.19,0.18c-0.48,0.54-0.14,2.2,1.03,2.36c-0.35-1.12-0.34-2.24,0.51-3.23c-1.54-1.21-3.65-2.09-6.21-1.52
	c-5.42,1.2-4.93,3.21-5.99,3.68c-1.06,0.46-2.33,0.36-2.58-0.85c-0.25-1.21,0.92-2.11,2.32-2.33c1.4-0.22,5.06-0.85,6.28-2.23
	c1.22-1.38,1.2-2.63,0.57-2.89c-0.64-0.26-2.18,0.58-3.11,0.72c-0.93,0.14-2.14-0.32-2-1.36s1.41-1.65,2.57-1.53
	c1.15,0.12,2.49-0.87,2.51-1.88c0.02-1.02-1.44-1.98-2.25-2.16c-0.8-0.17-2.06-0.53-3.38-0.02c-1.32,0.51-1.94,0.94-3,1.12
	c-1.15,0.19-1.59-0.93-1.43-1.44s0.36-0.92,1.28-0.69s2.86,0.41,3.74,0.33c0.88-0.08,2.64-1.07,3.99-0.8
	c1.36,0.27,4.63,2.14,6.52,2.39c1.62,0.21,5-0.42,7.31,0.27c-0.12,0.97-0.5,1.97-0.67,2.9c-0.36,1.96,2.62,5.5,3.43,6.67
	c0.15,0.22,0.32,0.43,0.51,0.63c-0.64-0.05-1.27,0.06-1.82,0.3c-1.38,0.62-2.31,2.08-2.06,4.07c0.34,2.62,4.62,3.88,6.32,5.6
	c1,1,1.66,2.45,2.04,3.95c0.24,0.96,0.37,1.94,0.38,2.84c0,0.09,0,0.19,0,0.28c0,0.4,0.08,0.76,0.22,1.08
	c0.5,1.14,1.74,1.67,2.59,1.1c0.18-0.12,0.34-0.29,0.47-0.52c0.1-0.18,0.19-0.39,0.26-0.64c0.55-2.12-0.28-2.76-0.96-4.06
	c-0.11-0.21-0.22-0.44-0.32-0.7c-0.7-1.83,2-2.33,3.22-1.88c1.17,0.43,1.27,3.42,1.74,6.71c0.01,0.09,0.03,0.18,0.04,0.28
	c0.01,0.06,0.02,0.12,0.03,0.19c0.14,0.93,0.35,1.67,0.62,2.25c0.72,1.58,1.85,2.01,3.13,2.1c1.19,0.08,2.05-0.86,1.81-2.04
	c-0.05-0.24-0.14-0.49-0.29-0.75c-0.19-0.33-0.47-0.67-0.86-1c-1.49-1.27-1.28-1.77-0.89-2.46c0.17-0.29,0.37-0.62,0.47-1.06
	c0.08-0.31,0.08-0.61,0.02-0.9c-0.12-0.63-0.51-1.21-1.02-1.72c-0.38-0.37-0.83-0.7-1.28-0.97c-1.35-0.8-2.44-2.62-1.96-3.45
	c0.75-0.99,4.35,0.87,7.88,3.08c3.01,1.89,5.96,4.03,7.07,4.87c2.4,1.84,5.02,4.25,6.93,7.2c1.91,2.95,5.41,3.19,5.09,0.29
	c-0.31-2.9-7.66-6-10.67-7.74c-2.64-1.52-6.11-7.26-7.75-10.19c-0.38,0.03-0.76-0.01-1.12-0.1c1.83,3.22,4.27,6.69,3.71,6.36
	c-0.68-0.4-7.21-6.57-10.05-5.75c-2.83,0.82-2.99,0.75-2.54,2.28s3.23,4.02,4.19,4.83c0.96,0.81,0.34,1.58-0.09,2.52
	c-0.42,0.95,0.24,3.05,1.32,3.82c1.08,0.77,0.15,1.78-1.11,1.21c-1.26-0.57-1.86-1.78-1.81-3.38s-0.5-5.45-1.72-6.95
	c-1.23-1.5-5.29-0.48-5.2,1.84c0.09,2.32,1.88,3.22,1.47,4.56c-0.41,1.33-1.47,0.95-1.75-0.12c-0.28-1.08-0.45-4.29-2.05-6.43
	s-2.77-3.14-4.75-4.23c-1.98-1.08-2.21-2.7-1.15-4.41c1.05-1.71,2.18-0.83,3.09,0.53c0.42,0.62,1.55,1.15,3,1.35
	c-1.1-1.02-1.95-2.32-2.73-3.67c-0.84-1.45-1.61-2.96-2.57-4.24c-1.12-1.49-0.95-3.92-0.07-5.9c0.89-1.99,2.48-4.54,2.62-5.82
	c0.14-1.27-1.1-6.59-0.55-8.21c0.55-1.62,1.66-1.45,2.02-0.81c0.35,0.64-0.23,2.64-0.98,4.98c-0.76,2.34,0.98,5.16,2.19,6.06
	c1.21,0.9,3.22,1.55,4.06,0.95c1.08-0.77,1.52-2.58,1.7-3.99c0.03-0.22,0.41,3.37-0.28,5.49c-0.42,1.28-2.02,3.57-1.87,4.85
	c0.49,4.21,8.91,2.68,9.22,7.99c0.06,0.98-0.32,1.84-0.94,2.57c0.15-0.07,0.3-0.13,0.44-0.2c0.48-0.25,0.85-0.53,1.12-0.84
	c2.4-2.72-2.52-7.49-4.87-8.5c-1.05-0.45-2.32-0.78-2.95-1.54c-0.37-0.44-0.51-1.02-0.27-1.86c1.07-3.73,1.97-6.92,1-10.89
	c-0.2-0.8-0.2-1.65-0.11-2.55c0.21-2.35,0.97-5.04,0.18-7.96c-0.21-0.76-0.48-1.37-0.8-1.85c-1.39-2.09-3.57-1.77-4.18-0.53
	c-0.75,1.54-0.52,2.84,1.56,5.31c0.08,0.1,0.17,0.21,0.25,0.31c0.2,0.27,0.39,0.57,0.56,0.88c0.57,1.05,0.95,2.3,1.18,3.62
	c0.22,1.26,0.28,2.58,0.22,3.84c-0.04,0.67-0.11,1.32-0.22,1.94c-0.08,0.45-0.39,1-0.84,1.46c-0.37,0.37-0.84,0.68-1.37,0.84
	c-0.2,0.06-0.41,0.1-0.62,0.1c-0.15,0.01-0.3,0-0.45-0.02c-0.67-0.09-1.39-0.47-2.11-1.25c-0.12-0.13-0.25-0.27-0.37-0.43
	c-0.03-0.04-0.06-0.08-0.08-0.11c-0.55-0.73-0.83-1.4-0.92-2.01c-0.03-0.21-0.04-0.41-0.03-0.6c0.08-1.93,1.97-3.32,2.85-4.6
	c1.25-1.8,0.25-4.06-1.92-4.07c-2.16-0.01-3.12,2.19-3.16,4.14c-0.03,0.97,0.18,2.31,0.39,3.56c0.06,0.33,0.11,0.65,0.17,0.96
	c0.16,0.87,0.29,1.61,0.32,2.04c0.06,0.94-1.07,3.17-2.74,3.11c-0.39-0.01-0.8-0.15-1.23-0.45c-2.32-1.6-2.47-5.36-2.47-7.12
	c0-1.75,2.36-3.9,1.1-5.56c-1.45-1.92-4.16-2.55-5.08-4.37c-0.92-1.81,1.37-6.57-1.07-7.85c-3.93-2.06-3.07,3.44-1.16,6.48
	c1.91,3.03,3.38,4.7,3.2,9.6c-0.19,4.9,2.18,7.76,4.38,9.43c0.61,0.46,0.95,0.98,1.12,1.52c-0.77-0.2-1.47-0.28-1.96-0.27
	c-1.97,0.01-5.47,0.13-6.93-0.42c-1.46-0.55-4.53-2.28-5.71-1.8c-1.18,0.48-2.3,1.31-3.79,1.36c-1.48,0.05-2.63-1.2-3.78-0.9
	c-1.15,0.3-2.19,2.43-0.84,3.41c1.35,0.98,2.41,0.52,4.13-0.28c1.73-0.8,2.98-0.4,4.39,0.21c0.87,0.38,1.16,0.89,1.11,1.38
	c-0.03,0.3-0.21,0.6-0.46,0.85c-0.68,0.64-2.04-0.04-3.45,0.47c-0.53,0.2-0.98,0.48-1.33,0.82C30.68,53.77,30.43,54.14,30.29,54.54z
	 M48.03,45.96c-0.13,0.19-1.28-0.92-1.84-1.93c-0.56-1.01-1.99-3.29-1.57-7.12c0.42-3.83-1.15-5.37-1.52-5.94
	c-0.46-0.71-2.84-4.62-2.97-6.29s0.42-1.97,1.27-1.72c0.86,0.25,0.99,3.77,0.95,5s0.65,2.82,1.6,3.56c0.94,0.74,3.73,2.09,3.73,3.41
	c0,1.32-2.08,3.42-1.47,6.39C46.82,44.29,47.33,44.91,48.03,45.96z M62.37,37.66c0,0-0.91-3.28-2.14-4.88
	c-1.22-1.58-1.92-2.73-1.62-4.03c0.2-0.87,1.62-1.14,2.5,0.18C61.81,29.99,62.39,30.94,62.37,37.66z M82.73,78.04
	c0,0,6.61,3.26,7.35,5.2c0.74,1.95-1.46,1.34-2.57-0.21c-0.51-0.7-2.72-3.03-3.8-3.8C82.63,78.47,81.91,77.96,82.73,78.04z
	 M30.77,56.76c0.82-0.13,2.5,0.63,4.39,0.76c0.85,0.05-4.69,1.92-5.33,1.66C29.43,58.16,29.95,56.89,30.77,56.76z"/>
<path fill="#B1B100" d="M17.78,41.86c1.11-1.36,0.59-3-0.45-3.76s-3.34-1.53-4.62-0.35s-1.21,2.6-0.42,3.52
	C14.17,43.43,16.67,43.22,17.78,41.86z M13.81,42.09c-0.87-0.5-1.43-1.15-1.38-1.93c0.06-0.78,0.66-2,1.94-1.58
	c1.28,0.42,2.46,1.07,2.45,2.21C16.83,41.92,15.12,42.84,13.81,42.09z"/>
<path fill="#B1B100" d="M23.5,55.68c-0.86,1.03-0.9,2.45-0.12,3.42c0.59,0.74,1.42,1.03,2.51,0.8c1.1-0.23,2.03-1.93,1.6-3.49
	S24.35,54.65,23.5,55.68z M25.95,56.85c0.88,1.06-0.12,3.84-2.12,2.06c-0.44-0.39-0.68-1.33-0.39-2.15
	C23.72,55.95,25.07,55.79,25.95,56.85z"/>
<path fill="#B1B100" d="M21.58,42.91c-0.79,0.66-1.84-0.31-1.43-1.15c0.41-0.84,1.09-0.65,1.55-0.42
	C22.15,41.57,22.11,42.47,21.58,42.91z"/>
<path fill="#B1B100" d="M17.69,56.29c-0.03,0.03-0.05,0.06-0.08,0.09c-0.39,0.57,0.04,1.43,0.68,1.9c0.2,0.15,0.39,0.18,0.98-0.36
	c0.6-0.54,0.65-1.03,0.1-1.68c-0.16-0.2-0.34-0.32-0.51-0.38C18.46,55.7,18.05,55.89,17.69,56.29z M18.02,56.53
	c0.2-0.27,0.55-0.32,0.83-0.01c0.29,0.31,0.31,0.85,0.11,1.11c-0.2,0.27-0.57,0.21-0.85-0.1C17.78,57.16,17.83,56.8,18.02,56.53z"/>
<path fill="#B1B100" d="M82.99,19.89c1.58-0.61,2.5-1.47,2.36-2.11c-0.14-0.64-1.09-1.22-1.8-0.78c-0.71,0.44-1.15,1.37-1.56,1.68
	c-0.76,0.58-2.03-0.09-3.03,0.6c-0.99,0.69-1.65,2.24,0.01,3.52c1.66,1.29,3.36-0.52,3.31-1.14C82.23,21.04,82.42,20.11,82.99,19.89
	z M82.75,18.87c-0.42,0.2-1.11,0.65-1.3,1.59c-0.19,0.93-1.05,1.96-2.06,1.5c-1.01-0.46-0.76-1.67,0.01-2.25
	c0.52-0.39,1.7-0.3,2.44-0.62c0.74-0.32,1.24-1.27,1.57-1.57c0.33-0.29,1.15-0.52,1.11,0.2C84.48,18.43,83.17,18.67,82.75,18.87z"/>
<path fill="#B1B100" d="M75.21,23.51c-1.88,0.58-2.56,2.12-2.22,3.28c-0.21,0.08-0.4,0.23-0.53,0.45c-0.23,0.41-0.32,0.91-0.39,1.35
	c-0.47-0.08-1,0.3-0.83,0.87c0.05,0.17,0.16,0.32,0.29,0.43c-0.39,0.31-0.96,0.5-1.43,0.84c-0.3-0.21-0.69-0.29-1.06-0.13
	c-2.23,0.96-0.6,2.8,0.21,2.66c0.04-0.01,0.07-0.02,0.1-0.03c0.23,0.59,0.78,1.09,1.81,1.27c2.07,0.35,2.72-2.04,2.38-2.57
	c-0.34-0.53-0.61-1.44-0.22-1.9c0.58-0.67,0.96-1.32,1.14-1.85c0.49,0.1,1,0.01,1.41-0.23c0.85-0.49,2.08-1.86,1.65-3.1
	C77.1,23.63,76.09,23.24,75.21,23.51z M69.59,31.25c-0.04,0.05-0.07,0.11-0.1,0.17c-0.12,0.24-0.21,0.51-0.25,0.78
	c-0.26,0.01-0.49-0.14-0.61-0.35c-0.19-0.33,0.14-0.53,0.65-0.6C69.4,31.23,69.5,31.23,69.59,31.25z M71.94,29.89
	c0.5-0.63,0.49-1.71,0.64-2.12c0.15-0.42,0.77-1,1.07-0.35c0.3,0.65-0.74,1.48-1.01,1.85c-0.27,0.37-0.67,1.1-0.4,2.01
	s0,2.22-1.11,2.29c-1.1,0.07-1.46-1.11-1.05-1.99C70.36,30.99,71.44,30.52,71.94,29.89z M75.94,23.95c0.53,0.28,1.19,1.07,0.5,1.83
	c-0.68,0.76-1.49,1.38-2.28,1.03c-0.79-0.35-0.91-1.81,0.01-2.5C74.79,23.86,75.41,23.67,75.94,23.95z"/>
<path fill="#B1B100" d="M87.82,101.04c1.82,0.97,3.43-0.05,3.68-1.26c0.46-2.21-1.94-2.67-2.95-3.05c-1.01-0.38-1.82-0.97-2.34-2.36
	c-0.52-1.39-1.93-1.67-2.62-1.16c-0.69,0.51-0.58,1.61-0.24,1.92c0.34,0.31,1.98,0.65,2.3,1.84C85.98,98.17,86,100.07,87.82,101.04z
	 M86.8,98.01c-0.21-1.5-0.32-2.16-0.98-2.43c-0.66-0.27-1.76-0.67-1.79-1.12s0.81-0.93,1.39-0.47s0.54,1.09,0.9,1.62
	c0.36,0.53,1.04,1.55,2.17,1.72c1.13,0.17,2,1.19,2.19,1.75c0.31,0.89-0.82,1.62-1.58,1.35C88.35,100.14,87.02,99.51,86.8,98.01z"/>
<path fill="#B1B100" d="M74.97,107.24c-2.03,1.21-0.83,3.74-0.16,3.94c0.68,0.21,1.58,0.79,1.58,1.47c0,1.91,0.52,3.23,1.25,3.34
	c0.73,0.11,1.73-0.64,1.56-1.57c-0.17-0.92-0.96-1.77-1.12-2.32c-0.3-1.03,0.93-2.1,0.61-3.42C78.35,107.35,77,106.02,74.97,107.24z
	 M75.7,108.03c0.9-0.87,2.06-0.11,2.35,0.94c0.2,0.71-0.38,1.91-0.35,2.81c0.03,0.9,0.83,1.82,1.01,2.29
	c0.17,0.47,0.07,1.42-0.66,1.09c-0.74-0.34-0.45-1.81-0.49-2.33c-0.04-0.52-0.23-1.44-1.13-2.01
	C75.53,110.23,74.8,108.9,75.7,108.03z"/>
<path fill="#B1B100" d="M69.17,94.85c0.8,0.2,1.7-0.38,1.67-1.25c-0.1-2.73-2.7-1.78-2.89-0.87C67.77,93.65,68.37,94.65,69.17,94.85
	z M69.11,93.77c-0.21-0.63,0.17-1.02,0.6-1.08c0.43-0.07,0.5,0.36,0.37,0.93C69.93,94.26,69.32,94.39,69.11,93.77z"/>
<path fill="#B1B100" d="M75.77,102.99c0.17-2.45-1.47-3.82-2.96-3.67c-1.49,0.15-2.17,1.46-2,2.55c0.17,1.09,1.1,2.95,2.58,3
	S75.7,104.03,75.77,102.99z M75.02,103.59c-0.51,0.44-1.61,0.81-2.13-0.22s-0.84-2.13-0.15-2.82c0.69-0.69,2.28-0.21,2.62,1.04
	C75.58,102.41,75.53,103.15,75.02,103.59z"/>
<path fill="#B1B100" d="M76.14,84.1c-0.15,0.15-0.29,0.32-0.4,0.52c0,0.01-0.01,0.02-0.01,0.02c-0.42,0.73-0.03,1.65,0.6,2.25
	c0.32,0.31,0.7,0.53,1.07,0.59c0.1,0.02,0.21,0.02,0.3,0.01c0.03,0,0.06-0.01,0.09-0.01c0.09-0.01,0.19-0.03,0.28-0.05
	c0.96-0.23,1.67-0.99,1.77-1.93c0.09-0.81-0.23-1.48-1.04-2c-0.55-0.36-1.46-0.25-2.21,0.23c-0.08,0.06-0.17,0.12-0.25,0.19
	C76.28,83.97,76.21,84.03,76.14,84.1z M76.93,85.3c0.1-1.17,2.39-2.25,2.53,0.04c0.03,0.5-0.39,1.22-1.06,1.54
	C77.73,87.2,76.82,86.48,76.93,85.3z"/>
<path fill="#B1B100" d="M70.13,97.27c-0.14-0.41,0.43-0.93,1.02-0.88c0.88,0.08,0.93,1.3,0.17,1.56
	C70.57,98.21,70.27,97.68,70.13,97.27z"/>
<path fill="#B1B100" d="M81.59,90.64c0.65-0.03,0.95-0.87,0.84-1.58c-0.03-0.21-0.13-0.34-0.81-0.38c-0.69-0.03-1.01,0.23-1.08,0.96
	C80.47,90.38,80.95,90.67,81.59,90.64z M81.54,90.29c-0.28,0.04-0.53-0.13-0.51-0.5c0.01-0.36,0.32-0.7,0.6-0.75
	c0.28-0.04,0.47,0.22,0.45,0.58C82.06,90.05,81.82,90.25,81.54,90.29z"/>
<path fill="#B1B100" d="M79.26,67.12c-0.67-1.33-2.1-1.45-2.73-0.87c-0.63,0.58-0.4,1.66-0.03,1.93c0.37,0.27,2.03,0.44,2.48,1.59
	c0.45,1.15,0.68,3.04,2.59,3.81s3.4-0.41,3.53-1.64c0.23-2.25-2.22-2.45-3.26-2.72C80.79,68.94,79.92,68.45,79.26,67.12z
	 M79.49,68.34c0.42,0.48,1.2,1.43,2.34,1.48c1.14,0.05,2.11,0.97,2.37,1.51c0.41,0.85-0.64,1.69-1.43,1.5
	c-0.78-0.19-2.17-0.68-2.54-2.15c-0.37-1.47-0.55-2.12-1.24-2.31s-1.82-0.48-1.9-0.92c-0.08-0.45,0.71-1.02,1.33-0.62
	C79.05,67.22,79.08,67.85,79.49,68.34z"/>
<path fill="#B1B100" d="M45.92,9.34c0.13-2.05-3.22-6.51-4.61-4.13c-2.05,3.52,2.55,5.62,2.55,5.62
	C44.78,10.86,45.79,11.39,45.92,9.34z M41.88,8.59c-0.6-0.83-0.73-2.63,0.03-2.97C42.66,5.27,44.21,6,43.59,8.8
	C43.47,9.31,42.48,9.41,41.88,8.59z"/>
<path fill="#B1B100" d="M37.17,40.3c-0.28,0.95,0.61,2.41,1.85,2.5c1.92,0.14,1.99-2.93,0.79-3.79
	C38.62,38.14,37.44,39.35,37.17,40.3z M39.22,39.97c0.61,0.39,1,2.25-0.7,2.07c-0.54-0.06-0.95-1-0.78-1.57
	C37.9,39.89,38.61,39.59,39.22,39.97z"/>
<path fill="#B1B100" d="M67.43,48.41c0.04-0.02,0.08-0.04,0.11-0.06c0.65-0.5,0.83-1.53,0.41-2.13c-0.35-0.5-1.06-0.67-1.57-0.37
	c-0.1,0.06-0.2,0.14-0.28,0.25C64.66,47.9,66.67,48.76,67.43,48.41z M66.33,47.37c-0.33-0.2-0.12-0.53,0.29-0.84
	c0.47-0.35,0.96-0.09,0.74,0.45C67.14,47.53,66.66,47.57,66.33,47.37z"/>
<path fill="#B1B100" d="M70.88,40.54c0.51-0.83,0.95-2.62-0.01-3.51c-0.97-0.9-2.04-0.76-2.69-0.1c-1.52,1.55-1.21,3.43-0.11,4.18
	C69.16,41.87,70.37,41.38,70.88,40.54z M68.82,40.32c-0.86,0.07-1.66-1.17-1.17-2.21c0.33-0.69,0.78-1.15,1.38-1.16
	c0.6,0,1.55,0.38,1.31,1.38C70.1,39.33,69.68,40.26,68.82,40.32z"/>
<path fill="#B1B100" d="M68.69,44.04c-0.14,0.36-0.83,0.38-1.19,0.01c-0.55-0.56,0.12-1.41,0.78-1.15
	C68.94,43.15,68.83,43.68,68.69,44.04z"/>
<path fill="#B1B100" d="M58.86,8.53c-0.16-0.43-1.48-1.46-1.24-2.67c0.24-1.21,1.06-2.93-0.14-4.61c-1.2-1.68-3.09-1.47-3.86-0.5
	c-1.4,1.77,0.56,3.26,1.29,4.05c0.73,0.79,1.2,1.67,1.05,3.15c-0.15,1.48,0.99,2.35,1.84,2.2C58.64,9.99,59.03,8.96,58.86,8.53z
	 M57.95,8.83c-0.18,0.42-1.14,0.48-1.45-0.19c-0.31-0.67,0-1.22-0.08-1.85c-0.09-0.63-0.25-1.85-1.18-2.5
	c-0.94-0.65-1.26-1.95-1.19-2.55c0.11-0.93,1.45-1.08,2.01-0.5c0.56,0.58,1.47,1.74,0.99,3.18c-0.48,1.44-0.67,2.08-0.2,2.61
	C57.32,7.57,58.13,8.41,57.95,8.83z"/>
<path fill="#B1B100" d="M61.55,19.16c-0.16-0.51-0.45-0.96-0.82-1.19c-0.06-0.04-0.12-0.07-0.19-0.09c-1.07-0.41-2.23-0.06-2.8,0.84
	c-0.44,0.68-0.45,1.43,0.04,2.26c0.46,0.77,1.92,1.08,3.05,0.47c0.08-0.04,0.15-0.08,0.22-0.13c0.18-0.12,0.32-0.28,0.43-0.47
	C61.73,20.36,61.73,19.73,61.55,19.16z M60.26,20.19c-0.61,1-3.14,0.95-2.26-1.16c0.2-0.46,0.89-0.92,1.63-0.91
	C60.39,18.13,60.88,19.18,60.26,20.19z"/>
<path fill="#B1B100" d="M58.96,14.69c0.38-0.63,0.08-1.1-0.51-1.36c-0.59-0.26-1.24,0.36-1.45,1.04c-0.07,0.2-0.04,0.36,0.56,0.7
	C58.17,15.41,58.58,15.32,58.96,14.69z M58.58,14.35c-0.18,0.32-0.6,0.48-0.87,0.4s-0.32-0.4-0.15-0.72
	c0.21-0.38,0.51-0.44,0.78-0.35C58.62,13.76,58.76,14.02,58.58,14.35z"/>
</svg>
