<?xml version="1.0" encoding="utf-8"?>
<!-- Generator: Adobe Illustrator 13.0.2, SVG Export Plug-In  -->
<!DOCTYPE svg PUBLIC "-//W3C//DTD SVG 1.1 Tiny//EN" "http://www.w3.org/Graphics/SVG/1.1/DTD/svg11-tiny.dtd" [
	<!ENTITY ns_flows "http://ns.adobe.com/Flows/1.0/">
]>
<svg version="1.1" baseProfile="tiny"
	 xmlns="http://www.w3.org/2000/svg" xmlns:xlink="http://www.w3.org/1999/xlink" xmlns:a="http://ns.adobe.com/AdobeSVGViewerExtensions/3.0/"
	 x="0px" y="0px" width="288px" height="435px" viewBox="-0.305 -0.451 288 435" xml:space="preserve">
<defs>
</defs>
<path stroke="#000000" stroke-width="0.2" d="M39.322,70.311c0,0,27.908,6.255,41.983,1.805
	c14.075-4.451,39.698-34.887,51.126-30.797v-1.924c-6.447-0.48-7.034-1.8-13.191-1.8c-17.813,0-22.537,12.146-32.4,11.183
	c-6.978-0.963-9.264-2.646-9.264-2.646s8.061,5.293,14.436,8.661C82.148,70.19,39.322,70.311,39.322,70.311z"/>
<path stroke="#000000" stroke-width="0.2" d="M158.762,45.267c0,0-18.208-1.559-25.5-12.942c0,0-5.065-4.635-7.413-14.851
	c0.604-3.823-1.186-9.307-1.186-9.307c3.389,0,3.656,10.161,12.108,14.625c13.375,6.479,20.99,5.032,20.99,5.032
	s1.903-3.414,0.762-16c0-6.203,6.238-11.75,6.238-11.75s-4,8-2,13.5c1.195,6.305,8.923,14.107,8.923,14.107
	s31.394,8.959,32.86,10.426c0.362-8.621,1.296-14.533,1.296-14.533s2.882,13.211,7.882,18.211c6.19,8.186,16.993,11.89,22.47,19.977
	c6.011,8.064,9.846,16.835,10.069,17.812c5.754,21.365,3.25,25.25,3.25,25.25c-2.973-17.273-6.25-22.75-6.25-22.75
	s-0.726,8.049,0.995,21.908l-6.245,2.842c-18.896-27.527-19.75-32.25-19.75-32.25l22,25.25c0,0,1.6-7.746-0.34-22.66
	c-2.466-8.75-6.66-15.148-14.91-20.84c-7.037-5.463-26.75-15.802-39.75-19.5c-6.735-1.324-13.061-4.24-36.333-1.334
	C147.72,42.408,158.762,45.267,158.762,45.267z"/>
<path stroke="#000000" stroke-width="0.2" d="M230.97,102.869c0,0-2.646,1.256-6.241,0c-5.2-2.86-14.041-31.724-14.041-31.724
	L230.97,102.869z"/>
<path stroke="#000000" stroke-width="0.2" d="M219.139,100.138c-7.144-2.022-10.271-5.851-10.271-5.851
	c1.122-4.702-15.082-30.943-15.082-30.943S216.856,92.168,219.139,100.138z"/>
<path stroke="#000000" stroke-width="0.2" d="M158.012,81.575c0,0,10.651-6.469,19.451-4.519c4.189,0,21.48,12.97,26.764,11.983
	c-10.282-6.436-20.034-18.662-28.639-18.662C165.344,71.13,158.012,81.575,158.012,81.575z"/>
<path stroke="#000000" stroke-width="0.2" d="M125.776,75.338c0,0,8.841,16.974,21.148,16.974c11.095,0,16.295-7.786,16.295-7.786
	s-8.581,3.9-16.729,3.9C136.635,88.426,125.776,75.338,125.776,75.338z"/>
<path stroke="#000000" stroke-width="0.2" d="M247.249,107.227l-1.145,2.608l6.935,4.708l0.509-1.082
	C253.965,111.262,247.249,107.227,247.249,107.227z"/>
<path stroke="#000000" stroke-width="0.2" d="M234.364,149.536c-7.191,6.557-12.397,8.232-12.397,8.232s6.229-1.371,13.113-5.18
	c9.067-7.305,20.685-18.852,24.682-18.852c2.486-0.314,5.18,0.891,5.18,0.891s-2.469-4.738-7.317-3.856
	C251.217,131.834,242.426,141.473,234.364,149.536z"/>
<path stroke="#000000" stroke-width="0.2" d="M9.345,163.075c0,0,27.293-49.625,57.459-57.458
	c4.304-1.378,21.458-2.042,43.583-1.042c25-0.625,31.188-5.938,31.188-5.938s-29.083,7.291-52.938,0.812
	C65.97,91.784,53.012,84.075,43.012,84.075c-12,0-15.958,4.291-15.958,4.291s21.188-5.188,27.291,9.375
	C29.304,116.116,9.345,163.075,9.345,163.075z"/>
<path stroke="#000000" stroke-width="0.2" d="M218.337,143.366c-23.05,25.428-38.829,17.682-38.829,17.682
	s21.175,2.937,37.422-22.896c-23.14,2.844-20.183-2.031-28.793-1.715c0,0,4.28-1.692,10.234,0.529
	c2.045,0.979,6.221,0.062,8.957,0.178c5.746-0.229,12.996-4.888,20.932-12.822c6.777-5.93,13.043-9.559,13.043-9.559
	c-2.227-0.992-1.23-5.17-1.23-5.17s1.67,4.178,5.416,3.732c0,0,1.408,2.488-2.771,2.848c-3.718,2.686-10.055,6.492-12.246,8.684
	C226.725,129.366,222.036,136.829,218.337,143.366z"/>
<path stroke="#000000" stroke-width="0.2" d="M215.369,153.245c0,0,7.269-6.597,16.447-20.15c5.054-6.564,8.997-5.875,8.997-5.875
	s2.556,1.392-1.627,9.757c-1.801,1.8-5.692,6.625-5.692,6.625l-1.278-0.697c0,0,0.565-4.066-0.248-4.066
	c-3.078,2.729-15.437,15.685-15.437,15.685L215.369,153.245z"/>
<path stroke="#000000" stroke-width="0.2" d="M238.017,131.571c-0.497,0.24-0.942,0.89-1.319,1.254
	c-0.21,0.203-0.53,0.363-0.706,0.578c-0.222,0.272-0.026,0.705-0.248,0.924c-0.2,0.197-0.669,0.105-0.934,0.289
	c-0.253,0.175-0.472,0.49-0.654,0.73c-0.396,0.521-0.925,0.96-1.319,1.423c-0.603,0.708-0.051,1.235,0.582,1.544
	c-0.014,0.277-0.004,0.768,0.094,1.023c0.161,0.424,0.333,0.187,0.634-0.096c0.461-0.432,0.804-1.002,1.286-1.461
	c0.878-0.834,1.825-2.115,1.941-3.337c0.058-0.608,0.291-0.986,0.558-1.548c0.108-0.229,0.877-1.422,0.137-1.404L238.017,131.571z"
	/>
<path stroke="#000000" stroke-width="0.2" d="M205.476,221.375c1.839-3.831,6.064-7.31,9.003-10.248c0,0-16.68-13.443-17.427-14.189
	c-14.44,68.215,21.659,80.414,21.659,80.414S191.607,261.883,205.476,221.375z"/>
<path stroke="#000000" stroke-width="0.2" d="M191.388,192.21c-4.129-4.129-11.01-23.946-11.01-23.946
	c-43.763,38.533-23.67,88.902-23.67,88.902s-4.13-36.757,7.706-42.387c0,0,8.276,31.03,13.974,42.337
	c3.731,8.483,7.015,17.497,7.015,17.497c9.248,29.196-2.547,38.701-2.547,38.701s9.083-3.026,9.083-18.44
	c0.687-4.966-3.208-28.071-11.561-46.516C179.265,243.792,169.644,213.954,191.388,192.21z"/>
<path stroke="#000000" stroke-width="0.2" d="M192.456,199.734c0,0-9.651,26.354,0,51.967c4.825,24.87,33.778,49.369,33.778,49.369
	s-5.196,1.856-24.87-17.817c10.022,24.128,7.795,36.377,7.795,36.377l8.909-5.567c0,0-13.363,16.703-10.022,30.066
	c0,13.363,10.765,32.665,10.765,32.665s-10.394-4.083-20.416-36.377c-12.991,15.961-9.65,33.407-9.65,33.407
	s-7.053-17.075,7.795-47.513c5.567-18.56,0.001-48.627-4.454-59.392C175.751,215.324,192.456,199.734,192.456,199.734z"/>
<path stroke="#000000" stroke-width="0.2" d="M0.101,183.154c0,0,9.869,2.191,32.528-20.468
	c12.792-12.791,25.218-27.775,36.913-31.065c1.143-1.142,16.016-5.415,34.904-8.407c19.934-3.875,29.422-13.887,29.422-13.887
	s-4.021,10.232-27.777,19.735c7.58,4.386,26.863,7.493,44.589,10.233c14.985,4.021,28.874-5.848,28.874-5.848
	s-0.731,4.227-20.223,13.769c-49.586,18.76-53.971,37.766-57.626,41.42c-19.735,39.472-1.462,99.046-1.462,99.046l-20.467-48.244
	c-4.751,0,1.279,38.74,9.867,51.168c36.783,42.075,17.544,91.37,17.544,91.37s13.89-47.148-20.833-78.213
	c3.291,44.223-10.965,62.863-10.965,62.863s15.352-35.818-3.289-84.427c-8.77-36.549-8.406-57.016-1.827-85.522
	c4.753-38.378,28.143-54.823,28.143-54.823s-18.64,32.527-14.985,53.726c27.047-42.396,59.939-50.802,59.939-50.802
	s-36.912-14.254-55.188-7.675c-63.229,22.294-63.229,121.341-63.229,121.341s-5.847-21.199,7.309-88.447
	C-0.627,190.097,0.101,183.154,0.101,183.154z"/>
<path stroke="#000000" stroke-width="0.2" d="M220.863,184.525c0,0,1.922,6.919,7.304,12.301
	c29.31,3.075,43.054,19.989,43.054,19.989s-7.881-16.722-19.221-28.062c0,0-2.308,4.613-4.613,4.613s-5.382-5.382-5.382-5.382
	L220.863,184.525z"/>
<path d="M227.915,196.65c0,0,5.993,7.326,14.873,9.545c8.88,2.221,15.65-0.111,15.65-0.111"/>
<path stroke="#000000" stroke-width="0.2" d="M257.679,209.075l2.666,1c0,0,5.208,12.459,4,13.667s-5.667,2.042-12,0.708
	c-14.958-4.5-17.666-11.375-17.666-11.375s-19.499-7.166-24-11.667c-24.542-15.833-25.667-33.667-25.667-33.667
	s-0.497-0.754,2.836-0.754c1.058,0.229,9.458,8.754,28.831,5.754c18.037-7.99,28.666-7,28.666-7s-21.333,3.747-21.333,9.334
	c0,2.092,19.666,0.666,29.333,4c9.667,3.333,16.003,5.605,25.667,22c13.533-52.824-21.667-80-21.667-80s46.636,30.77,22.334,92.333
	c-5.224,0,7.958-27.208-43.063-30.812c-19.124,2.208-45.354-10.521-45.354-10.521s-2.125,11.75,13.417,17.667
	c7.333,3.083,12.666-0.334,12.666-0.334s4.917,10.792,12.167,12.167l-1.875,3.25c0,0,2.541-0.375,5.708-0.375s14.167,5,14.167,5
	s-7.979,1.146-5.833,3.292c0,0,4.916,6,16.666,6C261.012,218.742,257.679,209.075,257.679,209.075z"/>
<path stroke="#000000" stroke-width="0.2" d="M190.032,128.141c0,0,18.482,6.096,40.254-15.676c-13.934,3.096-9.676,0-9.676,0
	v-2.516l12.579-0.968c0,0-2.322-0.968-8.902-2.903c-8.128-1.936-25.934-12.967-31.933-15.096c-5.999-2.128-9.483-3.676-12.192-3.676
	s-13.547,3.059-13.547,3.059s4.846-0.852,8.251,0.095c2.743,0.757,6.264,2.651,6.264,2.651s-11.998,7.377-18.578,12.773
	c-9.586,8.98-20.321,7.354-20.321,7.354s7.188,5.931,20.708-3.482c2.627,18.777,11.418,18.965,11.418,18.965
	s-11.316-10.326-5.721-21.201c9.231-9.232,18.81-12.141,19.356-11.594l1.629,1.602c-2.128,5.371-0.704,11.62-0.704,11.62
	s-5.61-2.536-6.045-2.102c-2.946,8.198,7.222,14.128,7.222,14.128s-4.585-7.535-2.19-8.768c1.936-0.774,5.032-0.135,5.032-0.135
	s-4.923-7.67,1.161-15.482c0.596-0.596,2.902,0.812,2.902,0.812s-5.249,15.23,9.097,17.379c0-0.684,1.258-1.258,1.258-1.258
	s-6.759-4.438-1.04-7.806c3.835-1.931,5.975,4.806,5.975,4.806s2.921,1.21,4.258-4.258c2.589,0.455,2.399,1.125,1.936,1.936
	c1.244,2.326-7.646,9.23-7.646,9.23s8.963-1.395,7.84,0.446C211.615,127.588,195.014,128.534,190.032,128.141z"/>
<path stroke="#000000" stroke-width="0.5" d="M161.339,262.041c0,0,14.077,34.794,13.015,52.59
	c-1.571,18.691-4.78,28.829-4.78,32.936c-0.711,39.354,21.248,47.543,21.248,47.543s-10.146,4.439-26.561-27.42
	c-4.193,27.928,14.077,65.933,14.077,65.933s-32.485-44.018-22.577-80.479c6.375-21.78,8.842-26.029,12.218-40.903
	C171.968,295.236,161.339,262.041,161.339,262.041z"/>
<path stroke="#000000" stroke-width="0.5" d="M168.344,160.538c0,0-27.511,5.934-43.514,27.69
	c-15.464,22.296-17.111,32.725-18.339,50.346c-2.159,58.256,25.172,92.418,25.172,118.311
	c-4.314,31.292-18.699,41.715-18.699,41.715s34.881-20.498,22.296-109.321c7.73,13.125,26.252,26.252,26.252,26.252
	s-19.062-25.792-21.357-52.505c-1.692-32.366-7.411-47.467,21.356-87.023c0,0-30.927,25.531-34.343,79.294
	C107.569,182.473,168.344,160.538,168.344,160.538z"/>
<path stroke="#000000" stroke-width="0.5" d="M62.208,196.251c0,0-6.488,25.481-8.02,36.722
	c-6.824,43.263,3.402,37.232,6.331,86.105c1.79,15.102-6.331,42.63-6.331,42.63s18.609-22.546,11.006-75.131
	c0-6.671-6.363-18.731-6.363-43.896C58.832,236.908,62.208,196.251,62.208,196.251z"/>
<path stroke="#000000" stroke-width="0.5" d="M16.012,185.075c0,0-12.5,19.702-12.5,36c-4.069,30.069,24.05,90.162,26,111
	c1.95,9.788-7.5,34.5-7.5,34.5l14.5-27.5l25.5,55c0,0-25.5-55-22-94c2.388-94.569,33.5-145.5,33.5-145.5s-26.373,22.857-46.5,121
	C-6.456,231.391,16.012,185.075,16.012,185.075z"/>
</svg>
