<?xml version="1.0" encoding="utf-8"?>
<!-- Generator: Adobe Illustrator 15.0.0, SVG Export Plug-In  -->
<!DOCTYPE svg PUBLIC "-//W3C//DTD SVG 1.1 Tiny//EN" "http://www.w3.org/Graphics/SVG/1.1/DTD/svg11-tiny.dtd" [
	<!ENTITY ns_flows "http://ns.adobe.com/Flows/1.0/">
]>
<svg version="1.1" baseProfile="tiny"
	 xmlns="http://www.w3.org/2000/svg" xmlns:xlink="http://www.w3.org/1999/xlink" xmlns:a="http://ns.adobe.com/AdobeSVGViewerExtensions/3.0/"
	 x="0px" y="0px" width="101px" height="130px" viewBox="0 -0.68 101 130" overflow="visible" xml:space="preserve">
<defs>
</defs>
<path fill="#AEC90B" d="M50.96,100.64v23.77h30.16v4.23H18.88v-4.23h27.84v-23.77h-6.78v-15.9H26.1h-2.12v-2.12V66.95h-9.64
	c-0.35,1.17-0.99,2.21-1.83,3.05c-1.33,1.33-3.16,2.15-5.18,2.15S3.47,71.33,2.15,70C0.82,68.68,0,66.84,0,64.82
	s0.82-3.86,2.15-5.18c1.33-1.33,3.16-2.15,5.18-2.15s3.85,0.82,5.18,2.15c0.85,0.85,1.49,1.9,1.84,3.08h9.63V37.48
	c-1.15-0.36-2.19-0.99-3.02-1.82c-1.33-1.33-2.15-3.16-2.15-5.18c0-2.03,0.82-3.86,2.15-5.18c1.33-1.33,3.16-2.15,5.18-2.15
	c2.03,0,3.86,0.82,5.19,2.15c1.33,1.33,2.15,3.16,2.15,5.18c0,2.02-0.82,3.85-2.15,5.18c-0.86,0.86-1.93,1.5-3.12,1.85v43h13.85
	h2.11v2.11v13.79h9.32V73.23h-11.7h-2.11v-2.11V42.87v-2.11h2.11h10.02V14.17c-0.95-0.37-1.81-0.94-2.53-1.65
	c-1.33-1.33-2.15-3.16-2.15-5.18c0-2.03,0.82-3.86,2.15-5.19C50.62,0.82,52.45,0,54.47,0s3.86,0.82,5.18,2.15
	c1.33,1.33,2.15,3.16,2.15,5.19c0,2.02-0.82,3.85-2.15,5.18c-0.97,0.97-2.22,1.67-3.61,1.98v28.37v2.12h-2.11H43.91V69h9.59v-8.2
	v-2.11h2.11h17.97V46.51c-1.02-0.37-1.93-0.96-2.68-1.71c-1.33-1.33-2.15-3.16-2.15-5.18c0-2.03,0.82-3.86,2.15-5.18
	c1.33-1.33,3.16-2.15,5.18-2.15c2.02,0,3.85,0.82,5.18,2.15c1.33,1.33,2.15,3.16,2.15,5.18c0,2.02-0.82,3.85-2.15,5.18
	c-0.94,0.94-2.13,1.62-3.46,1.94V60.8v2.11h-2.11H57.72v8.35h0v12.81h11.05V73.63v-2.12h2.11h14.76c0.35-1.18,0.99-2.25,1.85-3.1
	c1.33-1.33,3.16-2.15,5.18-2.15c2.03,0,3.86,0.82,5.19,2.15c1.33,1.32,2.15,3.16,2.15,5.18c0,2.02-0.82,3.85-2.15,5.18
	c-1.33,1.33-3.16,2.15-5.19,2.15c-2.02,0-3.86-0.82-5.18-2.15c-0.84-0.84-1.47-1.88-1.83-3.04H72.99v10.44v2.11h-2.11H57.72v10.23
	v2.11H55.6H50.96L50.96,100.64z M28.34,28.28c-0.56-0.56-1.34-0.91-2.19-0.91c-0.85,0-1.63,0.35-2.19,0.91
	c-0.56,0.56-0.91,1.34-0.91,2.19c0,0.85,0.35,1.63,0.91,2.19c0.56,0.56,1.34,0.91,2.19,0.91c0.86,0,1.64-0.35,2.19-0.91
	c0.56-0.56,0.91-1.34,0.91-2.19C29.26,29.62,28.91,28.84,28.34,28.28L28.34,28.28z M9.53,62.63c-0.56-0.56-1.34-0.91-2.19-0.91
	c-0.86,0-1.63,0.35-2.19,0.91c-0.56,0.56-0.91,1.34-0.91,2.19c0,0.86,0.35,1.63,0.91,2.19c0.56,0.56,1.34,0.91,2.19,0.91
	c0.86,0,1.63-0.35,2.19-0.91s0.91-1.34,0.91-2.19C10.44,63.97,10.09,63.19,9.53,62.63L9.53,62.63z M56.67,5.14
	c-0.56-0.56-1.34-0.91-2.19-0.91s-1.63,0.35-2.19,0.91s-0.91,1.34-0.91,2.19c0,0.85,0.35,1.63,0.91,2.19
	c0.56,0.56,1.34,0.91,2.19,0.91s1.63-0.35,2.19-0.91c0.56-0.56,0.91-1.34,0.91-2.19C57.57,6.47,57.23,5.7,56.67,5.14L56.67,5.14z
	 M78.28,37.43c-0.56-0.56-1.34-0.91-2.19-0.91c-0.86,0-1.63,0.35-2.19,0.91s-0.91,1.34-0.91,2.19s0.35,1.63,0.91,2.19
	s1.34,0.91,2.19,0.91c0.85,0,1.63-0.35,2.19-0.91s0.91-1.34,0.91-2.19S78.84,37.99,78.28,37.43L78.28,37.43z M94.87,71.4
	c-0.56-0.56-1.34-0.91-2.2-0.91c-0.85,0-1.63,0.35-2.19,0.91c-0.56,0.56-0.91,1.34-0.91,2.19c0,0.85,0.35,1.63,0.91,2.19
	c0.56,0.56,1.34,0.91,2.19,0.91c0.86,0,1.64-0.35,2.2-0.91c0.56-0.56,0.91-1.34,0.91-2.19C95.77,72.74,95.42,71.96,94.87,71.4z"/>
</svg>
