<?xml version="1.0" encoding="utf-8"?>
<!-- Generator: Adobe Illustrator 15.0.0, SVG Export Plug-In  -->
<!DOCTYPE svg PUBLIC "-//W3C//DTD SVG 1.1 Tiny//EN" "http://www.w3.org/Graphics/SVG/1.1/DTD/svg11-tiny.dtd" [
	<!ENTITY ns_flows "http://ns.adobe.com/Flows/1.0/">
]>
<svg version="1.1" baseProfile="tiny"
	 xmlns="http://www.w3.org/2000/svg" xmlns:xlink="http://www.w3.org/1999/xlink" xmlns:a="http://ns.adobe.com/AdobeSVGViewerExtensions/3.0/"
	 x="0px" y="0px" width="101px" height="111px" viewBox="-0.44 -0.44 101 111" overflow="visible" xml:space="preserve">
<defs>
</defs>
<path fill-rule="evenodd" fill="#009FE3" stroke="#009FE3" stroke-width="1.0006" stroke-miterlimit="2.4142" d="M44.46,85.58
	c8.55,0,16.5-2.61,23.08-7.08c-2.58-3-4.93-5.44-6.44-4.93c-7.53,2.55-13.09,0.3-18.4-3.65c-8.49-6.32-21.68-2.31-30.59-6.56
	C7.85,57.59,28.26,45.31,40.58,41.4c11.88-3.78,24-3.4,39.48,1.09c-1.16,3.94-3.25,7.89-2.78,11.6c2.04,1.1,4.16,2.17,6.24,3.26
	c1.34-4.05,2.06-8.39,2.06-12.89c0-11.35-4.6-21.64-12.05-29.08C66.1,7.94,55.81,3.33,44.46,3.33s-21.64,4.6-29.08,12.05
	C7.94,22.82,3.33,33.1,3.33,44.46c0,11.35,4.6,21.64,12.05,29.08C22.82,80.98,33.1,85.58,44.46,85.58L44.46,85.58z M13.87,66.22
	c0.41,0.21,0.57,0.71,0.37,1.12c-0.21,0.41-0.71,0.57-1.12,0.37c-1.66-0.85-3.04-2.32-4.13-4.43c-1.05-2.02-1.84-4.64-2.37-7.86
	c-0.07-0.45,0.23-0.88,0.69-0.95c0.45-0.07,0.88,0.23,0.96,0.69c0.5,3.04,1.24,5.49,2.21,7.36C11.4,64.3,12.53,65.54,13.87,66.22
	L13.87,66.22z M76.89,35.31c-0.32-0.33-0.3-0.86,0.04-1.18c0.33-0.31,0.86-0.3,1.18,0.04c4.71,4.98,5.71,9.98,4.18,15
	c-0.13,0.44-0.6,0.69-1.04,0.55c-0.44-0.13-0.69-0.6-0.55-1.04C82.04,44.25,81.13,39.8,76.89,35.31L76.89,35.31z M44.94,38.8
	L9.32,42.35l-1.35,0.13l0.13-1.35c0.05-0.49,0.09-0.89,0.12-1.26c0.29-3.05,0.58-6.1,1.53-8.44c1.52-3.74,4.45-5.63,10.8-3.04
	l0.03,0.01c1.84,0.81,3.65,1.74,5.45,2.68c4.51,2.33,9.01,4.67,14.42,5.05c-2.17-2.77-2.79-5.76-3.17-8.78
	c1.16,3,2.56,5.96,5.6,8.58l0.07-0.14c-0.7-2.27-0.67-4.54,0.09-6.81l0.85,5c1.26-2.29,2.62-4.33,3.97-6.35
	c2-2.99,3.96-5.93,5.46-9.53c0.2-0.48,0.44-0.9,0.74-1.27c0.88-1.13,2.13-1.75,3.61-1.9c1.36-0.13,2.91,0.15,4.54,0.82
	c1.36,0.56,2.78,1.4,4.19,2.51l0.46,0.36c2.95,2.3,4.95,3.87,6.8,6.64l0.49,0.73l-0.6,0.64c-5.06,5.42-14.42,8.1-23.79,10.79
	c-1.58,0.45-3.16,0.91-4.64,1.35l-0.09,0.03L44.94,38.8L44.94,38.8z"/>
<path fill-rule="evenodd" fill="#E30613" stroke="#E30613" stroke-width="1.0006" stroke-miterlimit="2.4142" d="M56.38,73.1
	c-0.13-8.81-1.87-16.25-12.65-11.75c3.97-4.57,8.85-6.48,13.34-5.48c6.13,2.31,10.34,5.42,13.54,9.06c1.11,1.33,2.27,0.17,1.09-1.39
	c-3.15-3.22-7.5-5.91-13.04-8.07c6.24-2.7,12.51-2.5,17.73-0.6C87.73,60.3,99.24,65.62,99,77.78c-0.92,8.81-10.93,13.43-16.23,11.75
	c-6.91-1.73-11.4-9.52-15.89-14.16C63.35,71.73,59.92,70.99,56.38,73.1L56.38,73.1z"/>
<path fill-rule="evenodd" fill="#FFFFFF" stroke="#FFFFFF" stroke-width="1.0006" stroke-miterlimit="2.4142" d="M10.45,40.01
	c6.59-0.66,13.17-1.31,19.76-1.97c-1.38-0.24-1-1.94-0.12-2.48c-1.72-0.78-3.39-1.64-5.06-2.5c-1.74-0.9-3.49-1.81-5.3-2.6
	c-4.76-1.93-6.87-0.71-7.9,1.82C10.99,34.31,10.72,37.16,10.45,40.01L10.45,40.01z M44.83,69.91c-1.36-2.09-1.79-4.31-1.29-6.67
	c5.15-2.86,9.12-2.38,11.35,2.99c0.1,1.83,0.2,3.65,0.3,5.48C53.03,75.2,48.87,72.37,44.83,69.91L44.83,69.91z M14.05,60.25
	l2.29-3.49C20.91,58.87,16.14,62.56,14.05,60.25L14.05,60.25z M26.2,50.09c-2.42,1.73-5.34,3.45-7.77,5.18
	c0.9,0.9,1.79,1.79,2.69,2.69c4,0.31,6.49-1.37,6.77-4.78C27.33,52.15,26.77,51.12,26.2,50.09L26.2,50.09z M27.4,48.8
	c4.68-2.26,9.46-3.52,14.14-5.78c0.2,2.75,0.2,5.51,0.4,8.27c-1.93,2.92-5.08,3.25-9.66,2.99C28.31,52.88,28.25,50.77,27.4,48.8
	L27.4,48.8z M68.72,50.39c1.08-2.62,1.41-5.38,0.9-8.27c3.95-0.15,7.07,0.45,8.36,2.69C75.36,51.5,75.24,51.49,68.72,50.39
	L68.72,50.39z M56.58,41.03c-0.13,2.32-0.27,4.65-0.4,6.97c1.1,4.22,10.66,5.08,12.05,1c0.46-2.46,0.77-5.68-0.4-7.37
	C66.66,39.94,55.85,39.64,56.58,41.03L56.58,41.03z M42.93,41.93c0.03,2.99,0.07,5.97,0.1,8.96c4.08,3.25,12.41,1.13,12.15-1.59
	c0.03-3.05,0.07-6.11,0.1-9.16C51.49,40.41,47.52,40.86,42.93,41.93L42.93,41.93z M41.94,67.92c-3.24-1.63-7.24-2.95-12.35-3.78
	C32.44,59.8,42.56,59.86,41.94,67.92L41.94,67.92z M54.83,33.63c6.63-2.02,12.75-4.31,16.49-7.87c-1.54-2.05-3.31-3.44-5.8-5.39
	L65.05,20c-1.25-0.98-2.5-1.72-3.67-2.2c-1.29-0.53-2.48-0.76-3.48-0.66c-0.88,0.09-1.6,0.43-2.08,1.05
	c-0.17,0.21-0.31,0.47-0.43,0.75c-1.33,3.28-2.98,6.21-4.7,8.63C55.54,27.69,55.12,30.32,54.83,33.63L54.83,33.63z"/>
<path fill="#1D1D1B" d="M44.46,85.58c8.55,0,16.5-2.61,23.08-7.08c0.71,0.83,1.44,1.69,2.17,2.55c-7.17,4.96-15.88,7.87-25.25,7.87
	c-12.27,0-23.39-4.98-31.44-13.02C4.98,67.85,0,56.73,0,44.46c0-12.27,4.98-23.39,13.02-31.44C21.07,4.98,32.18,0,44.46,0
	S67.85,4.98,75.9,13.02c8.04,8.05,13.02,19.16,13.02,31.44c0,5.08-0.85,9.95-2.42,14.5c-0.98-0.55-1.97-1.08-2.98-1.61
	c1.34-4.05,2.06-8.39,2.06-12.89c0-11.35-4.6-21.64-12.05-29.08C66.1,7.94,55.81,3.33,44.46,3.33s-21.64,4.6-29.08,12.05
	C7.94,22.82,3.33,33.1,3.33,44.46c0,11.35,4.6,21.64,12.05,29.08C22.82,80.98,33.1,85.58,44.46,85.58L44.46,85.58z"/>
<path fill-rule="evenodd" fill="#1D1D1B" d="M12.1,63.36C7.85,57.59,28.26,45.31,40.58,41.4c11.88-3.78,24-3.4,39.48,1.09
	c-1.16,3.94-3.25,7.88-2.78,11.6c11.46,6.17,25.44,11.37,22.27,26.44c-5.1,12.91-19.48,12.83-25.28,5.33
	C69.55,81.8,63.9,72.62,61.1,73.57c-7.53,2.55-13.09,0.3-18.4-3.65C34.2,63.6,21.01,67.61,12.1,63.36L12.1,63.36z M14.05,60.25
	l2.29-3.48C20.91,58.87,16.14,62.56,14.05,60.25L14.05,60.25z M26.2,50.09c-2.42,1.73-5.34,3.45-7.77,5.18
	c0.9,0.9,1.79,1.79,2.69,2.69c4,0.31,6.49-1.37,6.77-4.78C27.33,52.15,26.77,51.12,26.2,50.09L26.2,50.09z M27.4,48.8
	c4.68-2.26,9.46-3.52,14.14-5.78c0.2,2.76,0.2,5.51,0.4,8.27c-1.92,2.92-5.08,3.25-9.66,2.99C28.31,52.88,28.25,50.77,27.4,48.8
	L27.4,48.8z M68.72,50.39c1.08-2.62,1.41-5.38,0.9-8.27c3.95-0.15,7.07,0.45,8.37,2.69C75.36,51.5,75.24,51.49,68.72,50.39
	L68.72,50.39z M56.58,41.03c-0.13,2.32-0.27,4.65-0.4,6.97c1.1,4.22,10.66,5.08,12.05,1c0.46-2.46,0.77-5.68-0.4-7.37
	C66.66,39.94,55.85,39.64,56.58,41.03L56.58,41.03z M42.93,41.93c0.03,2.99,0.07,5.98,0.1,8.96c4.08,3.25,12.41,1.13,12.15-1.59
	c0.03-3.05,0.07-6.11,0.1-9.16C51.49,40.41,47.52,40.86,42.93,41.93L42.93,41.93z M41.94,67.92c-3.24-1.63-7.24-2.95-12.35-3.78
	C32.44,59.8,42.56,59.86,41.94,67.92L41.94,67.92z M44.83,69.91c-1.36-2.09-1.79-4.32-1.29-6.67c5.15-2.86,9.12-2.38,11.35,2.99
	c0.1,1.83,0.2,3.65,0.3,5.48C53.03,75.2,48.87,72.37,44.83,69.91L44.83,69.91z M56.38,73.1c-0.13-8.81-1.87-16.25-12.65-11.75
	c3.97-4.57,8.85-6.48,13.34-5.48c6.13,2.31,10.34,5.42,13.54,9.06c1.11,1.33,2.27,0.17,1.09-1.39c-3.15-3.22-7.5-5.91-13.04-8.07
	c6.24-2.7,12.51-2.5,17.73-0.6C87.73,60.3,99.24,65.62,99,77.78c-0.92,8.81-10.93,13.43-16.23,11.75
	c-6.91-1.73-11.4-9.52-15.89-14.16C63.35,71.73,59.92,70.99,56.38,73.1L56.38,73.1z"/>
<path fill="#1D1D1B" d="M10.45,40.01c6.59-0.66,13.17-1.31,19.76-1.97c-1.38-0.24-1-1.94-0.12-2.48c-1.72-0.78-3.39-1.64-5.06-2.5
	c-1.74-0.9-3.49-1.81-5.3-2.6c-4.76-1.93-6.87-0.71-7.9,1.82C10.99,34.31,10.72,37.16,10.45,40.01L10.45,40.01z M40.46,36.14
	c-2.17-2.77-2.79-5.76-3.17-8.78c1.16,3,2.56,5.96,5.6,8.58l0.07-0.14c-0.7-2.27-0.67-4.54,0.09-6.81l0.85,5
	c1.26-2.29,2.62-4.33,3.97-6.35c2-2.99,3.97-5.93,5.46-9.53c0.2-0.48,0.44-0.9,0.74-1.27c0.88-1.13,2.13-1.75,3.61-1.9
	c1.36-0.13,2.91,0.15,4.54,0.82c1.36,0.56,2.78,1.4,4.19,2.51l0.46,0.36c2.95,2.3,4.95,3.87,6.8,6.64l0.49,0.73l-0.6,0.64
	c-5.06,5.42-14.42,8.1-23.79,10.79c-1.58,0.45-3.16,0.91-4.64,1.35l-0.09,0.03l-0.12,0.01L9.32,42.35l-1.35,0.13l0.13-1.35
	c0.05-0.49,0.09-0.89,0.12-1.26c0.29-3.05,0.58-6.1,1.53-8.44c1.52-3.74,4.45-5.63,10.8-3.04l0.03,0.01
	c1.84,0.81,3.65,1.74,5.45,2.68C30.55,33.42,35.06,35.75,40.46,36.14L40.46,36.14z M54.83,33.63c6.63-2.02,12.75-4.31,16.49-7.87
	c-1.54-2.05-3.31-3.44-5.8-5.39L65.05,20c-1.25-0.98-2.5-1.72-3.67-2.2c-1.29-0.53-2.48-0.76-3.48-0.66
	c-0.88,0.09-1.6,0.43-2.08,1.05c-0.17,0.21-0.31,0.47-0.43,0.75c-1.33,3.28-2.98,6.21-4.7,8.63C55.54,27.69,55.12,30.32,54.83,33.63
	L54.83,33.63z"/>
<path fill="#1D1D1B" d="M76.89,35.31c-0.31-0.33-0.3-0.86,0.04-1.18c0.33-0.31,0.86-0.3,1.18,0.04c4.7,4.98,5.71,9.98,4.18,15
	c-0.13,0.44-0.6,0.69-1.04,0.55c-0.44-0.13-0.69-0.6-0.55-1.04C82.04,44.25,81.13,39.8,76.89,35.31L76.89,35.31z"/>
<path fill="#1D1D1B" d="M13.87,66.22c0.41,0.21,0.57,0.71,0.37,1.12c-0.21,0.41-0.71,0.58-1.12,0.37c-1.66-0.84-3.04-2.32-4.13-4.42
	c-1.05-2.02-1.84-4.64-2.37-7.86c-0.07-0.45,0.23-0.88,0.69-0.96c0.45-0.07,0.88,0.23,0.96,0.69c0.5,3.04,1.24,5.5,2.21,7.37
	C11.4,64.31,12.53,65.54,13.87,66.22L13.87,66.22z"/>
<polygon fill="#1D1D1B" points="10.52,97.02 13.98,97.62 12.05,108.81 8.58,108.21 10.52,97.02 "/>
<path fill="#1D1D1B" d="M16.2,91.13h3.37v2.59c0,0.96-0.2,1.71-0.6,2.27c-0.4,0.55-1.08,1.04-2.04,1.46l-0.74-1.38
	c0.6-0.28,1.01-0.56,1.23-0.83c0.22-0.27,0.35-0.6,0.38-0.98H16.2V91.13L16.2,91.13z"/>
<path fill="#1D1D1B" d="M20.22,101.27l2.93-0.22l0.09,1.2c0.39-0.53,0.78-0.92,1.2-1.17c0.41-0.24,0.92-0.39,1.53-0.44
	c0.65-0.05,1.18,0.03,1.58,0.23c0.4,0.2,0.74,0.52,1.02,0.96c0.45-0.57,0.88-0.97,1.27-1.2c0.39-0.22,0.89-0.36,1.48-0.4
	c0.88-0.07,1.59,0.14,2.12,0.63c0.54,0.48,0.84,1.28,0.93,2.4l0.39,5.15l-3.15,0.24l-0.36-4.67c-0.03-0.37-0.12-0.64-0.28-0.81
	c-0.23-0.27-0.51-0.39-0.82-0.36c-0.37,0.03-0.66,0.19-0.87,0.47c-0.21,0.29-0.28,0.72-0.24,1.32l0.32,4.23l-3.15,0.24l-0.34-4.52
	c-0.03-0.36-0.07-0.6-0.12-0.73c-0.08-0.2-0.21-0.36-0.39-0.47c-0.18-0.11-0.37-0.16-0.59-0.15c-0.36,0.03-0.65,0.19-0.86,0.48
	c-0.21,0.29-0.29,0.75-0.25,1.37l0.32,4.19l-3.15,0.24L20.22,101.27L20.22,101.27z"/>
<path fill="#1D1D1B" d="M38.82,97.63l6.44-1.29c1.07-0.21,1.95-0.11,2.63,0.3c0.68,0.42,1.1,1.02,1.26,1.8
	c0.13,0.66,0.04,1.26-0.28,1.82c-0.21,0.37-0.56,0.7-1.05,0.98c0.84,0.03,1.49,0.25,1.96,0.64c0.47,0.39,0.78,0.95,0.92,1.65
	c0.12,0.58,0.08,1.12-0.09,1.64c-0.18,0.52-0.47,0.95-0.88,1.31c-0.25,0.22-0.67,0.43-1.23,0.62c-0.75,0.26-1.26,0.41-1.51,0.46
	l-5.94,1.19L38.82,97.63L38.82,97.63z M43.17,101.3l1.5-0.3c0.54-0.11,0.89-0.28,1.07-0.5c0.17-0.23,0.22-0.52,0.15-0.86
	c-0.06-0.32-0.22-0.56-0.47-0.7c-0.25-0.14-0.63-0.16-1.15-0.06l-1.52,0.3L43.17,101.3L43.17,101.3z M44.04,105.68l1.76-0.35
	c0.59-0.12,0.99-0.31,1.19-0.56c0.2-0.26,0.27-0.57,0.2-0.92c-0.07-0.33-0.24-0.57-0.52-0.72s-0.72-0.17-1.33-0.05l-1.75,0.35
	L44.04,105.68L44.04,105.68z"/>
<path fill="#1D1D1B" d="M58.82,106.58l-3.99,0.27l-0.42,1.91l-3.58,0.24l3.5-11.62l3.82-0.25l5.02,11.05l-3.66,0.24L58.82,106.58
	L58.82,106.58z M57.92,104.18l-1.52-3.99l-0.97,4.16L57.92,104.18L57.92,104.18z"/>
<path fill="#1D1D1B" d="M62.7,98.88l5.19-0.53c1.02-0.1,1.86-0.05,2.52,0.16c0.66,0.21,1.22,0.56,1.68,1.03
	c0.46,0.48,0.82,1.05,1.08,1.72c0.25,0.67,0.42,1.39,0.5,2.16c0.12,1.21,0.08,2.16-0.12,2.85c-0.21,0.69-0.53,1.29-0.97,1.79
	c-0.44,0.5-0.93,0.85-1.48,1.06c-0.74,0.28-1.43,0.46-2.05,0.52l-5.19,0.53L62.7,98.88L62.7,98.88z M66.45,101.08l0.63,6.17
	l0.85-0.09c0.73-0.08,1.24-0.21,1.53-0.4c0.29-0.19,0.5-0.5,0.64-0.92c0.13-0.42,0.15-1.08,0.06-1.99c-0.12-1.2-0.4-2-0.84-2.4
	c-0.44-0.4-1.11-0.56-2.01-0.46L66.45,101.08L66.45,101.08z"/>
<path fill="#1D1D1B" d="M77.22,97.53l3.23,0.97l-0.74,2.48l-2.11,4.79l-2-0.6l0.88-5.16L77.22,97.53L77.22,97.53z M74.88,105.78
	l3.02,0.9l-0.8,2.67l-3.01-0.9L74.88,105.78L74.88,105.78z"/>
</svg>
