<?xml version="1.0" encoding="utf-8"?>
<!-- Generator: Adobe Illustrator 13.0.2, SVG Export Plug-In  -->
<!DOCTYPE svg PUBLIC "-//W3C//DTD SVG 1.1 Tiny//EN" "http://www.w3.org/Graphics/SVG/1.1/DTD/svg11-tiny.dtd" [
	<!ENTITY ns_flows "http://ns.adobe.com/Flows/1.0/">
]>
<svg version="1.1" baseProfile="tiny"
	 xmlns="http://www.w3.org/2000/svg" xmlns:xlink="http://www.w3.org/1999/xlink" xmlns:a="http://ns.adobe.com/AdobeSVGViewerExtensions/3.0/"
	 x="0px" y="0px" width="103px" height="114px" viewBox="-0.332 -0.167 103 114" xml:space="preserve">
<defs>
</defs>
<path fill="#F15F60" d="M73.773,86.318c-1.313-0.291-2.681-0.361-4.012-0.139c-0.583,0.096-1.104-0.443-1.628-0.715
	c-0.662-0.344-1.357-0.625-2.073-0.836c-2.971-0.871-6.398-0.49-8.754,1.641c-2.463,2.23-3.196,5.756-2.591,8.93
	c0.578,2.846,2.193,5.197,3.974,7.43l0.064,0.068c1.458,1.816,3.104,3.568,4.4,5.502l3.631,5.469c1.3-0.883,2.599-1.768,3.899-2.648
	c1.601-1.09,3.392-1.871,5.12-2.74l1.102-0.572c4.369-2.033,7.287-5.736,6.688-10.764C82.981,91.769,78.83,87.425,73.773,86.318"/>
<path fill="#7D0000" d="M35.011,61.494c-1.975-0.42-4.047-0.43-6.007,0.072c-0.555,0.141-0.634,0.324-1.11-0.049
	c-0.459-0.359-0.94-0.691-1.438-0.996c-0.872-0.531-1.799-0.973-2.762-1.311c-3.884-1.352-8.526-0.951-11.578,2.004
	c-2.607,2.521-3.526,6.32-3.065,9.844c0.519,4.096,2.913,7.453,5.426,10.588l0.081,0.105c2.267,2.812,4.851,5.537,6.828,8.559
	l3.595,5.395c1.331-0.879,2.662-1.762,3.993-2.643c2.36-1.561,5.062-2.637,7.596-3.887l1.666-0.822
	c2.615-1.264,5.21-2.719,6.978-5.092c1.851-2.484,2.5-5.678,2.125-8.723C46.54,68.064,41.304,62.839,35.011,61.494"/>
<path fill="#FFFFFF" d="M34.272,67.914c-2.563-0.59-5.845,0.164-6.885,2.852c-1.165-7.078-13.508-8.406-13.08,0
	c0.134,3.287,2.576,5.934,4.526,8.359c2.306,2.867,4.871,5.643,6.899,8.711c2.276-1.4,4.718-2.566,7.091-3.814
	c2.349-1.234,5.196-2.342,6.88-4.492C43.25,74.998,39.14,69.041,34.272,67.914"/>
<path fill="#FFFFFF" d="M27.387,70.769c1.271-3.295,5.528-3.561,8.353-2.373c3.226,1.355,5.639,4.506,5.19,8.135
	c-0.375,3.045-2.868,4.73-5.382,6.057c-1.71,0.906-3.424,1.803-5.135,2.703c-1.564,0.824-3.213,1.523-4.66,2.551
	c-2.103-2.885-4.438-5.623-6.677-8.416c-1.965-2.449-4.49-5.092-4.753-8.387c-0.263-3.293,1.873-6.127,5.274-6.219
	C23.068,64.73,26.802,67.201,27.387,70.769"/>
<path fill="#FFFFFF" d="M64.272,39.109c-6.097-1.163-13.694,0.913-16.084,7.216c-1.109-7.07-8.048-12.646-15.058-13.011
	c-3.401-0.177-6.863,0.687-9.333,3.141c-2.465,2.45-3.574,6.036-3.541,9.458c0.045,7.093,4.875,12.792,9.09,18.03
	c2.428,3.016,4.853,6.037,7.286,9.049c2.447,3.025,5.022,5.963,7.271,9.143c0.246,0.35,0.488,0.703,0.728,1.061
	c1.099-0.469,2.177-1.252,3.275-1.801c1.283-0.637,2.593-1.219,3.899-1.807c3.004-1.346,5.973-2.771,8.948-4.178
	c5.376-2.545,11.634-4.785,15.665-9.355c4.103-4.615,4.503-11.544,1.784-16.961C75.53,43.768,70.046,40.212,64.272,39.109"/>
<path fill="#ED1C24" d="M65.258,32.016c-3.791-0.654-7.78-0.407-11.441,0.787c-0.871,0.285-1.726,0.626-2.552,1.023
	c-0.41,0.197-0.813,0.41-1.208,0.638c-0.529,0.303-0.615,0.65-1.071,0.136c-1.292-1.453-2.762-2.751-4.36-3.86
	c-5.842-4.056-13.825-5.663-20.425-2.433c-6.604,3.233-9.424,10.76-8.916,17.777c0.549,7.617,4.923,13.884,9.563,19.65
	c0.189,0.234,0.379,0.471,0.568,0.705l0.173,0.223c1.934,2.408,3.869,4.816,5.806,7.219c3.046,3.781,6.351,7.428,9.062,11.459
	l3.471,5.188c2.05-1.227,4.074-2.561,6.209-3.637c4.636-2.336,9.573-4.178,14.319-6.283l3.731-1.643
	c4.893-2.236,9.856-4.42,13.63-8.396c4.187-4.414,5.947-10.559,5.324-16.558C85.955,42.577,76.293,33.924,65.258,32.016"/>
<path fill="#FFFFFF" d="M48.188,46.326c2.811-7.419,12.241-8.743,18.903-6.455c6.747,2.339,12.204,7.891,12.798,15.242
	c0.298,3.679-0.644,7.425-2.96,10.333c-2.239,2.814-5.407,4.725-8.573,6.332c-6.718,3.408-13.705,6.27-20.45,9.615
	c-1.106,0.549-2.192,1.143-3.228,1.814c-1.02-1.166-1.865-2.586-2.836-3.822c-1.303-1.654-2.658-3.268-3.992-4.896
	c-2.469-3.016-4.896-6.064-7.34-9.1c-4.229-5.256-9.461-10.883-10.167-17.908c-0.343-3.405,0.35-7.054,2.423-9.837
	c2.087-2.8,5.327-4.181,8.757-4.336c7.049-0.319,14.286,4.521,16.297,11.375C47.978,45.225,48.101,45.772,48.188,46.326"/>
<path fill="#B31217" d="M88.169,51.16c-2.323-0.472-4.758-0.466-7.054,0.161c-0.523,0.144-1.04,0.32-1.541,0.527
	c-0.437-0.4-0.895-0.779-1.37-1.132c-1.067-0.794-2.229-1.458-3.455-1.977c-4.01-1.69-8.98-1.773-12.657,0.776
	c-3.729,2.582-5.281,7.247-4.903,11.637c0.434,5.051,3.375,9.186,6.461,13.006l0.099,0.127l1.455,1.812
	c0.541,0.67,1.081,1.342,1.622,2.014c1.839,2.277,3.853,4.471,5.478,6.91l3.566,5.355c1.458-0.949,2.916-1.895,4.376-2.842
	c2.806-1.822,6.107-3.039,9.117-4.492l2.055-0.982c2.961-1.564,5.944-2.961,8.123-5.611c2.332-2.832,3.24-6.57,2.861-10.184
	C101.61,58.722,95.491,52.651,88.169,51.16"/>
<path fill="#FFFFFF" d="M87.385,57.699c-3.266-0.721-7.402,0.271-8.723,3.68c-0.644-4.084-4.72-7.149-8.707-7.414
	c-4.348-0.275-7.589,2.769-7.529,7.162c0.057,4.062,2.933,7.336,5.343,10.334c2.953,3.678,6.23,7.236,8.852,11.16
	c2.623-1.396,5.284-2.822,7.946-4.195c3.06-1.578,6.607-2.938,9.068-5.422c2.377-2.422,2.788-6.072,1.494-9.148
	C93.792,60.669,90.715,58.433,87.385,57.699"/>
<path fill="#FFFFFF" d="M78.663,61.376c1.682-4.338,7.302-4.553,10.956-2.92c3.953,1.736,6.741,5.711,6.166,10.135
	c-0.592,4.562-4.865,6.562-8.525,8.445c-3.498,1.799-7.379,3.338-10.608,5.594c-2.819-3.615-5.703-7.213-8.584-10.795
	c-2.496-3.109-5.576-6.49-5.641-10.709c-0.067-4.408,3.188-7.416,7.529-7.162C73.941,54.229,78.019,57.296,78.663,61.376"/>
<path fill="#FFFFFF" d="M18.583,8.365c-1.652-0.394-3.772,0.066-4.454,1.8c-0.721-4.589-8.855-5.57-8.656-0.066
	c0.072,2.329,1.931,4.227,3.304,5.942c1.419,1.782,3.005,3.481,4.266,5.381c1.416-0.872,2.933-1.625,4.4-2.433
	c1.497-0.808,3.217-1.537,4.408-2.787C24.52,13.329,21.852,9.137,18.583,8.365"/>
<path fill="#F15F60" d="M19.258,2.131c-1.312-0.293-2.681-0.361-4.011-0.15c-0.582,0.091-1.106-0.438-1.629-0.708
	c-0.663-0.342-1.357-0.624-2.074-0.834c-2.978-0.87-6.394-0.507-8.756,1.638c-2.457,2.226-3.193,5.755-2.588,8.923
	c0.575,2.837,2.185,5.223,3.985,7.433l0.053,0.075c1.458,1.819,3.089,3.568,4.402,5.494l3.631,5.477
	c1.299-0.882,2.598-1.766,3.896-2.649c1.647-1.12,3.492-1.891,5.25-2.819l0.983-0.488c1.725-0.933,3.407-1.849,4.678-3.386
	c1.705-2.062,2.313-4.768,1.998-7.396C28.454,7.545,24.322,3.255,19.258,2.131"/>
<path fill="#FFFFFF" d="M14.129,10.166c0.867-2.203,3.74-2.256,5.578-1.396c1.83,0.827,3.155,2.571,3.196,4.612
	c0.046,2.295-1.711,3.571-3.538,4.562c-2.076,1.125-4.384,2.105-6.304,3.483c-1.279-1.751-2.705-3.419-4.07-5.118
	c-1.354-1.685-3.28-3.589-3.495-5.853C4.875,4.733,13.367,5.343,14.129,10.166"/>
<path fill="#FFFFFF" d="M73.097,92.566c-1.653-0.395-3.767,0.057-4.454,1.789c-0.715-4.59-8.823-5.561-8.654-0.059
	c0.073,2.338,1.929,4.225,3.311,5.939c1.425,1.781,3.003,3.494,4.267,5.389c1.383-0.928,2.923-1.652,4.393-2.441
	c1.491-0.811,3.222-1.523,4.405-2.783C79.06,97.535,76.346,93.337,73.097,92.566"/>
<path fill="#FFFFFF" d="M68.644,94.355c0.863-2.201,3.748-2.238,5.583-1.393c1.827,0.828,3.15,2.582,3.191,4.621
	c0.047,2.291-1.712,3.572-3.539,4.561c-2.083,1.123-4.373,2.107-6.304,3.482c-1.249-1.775-2.703-3.424-4.063-5.123
	c-1.365-1.705-3.263-3.566-3.497-5.85C59.359,88.931,67.883,89.541,68.644,94.355"/>
</svg>
