<?xml version="1.0" encoding="utf-8"?>
<!-- Generator: Adobe Illustrator 13.0.2, SVG Export Plug-In  -->
<!DOCTYPE svg PUBLIC "-//W3C//DTD SVG 1.1 Tiny//EN" "http://www.w3.org/Graphics/SVG/1.1/DTD/svg11-tiny.dtd" [
	<!ENTITY ns_flows "http://ns.adobe.com/Flows/1.0/">
]>
<svg version="1.1" baseProfile="tiny"
	 xmlns="http://www.w3.org/2000/svg" xmlns:xlink="http://www.w3.org/1999/xlink" xmlns:a="http://ns.adobe.com/AdobeSVGViewerExtensions/3.0/"
	 x="0px" y="0px" width="182px" height="90px" viewBox="-0.559 -0.615 182 90" xml:space="preserve">
<defs>
</defs>
<path fill="none" d="M70.824,54.599l-0.119-0.104l-0.008-0.006v-0.001c-0.408-0.355-0.828-0.723-1.256-1.104
	c-5.225,2.517-10.094,5.936-14.262,9.854c-1.016,0.962-2.023,1.955-3.029,2.957c3.062-0.58,6.107-1.228,9.055-2.209
	c4.582-1.279,8.969-3.684,12.494-6.885c-0.332-0.286-0.67-0.582-0.99-0.861L70.824,54.599z"/>
<path fill="none" d="M103.65,43.082c0.223-0.798,0.344-1.705,0.344-2.552c0-0.174-0.004-0.347-0.016-0.517
	c-0.268-4.162-2.961-7.434-7.029-8.537c-1.055-0.287-2.178-0.443-3.162-0.443c-1.488,0-3.078,0.344-4.52,1.015
	c-0.004,0.002-0.008,0.005-0.014,0.009c-1.445,0.678-2.738,1.688-3.621,3.024c-0.887-1.335-2.178-2.347-3.623-3.022
	c-0.006-0.003-0.012-0.006-0.016-0.011c-1.441-0.671-3.031-1.015-4.521-1.015c-0.986,0-2.109,0.156-3.16,0.443
	c-4.072,1.105-6.764,4.375-7.031,8.537c-0.012,0.17-0.018,0.345-0.018,0.521c0,0.847,0.123,1.749,0.346,2.55
	c0.328,1.15,0.902,2.269,1.764,3.415c1.287,1.705,2.881,3.092,4.424,4.433l0.121,0.105l1.889,1.646
	c1.299,1.131,2.592,2.259,3.896,3.384c0.412,0.354,0.83,0.701,1.242,1.051c1.352,1.143,2.752,2.32,3.949,3.621l0.752,0.78
	l0.721-0.78c1.201-1.309,2.604-2.49,3.963-3.629c0.41-0.347,0.82-0.691,1.227-1.043c1.283-1.106,2.561-2.216,3.836-3.33l1.951-1.699
	l0.158-0.139c1.531-1.332,3.115-2.709,4.387-4.4C102.748,45.35,103.322,44.234,103.65,43.082z"/>
<path fill="none" d="M101,54.106c2.693,7.212,7.309,13.711,14.08,17.48c3.4,1.966,7.133,2.954,11.027,3.524
	c-2.904-4.119-5.428-8.528-7.873-12.903c-3.186-5.506-6.705-10.899-10.898-15.63c-0.445,0.928-0.992,1.842-1.674,2.752
	C104.214,51.256,102.533,52.765,101,54.106z"/>
<path d="M159.384,25.74c-8.139,1.078-16.404,1.116-24.621,0.696c-8.283-0.416-16.758-0.332-24.992,1.824
	c-1.82,0.47-3.717,1.12-5.562,1.955c-0.986-0.905-2.102-1.662-3.322-2.263c4.096-2.152,8.365-4.046,12.584-6.046
	c6.482-3.35,13.352-6.828,17.814-12.786c2.621-2.887,1.559-7.896-2.396-8.673c-3.402-1.091-7.551-0.178-9.723,2.607
	c2.268-2.759,6.445-3.49,9.732-2.312c3.812,1.02,4.344,5.509,1.799,8.23c-4.557,5.633-11.521,8.96-18.098,12.105
	c-4.484,1.968-9.068,3.871-13.5,6.133c-0.299-0.104-0.6-0.201-0.906-0.283c0,0,0,0,0.002,0c-1.461-0.4-2.986-0.611-4.408-0.611
	c-2.23,0-4.492,0.509-6.543,1.471c-0.562,0.265-1.102,0.559-1.613,0.884c-0.514-0.325-1.053-0.619-1.615-0.884
	c-2.051-0.962-4.312-1.471-6.543-1.471c-1.418,0-2.941,0.211-4.404,0.611c-0.293,0.079-0.58,0.171-0.863,0.267
	c-1.27-1.213-2.551-2.413-3.846-3.593c-4.316-3.86-8.764-7.518-12.904-11.543c-1.971-2.097-4.307-3.893-5.447-6.779
	c0.262-1.817,2.855-0.88,4.039-0.469c1.383,0.492,2.709,1.073,4.027,1.718c-1.305-0.702-2.621-1.345-4.006-1.9
	c-0.695-0.271-1.4-0.522-2.18-0.679c-0.51-0.065-2.559-0.073-2.219,1.498c1.236,3.175,3.451,4.994,5.396,7.232
	c4.043,4.246,8.414,8.157,12.562,12.188c0.992,0.985,1.977,1.981,2.949,2.985c-1.887,0.891-3.539,2.154-4.85,3.745
	c-1.871,2.27-2.961,5.074-3.156,8.111v0.005v0.006c-0.086,1.385,0.062,2.879,0.408,4.259c-6.738,0.459-13.49,0.769-20.154,1.137
	c-9.926,0.256-19.951,0.118-29.729-1.864C8.505,42.035,2.75,41.056,0.382,36.165c-0.869-5.75,5.312-8.59,9.277-10.812
	c-3.996,2.184-10.516,4.768-9.566,11.078c2.643,5.214,8.443,6.238,13.137,7.585c9.951,2.219,20.127,2.552,30.217,2.521
	c6.734-0.287,13.443-0.419,20.145-0.692c0.488,1.188,1.148,2.342,2.012,3.489c0.725,0.96,1.508,1.811,2.301,2.599
	c-5.199,2.822-9.938,6.495-14.01,10.573c-1.322,1.35-2.615,2.72-3.9,4.093c-2.08,0.384-4.164,0.767-6.227,1.231
	c-2.916,0.632-5.828,1.298-8.672,2.172c-1.412,0.446-2.838,0.917-4.115,1.612c-1.846,0.715-1.16,1.944,0.547,2.146
	c-1.736-0.32-2.271-1.394-0.453-2.062c1.299-0.645,2.744-1.082,4.176-1.487c2.885-0.793,5.836-1.383,8.787-1.934
	c1.729-0.338,3.473-0.62,5.223-0.893c-3.432,3.669-6.836,7.328-10.668,10.605c-5.547,4.491-11.121,9.863-18.986,10.472
	c7.994-0.382,13.834-5.683,19.613-10.067c4.303-3.441,8.182-7.453,12.051-11.327c3.543-0.558,7.092-1.167,10.572-2.257
	c4.617-1.169,9.174-3.534,12.908-6.796c0.619,0.539,1.248,1.085,1.875,1.623c0.326,0.284,0.652,0.559,0.969,0.824l0.309,0.261
	l0.041,0.034c1.227,1.036,2.496,2.106,3.48,3.178l0.037,0.037l0.037,0.036l0.75,0.78l3.469,3.604l3.361-3.639
	c0.395,0.986,0.875,1.944,1.453,2.856c3.229,5.197,9.244,7.431,14.818,8c-5.59-1.045-11.213-3.808-13.658-8.846
	c-0.561-1.089-0.975-2.24-1.271-3.427c0.898-0.89,1.93-1.766,2.943-2.615l0.006-0.005l0.004-0.004l0.021-0.02
	c0.404-0.34,0.824-0.694,1.244-1.057c1.156-0.998,2.42-2.094,3.855-3.348l0.609-0.528c3.23,7.314,8.369,13.717,15.621,17.226
	c3.803,1.935,7.947,2.768,12.111,3.148c1.84,2.515,3.834,4.91,6.07,7.092c3.053,2.787,7.002,5.668,11.252,4.802
	c3.941-0.723,7.061-6.237,5.07-9.194c1.908,3.032-1.439,8.414-5.254,8.906c-4.094,0.649-7.871-2.27-10.805-5.146
	c-1.912-1.979-3.619-4.125-5.207-6.365c1.289,0.094,2.574,0.153,3.852,0.189c2.904,0.176,5.809,0.368,8.707,0.739
	c3.107,0.646,4.436,1.037,3.406,2.015c-1.492,0.645-2.906,0.768-4.381,1.001c1.512-0.188,2.898-0.217,4.516-0.871
	c0.096-0.027,0.789-0.391,0.463-1.146c-0.271-0.37-0.496-0.425-0.695-0.538c-0.395-0.167-0.764-0.272-1.137-0.369
	c-0.738-0.196-1.469-0.323-2.203-0.457c-2.93-0.488-5.857-0.804-8.789-1.097c-1.486-0.107-2.963-0.235-4.418-0.417
	c-3.055-4.464-5.637-9.304-8.193-14.136c-3.174-5.731-6.699-11.361-11.039-16.368c0.043-0.137,0.098-0.27,0.137-0.406l0.002-0.007
	l0.002-0.004c0.129-0.46,0.227-0.938,0.309-1.42c2.1,0.472,4.172,1.094,6.189,1.835c6.633,2.638,13.285,5.812,20.393,7.175
	c6.643,1.444,15.541,1.845,19.549-4.07c-4.258,5.782-13.021,4.976-19.6,3.328c-7.088-1.619-13.404-4.996-20.234-7.918
	c-1.975-0.785-4.023-1.462-6.115-1.992c0.029-0.533,0.037-1.062,0.006-1.577c-0.184-2.867-1.172-5.517-2.846-7.712
	c1.691-0.779,3.455-1.408,5.205-1.868c7.758-2.184,15.998-2.448,24.148-2.267c8.203,0.188,16.451-0.117,24.535-1.468
	c7.779-1.506,16.705-3.506,21.592-9.757C176.207,22.775,167.22,24.467,159.384,25.74z M61.205,63.987
	c-2.947,0.981-5.992,1.629-9.055,2.209c1.006-1.002,2.014-1.995,3.029-2.957c4.168-3.918,9.037-7.337,14.262-9.854
	c0.428,0.381,0.848,0.748,1.256,1.104v0.001l0.008,0.006l0.119,0.104l1.885,1.642c0.32,0.279,0.658,0.575,0.99,0.861
	C70.173,60.303,65.787,62.708,61.205,63.987z M97.501,50.899l-0.158,0.139l-1.951,1.699c-1.275,1.114-2.553,2.224-3.836,3.33
	c-0.406,0.352-0.816,0.696-1.227,1.043c-1.359,1.139-2.762,2.32-3.963,3.629l-0.721,0.78l-0.752-0.78
	c-1.197-1.301-2.598-2.479-3.949-3.621c-0.412-0.35-0.83-0.696-1.242-1.051c-1.305-1.125-2.598-2.253-3.896-3.384l-1.889-1.646
	l-0.121-0.105c-1.543-1.341-3.137-2.728-4.424-4.433c-0.861-1.146-1.436-2.265-1.764-3.415c-0.223-0.801-0.346-1.703-0.346-2.55
	c0-0.177,0.006-0.352,0.018-0.521c0.268-4.162,2.959-7.432,7.031-8.537c1.051-0.287,2.174-0.443,3.16-0.443
	c1.49,0,3.08,0.344,4.521,1.015c0.004,0.005,0.01,0.008,0.016,0.011c1.445,0.676,2.736,1.688,3.623,3.022
	c0.883-1.336,2.176-2.347,3.621-3.024c0.006-0.004,0.01-0.007,0.014-0.009c1.441-0.671,3.031-1.015,4.52-1.015
	c0.984,0,2.107,0.156,3.162,0.443c4.068,1.104,6.762,4.375,7.029,8.537c0.012,0.17,0.016,0.343,0.016,0.517
	c0,0.847-0.121,1.754-0.344,2.552c-0.328,1.152-0.902,2.269-1.762,3.417C100.617,48.19,99.033,49.567,97.501,50.899z
	 M107.335,46.578c4.193,4.73,7.713,10.124,10.898,15.63c2.445,4.375,4.969,8.784,7.873,12.903c-3.895-0.57-7.627-1.559-11.027-3.524
	c-6.771-3.77-11.387-10.269-14.08-17.48c1.533-1.341,3.215-2.85,4.662-4.776C106.343,48.419,106.89,47.505,107.335,46.578z"/>
</svg>
