<?xml version="1.0" encoding="utf-8"?>
<!-- Generator: Adobe Illustrator 13.0.0, SVG Export Plug-In  -->
<!DOCTYPE svg PUBLIC "-//W3C//DTD SVG 1.1 Tiny//EN" "http://www.w3.org/Graphics/SVG/1.1/DTD/svg11-tiny.dtd" [
	<!ENTITY ns_flows "http://ns.adobe.com/Flows/1.0/">
]>
<svg version="1.1" baseProfile="tiny"
	 xmlns="http://www.w3.org/2000/svg" xmlns:xlink="http://www.w3.org/1999/xlink" xmlns:a="http://ns.adobe.com/AdobeSVGViewerExtensions/3.0/"
	 x="0px" y="0px" width="51px" height="51px" viewBox="-0.311 -0.042 51 51" xml:space="preserve">
<defs>
</defs>
<g>
	<path d="M50.003,42.117c0,4.358-3.529,7.883-7.879,7.883H7.886C3.527,50,0,46.476,0,42.117V7.88C0,3.534,3.527,0,7.886,0h34.238
		c4.35,0,7.879,3.534,7.879,7.88V42.117z"/>
	<g fill="#FFFFFF">
		<path d="M16.823,22.607c-3.724,1.795-6.038,5.376-6.038,9.789c0,6.126,4.974,11.103,11.11,11.103
			c5.203,0,9.582-3.585,10.785-8.434l1.662,3.893c-2.294,4.73-6.805,7.568-12.414,7.568c-7.829,0-14.171-6.342-14.171-14.15
			c0-6.018,3.744-11.146,9.039-13.208L16.823,22.607z"/>
		<path d="M21.932,28.527l-3.592-0.179V11.532c2.179,1.632,3.757,0.905,3.757,0.905v6.829l8.927-0.018v3.564
			l-8.93,0.018l0.007,2.139l12.383,0.632l5.268,14.049l3.578-1.348l1.01,2.696l-6.91,2.602l-5.524-14.597L21.932,28.527z"/>
		<path d="M25.132,9.153c0,2.28-1.838,4.115-4.109,4.115s-4.112-1.835-4.112-4.115
			c0-2.264,1.841-4.102,4.112-4.102S25.132,6.89,25.132,9.153z"/>
	</g>
</g>
</svg>
