<?xml version="1.0" encoding="utf-8"?>
<!-- Generator: Adobe Illustrator 13.0.2, SVG Export Plug-In  -->
<!DOCTYPE svg PUBLIC "-//W3C//DTD SVG 1.1 Tiny//EN" "http://www.w3.org/Graphics/SVG/1.1/DTD/svg11-tiny.dtd" [
	<!ENTITY ns_flows "http://ns.adobe.com/Flows/1.0/">
]>
<svg version="1.1" baseProfile="tiny"
	 xmlns="http://www.w3.org/2000/svg" xmlns:xlink="http://www.w3.org/1999/xlink" xmlns:a="http://ns.adobe.com/AdobeSVGViewerExtensions/3.0/"
	 x="0px" y="0px" width="144px" height="142px" viewBox="-0.564 -0.493 144 142" xml:space="preserve">
<defs>
</defs>
<path d="M56.996,125.712C35.525,130.294,0,140.905,0,140.905h142.963c0,0-13.071-13.072-26.957-15.523
	c-13.889-2.449-35.129,0-44.114-1.635c-0.046-0.006-0.101-0.014-0.147-0.02c-0.392-10.809-1.621-22.092-4.891-31.395
	c3.101-8.838,7.253-16.627,10.819-24.998c1.121-0.35,0.94-2,1.473-2.939c0.157,1.473-0.354,2.77-0.212,3.887
	c0.616-0.279,0.528-0.15,0.945-0.105c0.105-1.486,0.825-3.664,1.261-5.674c0.16,1.941,0.146,4.602,0.209,6.619
	c0.015,0.469-0.021,1.195,0.421,1.469c0.643-0.896,0.734-2.346,0.946-3.678c0.078,1.523-0.05,3.354,1.052,4.1
	c0.227,0.529,0.202,1.064,0.523,1.68c0.104-0.127,0.182,0.225,0.419-0.104c0.002,0.312-0.01,0.637,0.316,0.627
	c0.303-0.289,0.145-1.043,0.524-1.26c0.039,0.799,0.339,1.342,0.841,1.682c0.34-0.115,0.396-0.514,0.629-0.736
	c0.237,0.201,0.2,0.529,0.632,0.736c0.403-0.904-0.467-1.879-0.314-2.523c0.214,0.486,0.383,1.02,1.051,1.053
	c0.143-0.135,0.104-0.457,0.104-0.736c0.142,0.037,0.2,0.15,0.42,0.105c-0.156-1.418-1.332-2.379-1.574-3.361
	c0.456,0.367,1.155,0.75,1.574,0.842c-0.26-2.023-2.381-3.076-3.361-4.729c0.23,0.057,0.68,0.254,0.736-0.105
	c-0.311-1.094-1.565-1.785-1.892-2.52c0.419,0.139,0.575,0.543,1.155,0.523c-0.263-1.66-2.25-2.156-2.835-3.15
	c0.495,0.346,1.064,0.615,1.889,0.631c-0.319-1.291-1.646-1.574-2.521-2.312c1.881-3.125,3.384-6.631,5.989-9.031
	c0.3-0.889,0.873-1.508,1.262-2.312c-0.002,1.074-0.066,2.332,0.314,2.732c0.48-0.885,0.575-2.156,0.734-3.361
	c0.809-0.592,1.222-1.576,1.996-2.203c-0.089,0.121-0.139,0.279-0.105,0.523c0.851-0.166,1.342-1.248,1.892-1.367
	c-0.562,0.734-1.181,1.412-1.472,2.418c0.117,0.02,0.164,0.115,0.211,0.211c0.791,0.125,1.017-0.875,1.47-0.736
	c-0.361,0.922-1.302,1.75-1.366,2.625c1.158,0.582,1.54-1.039,2.102-1.049c-0.302,0.361-0.635,0.693-0.63,1.363
	c1.02,0.039,1.286-1.232,1.891-1.26c-1.081,1.791-2.705,3.037-3.257,5.355c2.192-0.539,2.812-2.646,4.308-3.885
	c-0.648,1.371-1.624,2.898-1.892,4.516c0.836-0.215,1.015-1.086,1.682-1.469c0.437,0.697-0.87,1.953-0.421,2.73
	c0.444-0.047,0.555-0.43,0.841-0.629c0.165,0.184,0.562,0.139,0.734,0.312c-0.009,0.379-0.162,0.609-0.21,0.947
	c0.469,0.227,1.089-0.779,1.365-0.738c-0.214,0.264-0.507,1.008-0.106,1.262c0.744-0.379,1.006-1.234,1.683-1.682
	c0.188,0.162,0.083,0.615,0.421,0.633c0.311-0.109,0.265-0.574,0.629-0.633c-0.516,1.428-2.285,2.666-1.994,4.205
	c1.746-0.951,2.646-2.748,3.57-4.518c-0.365,1.998-0.938,2.869-1.891,4.727c-0.398,0.773-1.455,2.676-1.05,2.941
	c0.268,0.178,1.303-0.83,1.47-1.053c0.713-0.943,1.127-2.4,1.786-3.254c0.073,1.678-0.184,3.684,0.21,5.039
	c1.039-0.918,0.79-3.578,1.156-4.832c0.565,1.258,0.924,2.719,2.205,3.258c0.52-0.652-0.082-1.125-0.211-1.893
	c0.463,0.346,0.56,1.053,1.26,1.158c0.085-1.174-0.549-1.621-0.734-2.523c0.337,0.096,0.218-0.271,0.421-0.311
	c0.383,0.299,0.546,0.953,1.152,0.732c-0.623-2.816-2.282-4.852-3.779-7.141c1.344,1.064,2.632,2.648,3.779,3.572
	c-0.709-2.764-3.421-4.883-4.83-6.934c2.058,0.988,3.281,2.809,5.253,3.885c0.321-1-0.557-1.17-1.05-1.787
	c-1.465-1.822-3.649-3.588-4.937-4.938c1.771,0.785,2.893,2.217,4.619,3.047c-0.075-0.762-0.763-0.916-1.154-1.363
	c-0.603-1.395-1.95-2.041-2.94-3.047c1.007-0.328,1.711,0.676,2.101,1.578c0.434,0.367,0.748-0.518,1.261-0.105
	c0.269-0.135-0.099-0.518,0.104-0.527c0.394,0.438,1.604-0.154,1.787,0.527c0.387,0.072,0.182-0.451,0.419-0.527
	c-0.062,0.832,0.031,1.51,0.21,2.102c0.308,0.027,0.322-0.24,0.631-0.209c0.707-1.918,0.899-4.352,1.365-6.514
	c0.541,2.408-1.321,5.404-0.105,7.668c1.142-1.49,0.974-4.463,1.995-5.777c0.438,1.908-0.903,4.643,0.42,5.672
	c0.717-0.547,0.668-1.852,1.051-2.73c0.2,1.443-0.444,3.736,0.421,4.516c0.695-0.285,0.53-1.43,0.84-2.102
	c0.272,0.326,0.026,1.164,0.631,1.158c0.636-0.766,0.575-2.227,0.945-3.256c0.359,0.977,0.328,2.438,0.524,3.357
	c0.1,0.467,0.149,1.195,0.633,1.26c0.313-1.293,0.219-2.525,0.628-3.568c0.344,1.398,0.534,2.895,0.84,4.201
	c0.058,0.242-0.221,0.807,0.315,0.842c0.387-0.701,0.3-1.873,0.525-2.734c0.521,0.744,0.95,1.572,1.996,1.787
	c-0.138-1.402-0.74-2.342-1.26-3.359c0.316,0.105,0.186-0.236,0.209-0.42c-0.469-0.373-0.858-0.824-1.26-1.26
	c0.342,0.285,0.896,0.361,1.471,0.418c-0.425-0.979-1.419-1.383-2.206-1.996c0.296-0.283,0.084-0.262,0-0.631
	c-0.806-0.594-1.98-0.82-2.837-1.363c0.729,0.154,1.113,0.146,1.892,0.105c-0.083-0.762-1.023-0.658-1.367-1.158
	c0.245-0.062,0.635-0.207,0.421-0.418c-0.561-0.629-1.269-1.113-2.205-1.365c0.135-0.139,0.135-0.389,0-0.527
	c-0.479-0.326-1.241-0.371-1.365-1.053c0.262,0.018,0.508,0.023,0.525-0.207c-0.701-0.664-1.854-0.877-2.312-1.785
	c0.464-0.051,0.522,0.145,0.84,0c0.196-0.398,0.429-0.713,0.42-1.053c0.827,0.506,1.193,1.471,2.208,1.789
	c0.276-0.076,0.206-0.492,0.419-0.631c-1.153-1.787-3.19-3.254-4.309-4.729c1.642,1.305,3.266,3.176,5.254,3.783
	c0.075-0.467-0.509-0.818-0.316-1.051c0.665,0.387,1.037,1.064,1.892,1.26c-0.165-2.152-2.294-3.461-3.046-4.832
	c1.346,1.035,2.257,2.506,3.887,3.256c-0.021-0.361-0.064-0.748-0.21-1.049c-0.486-0.998-2.723-2.705-1.997-3.574
	c0.165,0.51,0.695,0.629,1.051,0.947c0.765,0.68,1.263,1.721,2.311,2.1c-0.146-1.391-1.42-2.221-1.679-3.148
	c1.368,1.293,2.484,3.393,4.304,3.885c-0.093-1.938-2.139-2.92-2.204-4.199c1.958,0.91,2.512,3.229,4.621,3.99
	c-0.048-0.898-1.042-1.406-1.049-1.996c0.75,0.131,0.928,1.133,1.786,0.842c-0.371-1.174-1.278-1.807-1.786-2.836
	c0.979,0.496,1.575,1.916,2.52,2.098c0.128-0.326-0.021-0.842-0.21-1.154c0.834,0.467,1.372,1.654,2.627,1.365
	c-0.11-0.941-0.664-1.438-1.156-1.994c1.087,0.459,2.302,1.33,3.15,1.68c-0.188-1.537-1.928-2.402-3.045-3.363
	c0.001-0.137,0.184-0.096,0.21-0.211c-1.517-0.512-3.176-0.885-4.308-1.785c-1.412-0.375-2.377-1.197-3.989-1.152
	c-0.629,0.016-1.217,0.293-1.892,0.312c-1.27,0.043-2.497-0.305-3.781-0.207c-1.668,0.125-3.209,0.416-4.727,0.312
	c-1.013-0.863-2.92-0.297-4.203-0.418c1.24-0.688,3.183-0.67,3.887-1.891c-1.079-0.273-2.212,0.24-3.256,0.211
	c1.399-0.758,3.442-0.471,4.201-1.682c-0.082-0.023-0.121-0.088-0.105-0.211c0.049-0.291-0.571,0.082-0.523-0.209
	c0.633,0.016,0.428-0.398,0.523-0.738c-0.412-0.125-0.578,0.111-0.84-0.207c0.923-0.375,2.435-0.158,2.521-1.367
	c-1.211-0.125-2.549,0.262-3.151,0.104c0.799-0.266,1.903-0.602,3.048-0.734c0.89-0.104,2.116,0.199,2.52-0.629
	c-0.528-0.277-1.201-0.408-1.892-0.527c0.723-0.605,2.356-0.303,2.731-1.26c-0.009-0.164-0.27-0.082-0.21-0.312
	c-0.617-0.033-1.087,0.219-1.365,0c0.757-0.26,1.234-0.799,1.787-1.264c-0.608-0.209-1.145,0.344-1.893,0.316
	c0.418-0.711,1.213-1.537,1.26-1.994c-1.507,0.523-2.443,1.617-3.572,2.52c0.414-1.516,1.354-2.5,1.682-4.098
	c-1.492,0.961-2.57,3.242-3.78,4.832c0.08-0.803,0.158-1.523,0.21-2.1c-1.264,0.592-1.496,2.219-2.205,3.359
	c0.15-0.812-0.253-1.076-0.212-1.785c-0.907,0.213-0.926,1.314-1.471,1.893c0.004-0.912,0.066-1.887-0.208-2.521
	c-1.113,0.848-0.766,3.156-1.473,4.41c-0.033-1.469,0.12-3.129-0.735-3.781c-0.634,1.164-0.439,4.035-1.049,5.568
	c-0.185-0.971,0.112-2.322-0.632-2.941c-0.579,0.26-0.549,1.691-1.154,1.576c-0.239-0.562,0.124-1.732-0.524-1.891
	c-0.481,0.533-0.495,1.535-0.841,2.207c-0.103-0.844,0.298-2.188-0.419-2.418c-0.27,0.701-0.771,0.555-1.26,0.945
	c-0.048,0.34,0.137,0.91-0.212,0.945c-0.127-1.525,0.606-3.521-0.209-4.305c-1.124,0.943-0.787,3.348-1.366,4.832
	c-0.395-1.609,0.932-3.719-0.421-4.832c-0.395,0.9-0.401,2.186-1.155,2.73c-0.014-1.08,0.724-3.244-0.209-3.887
	c-0.697,0.705-0.619,2.184-1.051,3.148c-0.755-0.664-0.023-2.227-0.734-2.832c-0.397,0.408-0.412,1.199-0.948,1.471
	c-0.004-1.391,0.165-2.664-0.104-3.994c-1.29,0.389-0.748,2.611-1.365,3.676c-0.246-1.576-1.2-2.994-1.155-4.514
	c-1.207-0.057-1.072-1.447-2.103-1.682c-0.046-0.793-0.076-1.602-0.732-1.785c-0.529,0.818,0.271,2.016-0.315,3.045
	c-1.097-1.035-1.028-3.242-2.521-3.889c-0.057,0.588,0.312,1.297,0,1.787c-0.557-1.369-1.132-2.721-2.311-3.465
	c-0.788,1.445,1.004,2.6,0.628,4.201c-0.26-0.545-0.633-0.98-0.733-1.68c-1.135-0.865-1.783-2.764-3.151-3.047
	c-0.022,0.582,0.368,0.75,0.422,1.26c-0.777-0.771-1.826-1.809-2.837-1.996c-0.318,0.422,0.234,0.697,0.208,1.158
	c-0.735-0.316-1.071-1.033-2.101-1.053c-0.087,0.646,0.422,0.701,0.422,1.26c-0.991-0.523-2.117-1.447-3.362-1.365
	c-0.091,0.582,0.385,0.596,0.421,1.051c-0.096,0.188-0.387,0.174-0.421,0.424c0.727,1.021,1.788,1.713,2.836,2.414
	c-0.839-0.109-1.643-0.057-2.101,0.105c0.315,0.525,0.688,0.99,1.472,1.049c-0.118,0.957,1.495,1,2.309,1.365
	c-0.805-0.105-1.226,0.174-1.68,0.42c-0.109,0.811,0.661,0.744,1.051,1.051c-0.744,0.061-1.833-0.221-1.89,0.525
	c1.078,1.336,4.2,0.631,6.092,1.154c-2.007,0.082-4.281-0.398-5.673,0c-0.137,0.461-0.188,0.529-0.105,1.053
	c1.774,0.5,4.454,0.096,6.197,0.629c-1.231-0.09-2.93-0.438-3.887,0.104c-0.023,0.084-0.002,0.209-0.105,0.211
	c0.04,0.346,0.247,0.527,0.422,0.734c1.33,0.207,4.245,0.375,6.303,0.525c-2.208,0.369-5.462-0.568-7.46-0.209
	c-0.015,0.125,0.02,0.299-0.105,0.316c-0.053,0.65,0.644,0.549,0.841,0.943c-0.409,0.098-0.087,0.529-0.103,0.84
	c0.552,0.357,1.676,0.143,2.206,0.525c-0.243-0.031-0.118,0.305-0.317,0.314c-0.397-0.207-0.955-0.627-1.154-0.209
	c0.433,0.303,0.922,0.547,1.05,1.154c-0.081,0.025-0.122,0.088-0.104,0.213c-0.139,0.012-0.391-0.355-0.42-0.105
	c0.703,0.871,1.436,1.715,2.205,2.52c-1.696-1.279-3.391-2.562-5.986-2.939c1.525,1.799,4.362,2.844,5.462,4.727
	c-1-0.197-1.494-1.254-2.312-1.787c-1.219-0.799-2.672-1.303-4.2-1.469c0.517,1.305,2.995,2.115,3.675,3.256
	c-1.671-0.523-2.931-2.086-4.829-2.73c-0.795-0.27-1.809-0.352-2.839-0.316c0.654,1.037,2.299,1.33,3.362,1.998
	c0.508,0.314,1.021,0.781,1.26,1.154c-1.292-0.994-3.537-2.004-5.671-1.471c0.54,1.068,2.241,0.977,3.149,1.68
	c-1.248-0.395-2.983-1.094-4.095-0.104c0.104,0.561,1.127,0.199,1.26,0.732c-1.368,0.172-2.938,0.143-3.78,0.842
	c1.873,0.27,3.418-0.26,5.355-0.107c-0.711,0.445-1.047,1.266-1.785,1.684c0.459,0.713-0.34,1.211-0.525,1.889
	c0.19-0.635-0.215-0.777,0-1.26c-1.164-0.01-0.607,1.703-1.47,1.996c-0.146,0.973-0.406,1.832-0.735,2.625
	c-0.196-0.803-0.118-2.645-0.84-3.254c0.013,0.184-0.104,0.244-0.317,0.207c-0.089,1.625-0.257,3.172-0.523,4.625
	c-0.54-0.578-0.074-1.207-0.42-1.684c-1.65,0.559-2.995,1.979-4.097,2.73c0.794-1.234,2.256-1.803,2.835-3.254
	c-0.907,0.01-1.933,0.789-2.729,1.26c0.606-0.74,1.571-1.625,1.995-2.205c0.436-0.545,1.566-0.953,1.262-1.893
	c-1.249,0.605-3.093,2-4.098,2.838c1.187-1.545,2.644-2.818,3.781-4.414c-0.14-0.256-0.391,0.117-0.419-0.105
	c0.303-0.221,0.591-0.457,0.63-0.943c-1.534,0.463-2.358,1.635-3.678,2.312c0.935-1.52,2.112-2.793,2.837-4.518
	c-0.988,0.061-1.2,0.902-1.997,1.156c0.443-0.648,0.905-1.08,1.051-1.787c-0.657-0.16-0.771,0.766-1.155,0.527
	c0.519-0.639,1.194-1.119,1.472-1.998c-1.281-0.023-2.442,1.619-3.678,2.312c0.759-1.262,1.92-2.059,2.311-3.361
	c-0.136,0.248-0.566,0.201-0.84,0.312c0.183-0.414,0.768-0.98,0.632-1.365c-1.236,0.621-1.938,1.779-2.942,2.629
	c0.746-1.393,1.908-2.365,2.627-3.783c-0.112-0.25-0.484,0.227-0.631-0.105c0.27-0.252,0.623-0.428,0.631-0.945
	c-0.326-0.137-0.583,0.311-0.736,0c0.527-1.021,1.069-1.674,1.575-2.521c-0.449-0.201-0.973,0.068-1.575,0.211
	c0.171-0.289,0.647-0.689,0.42-1.049c-0.45-0.1-0.762,0.49-0.944,0.312c0.245-1.029,1.38-2.436,0.838-3.254
	c-0.491,0.559-0.775,1.322-1.257,1.889c0.067-0.514,0.016-0.49-0.003-1.049c-0.902-0.119-0.987,1.166-1.365,1.891
	c-0.259-0.336-0.079-1.109-0.629-1.156c-0.421,0.314-0.006,1.539-0.316,2.205c-0.217-0.197-0.119-0.545-0.209-0.629
	c-0.217,0.1-0.291,0.34-0.419,0.523c-0.066-0.457-0.358-0.373-0.736-0.312c-0.065,0.283,0.134,0.832-0.104,0.943
	c-0.162-0.332-0.409-1.004-0.842-0.732c-0.014,0.84,0.298,2.318,0.316,3.254c-0.47-0.439-0.538-1.283-1.262-1.471
	c0.102,1.283,0.692,2.936,1.051,4.309c-0.702-0.49-0.938-1.443-1.89-1.684c-0.025,0.967,0.829,1.881,1.05,2.943
	c-0.277-0.211-0.885-1.109-1.05-0.736c-0.163,0.555,0.325,1.025,0.315,1.68c-0.414-0.188-0.571-0.545-0.946-0.521
	c0.353,1.168,1.216,2.914,1.051,3.883c-1.021-0.588-1.788-1.434-3.047-1.785c-0.741,1.549-2.176,3.277-1.994,6.092
	c-0.509-1.486,0.071-4.182-0.317-6.092c-1.125,0.832-1.349,3.293-1.267,4.783c0.021,0.033,0.027,0.078,0.006,0.154
	c-0.003-0.049-0.004-0.102-0.006-0.154c-0.074-0.119-0.334-0.053-0.31-0.268c0.004-0.809,0.01-1.529-0.103-2.309
	c-0.241-1.646-0.204-3.564-0.946-4.203c-0.861,1.605-0.743,3.26-0.525,5.146c-0.938-1.004-0.978-2.66-1.261-4.094
	c-0.706,0.131-0.617,1.062-0.841,1.68c-0.459-1.326-0.63-2.939-1.469-3.887c-0.309,0.564-0.227,1.525-0.421,2.207
	c-0.283-1.26-0.565-2.518-1.26-3.361c-0.285,0.93-0.078,1.365-0.421,2.207c-0.939-0.57-1.637-1.939-2.625-2.102
	c0.416,0.867,0.943,2.102,0.42,3.361c0.027,0.213,0.465,0.023,0.421,0.314c-0.521,0.373,0.176,1.084,0.628,1.152
	c-0.414-0.014,0.196,0.51,0.107,0.842c0.541,0.545,1.764,0.408,2.1,1.154c-0.902,0.066-1.46-0.172-2.1,0.105
	c-0.184,0.5,0.173,0.514,0,0.947c0.51,0.154,0.895,0.434,1.573,0.418c0,0.209-0.286,0.135-0.208,0.42
	c0.571,0.418,0.907,0.619,1.679,0.947c-0.774,0.342-1.875,0.361-2.311,1.049c1.13,1.232,4.386-0.57,5.777,0.527
	c-0.446-0.062-0.693,0.076-1.051,0.105c-0.257,0.139,0.114,0.391-0.104,0.418c-1.238,0.332-3.065-0.098-3.886,0.842
	c1.317,1.254,4.378,0.154,6.303,0.838c-1.234,0.555-3.774-0.199-4.308,1.053c1.75,0.945,5.592-0.199,6.302,1.787
	c-1.437-0.16-3.802-0.389-4.307,0.734c1.162,1.041,4.508-0.098,5.356,1.26c-1.407,0.062-3.194-0.254-3.781,0.631
	c-0.042,0.254,0.193,0.227,0.105,0.527c0.344,0.281,1.168,0.092,1.575,0.311c-0.97,0.408-1.487,0.293-2.52,0.422
	c0.023,0.197-0.119,0.23-0.104,0.422c0.32,0.451,1.253,0.842,1.26,1.26c-1.61-0.758-3.581-1.523-5.568-1.576
	c-0.195,0.023,0.062,0.174-0.104,0.211c-2.026-0.402-4.146-0.791-5.567,0.416c1.051,0.889,3.618,0.305,4.832,1.264
	c-1.882-0.451-4.473-0.5-5.67,0.945c-0.521,0.111-1.063,0.199-1.367,0.525c0.214,0.457,0.693,0.438,1.261,0.312
	c-0.819,1.035-2.599,1.115-3.361,2.207c0.535,0.113,1.251-0.305,1.892-0.422c-0.82,0.932-2.347,1.158-2.942,2.314
	c0.671,0.102,0.895-0.459,1.681-0.422c-0.41,0.537-0.854,1.039-1.155,1.68c1.89-0.424,3.335-2.756,5.147-3.256
	c-0.914,1.572-2.398,2.576-2.73,4.727c2.097-1.051,3.109-3.75,4.936-4.727c-0.776,1.121-1.898,2.629-1.89,3.885
	c2.436-1.727,3.672-4.656,6.407-6.09c-1.676,1.584-3.464,3.607-4.099,5.885c2.078-1.672,3.514-3.984,6.094-5.15
	c-1.132,1.252-2.511,2.814-2.731,4.623c1.099-0.492,2.289-2.322,3.257-2.941c-0.642,0.76-1.312,1.494-1.575,2.629
	c1.406-0.533,2.254-1.773,3.358-2.629c0.825-0.639,1.689-1.139,2.629-1.682c-1.08,1.477-2.662,2.453-3.362,4.311
	c1.39-0.697,2.519-2.033,3.888-2.943c0.871-0.58,2.036-1.459,3.257-1.156c-1.74,0.959-3.241,2.154-4.414,3.678
	c1.848-0.324,3.728-1.992,5.568-2.312c-1.451,0.662-2.569,1.424-3.677,2.312c-0.564,0.451-1.243,1.092-1.472,1.785
	c1.949-0.361,3.122-2.061,4.938-2.205c-0.766,0.535-1.845,1.18-1.786,2.205c0.964,0.123,1.334-0.348,1.996-0.523
	c0.431,0.301,0.816,0.65,1.261,0.941c-0.355,0.031-0.646,0.129-0.632,0.527c0.347,0.283,0.733,0.527,1.051,0.84
	c-1.462,0.088-3.626-0.422-5.567-0.105c-1.074,0.178-2.424,0.299-2.939,0.947c0.377,0.473,1.204,0.127,1.364,0.627
	c-0.803,0.256-1.525,0.076-1.996,0.527c0.109,0.592,1.197,0.203,1.47,0.631c-0.627,0.178-1.501,0.109-1.679,0.734
	c1.013,0.348,1.9,0.395,3.151,0.631c-2.703,0.061-5.354-0.674-7.459,0.316c2.828,1.27,6.208,0.934,9.664,1.574
	c-2.74-0.012-4.886-0.18-7.562,0.418c-0.088,1,1.511,0.311,1.89,0.842c-1.082,0.182-2.878,0.074-2.939,0.945
	c2.345,0.537,5.332,0.516,7.877,0.314c-0.125,0.262-0.36,0.412-0.63,0.523c-2.763,0.109-7.249-0.355-9.56,0.842
	c0.697,0.986,1.845,0.307,2.941,0.84c-0.727,0.15-1.704,0.045-2.101,0.525c0.189,0.408,0.979,0.215,1.26,0.527
	c-0.813,0.299-1.835,0.23-2.101,0.838c0.41,0.398,1.504,0.109,1.995,0.422c-0.846,0.236-2.129,0.039-2.413,0.842
	c0.493,0.453,1.871,0.207,2.311,0.418c-0.634,0.385-1.672,0.361-1.997,1.049c0.901,0.369,2.72-0.16,3.677,0.105
	c-1.187,0.789-3.275,0.369-3.572,2.207c0.747-0.117,1.165,0.059,1.682-0.209c-0.57,0.617-1.279,1.1-1.786,1.783
	c0.489,0.588,1.012-0.404,1.365-0.209c-0.444,0.631-0.997,1.537-1.255,2.26c-0.467,0.297-0.963,0.564-1.476,0.807
	c0.114,0.303,0.526,0.039,0.756,0.123c-1.116,1.402-2.433,2.699-3.955,3.883c0.292,0.365,0.644-0.299,0.934-0.221
	c-1.476,1.102-2.336,2.529-2.794,4.164c0.435-0.062,0.381-0.385,0.703-0.506c-0.031,0.404-0.315,0.674-0.219,1.145
	c0.399-0.119,0.404-0.734,0.795-0.674c-0.351,0.295-0.494,0.971-0.29,1.377c0.431-0.674,1.125-1.707,2.202-1.684
	c-0.714,1.52-1.601,2.947-1.317,4.998c0.216,0.039,0.435,0.074,0.625,0.16c0.421-0.178,0.549-0.803,0.797-0.893
	c0.174,0.287,0.014,0.584,0.225,0.719c0.39-0.158,0.267-0.59,0.451-0.855c0.163,0.158,0.183,0.02,0.411-0.057
	c0.173-1.559,0.84-3.117,1.731-4.121c-0.412,1.043-1.233,1.867-1.255,3.111c0.323,0.023,0.385-0.375,0.567-0.246
	c0.069,0.428-0.274,0.877,0.149,1.174c-0.184,0.523-0.34,1.059-0.336,1.68c0.579-0.131,0.54-0.881,0.926-0.934
	c-0.119,0.521-0.298,1.014-0.464,1.508c0.175,0.137,0.224-0.061,0.367,0.029c-0.026,0.752-0.273,1.91,0.142,2.535
	c0.333,0.043,0.146-0.467,0.333-0.318c-0.244,1.059-0.336,2.486,0.331,3.842c0.41-0.133,0.208-0.586,0.385-0.836
	c0.505-0.072,0.66-0.779,0.764-1.24c0.13,0.062,0.211,0.223,0.452,0.072c-0.056-0.357,0.044-0.631-0.022-0.996
	c0.214-0.129,0.159-0.059,0.373-0.188c-0.29-0.955,0.349-1.422,0.221-2.289c0.111,0.055,0.266,0.006,0.325-0.102
	c0.397-1.508,0.979-2.916,1.863-4.162c-0.071,0.68-0.167,1.613,0.146,2.32c0.384-0.074,0.302-0.678,0.599-0.617
	c0.081,0.432,0.11,1.043,0.584,0.965c-0.126,0.227,0.072,0.621,0.069,0.91c0.058,0.129,0.263-0.012,0.322,0.115
	c0.007,1.123,0.438,2.225,1.018,3.055c0.168-1.023,0.483-1.971,0.478-3.086c0.18,0.098,0.209-0.072,0.306-0.168
	c-0.556-1.664,0.479-2.227,0.914-3.297c0.076,0.205,0.166,0.377,0.383,0.312c0.196-0.096-0.011-0.404,0.12-0.535
	c0.033,0.174,0.156,0.184,0.322,0.111c0.023-1.412-0.638-3.178-0.128-4.332c0.32,0.736,0.662,1.283,0.933,2.074
	c0.364,1.07,0.084,2.25,0.581,3.26c0.354,0.721,0.838,1.107,0.981,1.777c0.094,0.43-0.064,0.932,0.033,1.496
	c0.147,0.857,0.824,1.615,1.205,2.49c0.556,1.283,0.607,2.898,0.946,4.438c0.525,2.393,1.692,4.816,2.131,6.867
	c0.298,1.396,0.257,3.123,0.449,4.449c0.214,1.477,1.291,1.816,1.733,3.045c0.322,0.898,0.062,1.914,0.376,2.822
	c0.237,0.701,0.607,1.309,0.908,2.014c0.291,0.678,0.507,1.398,0.713,2.127c-0.118,2.373-0.301,4.77-0.66,7.061
	C57.206,122.876,57.082,124.255,56.996,125.712z M109.186,39.921c0.1,0.846,0.312,1.576,0.312,2.52
	C108.762,41.872,108.898,40.95,109.186,39.921z M109.186,22.589c-0.128,0.223-0.633,0.066-0.736,0.316
	C108.15,22.665,108.862,22.554,109.186,22.589z M108.134,22.8c0.108,0.148-0.678,0.299-1.051,0.316
	C107.293,22.866,107.814,22.935,108.134,22.8z M105.823,37.608c0.481,0.359,0.397,1.283,0.63,1.893
	c-0.169,0.125-0.634-0.342-0.84-0.527C105.689,38.714,105.753,38.151,105.823,37.608z M104.458,35.507
	c0.205,0.691-0.156,2.027-0.21,2.207C104.131,38.116,104.218,35.843,104.458,35.507z M102.987,34.04
	c-0.056,0.957-0.386,1.645-0.315,2.73C102.298,36.202,102.659,34.597,102.987,34.04z M102.146,39.501
	c0.351,0.734,1.624,0.545,1.68,1.574c-0.77-0.246-1.135-0.895-1.89-1.154C101.86,39.636,102.146,39.708,102.146,39.501z
	 M100.466,16.495C100.805,17.558,100.101,17.788,100.466,16.495L100.466,16.495z M98.893,39.606c0.24,0.494-0.852,1.361-1.157,1.994
	C97.805,41.04,98.59,40.286,98.893,39.606z M92.378,40.128c-0.025,0.436-0.752,1.07-1.052,1.576
	C91.209,41.53,92.016,40.519,92.378,40.128z M80.508,11.245c-0.042-0.223,1.207-0.049,1.681-0.105
	C82.232,11.364,80.981,11.188,80.508,11.245z M48.053,26.79c-0.212,0-0.421,0-0.631,0c-0.027-0.832,0.089-1.053,0.104-1.682
	c0.267,0.334,0.565,0.629,0.946,0.844C48.313,26.212,48.146,26.464,48.053,26.79z M49.103,27.421c0-0.246,0-0.49,0-0.734
	c0.497,0.061,0.718,0.404,1.052,0.629C49.83,27.771,49.6,27.563,49.103,27.421z M49.522,25.425
	c-0.125-0.189,0.123-0.648-0.208-0.842c-0.361-0.043-0.317,0.316-0.527,0.42c-0.474-0.156-0.596-0.227-1.155-0.42
	c0.087-0.609,0.175-1.223,0.315-1.783c0.759,1.201,1.871,2.051,2.731,3.152C50.234,25.833,50.076,25.431,49.522,25.425z
	 M50.469,30.468c0.04-0.494,0.521,0.102,0.736,0.105C51.023,30.88,50.821,30.333,50.469,30.468z M66.959,114.919
	c0.301,2.98,0.19,5.996-0.006,9c-0.787,0.102-1.64,0.227-2.551,0.375c-0.205-0.756-0.384-1.506-0.541-2.178
	c-0.08-0.092-0.314,0.115-0.323-0.115c-0.134-0.742-0.194-1.559-0.297-2.346c-0.145-1.102-0.043-2.303-0.7-2.719
	c-0.15,0.246,0.02,0.664-0.149,0.904c-0.111-0.354-0.22-0.701-0.321-1.057c0.026-0.549,0.025-1.102-0.047-1.658
	c-0.452-3.406,0.09-6.803,0.524-9.559c0.49-3.121,0.862-6.037,2.311-8.086C66.239,102.71,66.358,109.009,66.959,114.919z
	 M75.15,50.739c0.278-0.121,1.646,0.445,2.313,0.629C76.896,51.749,75.878,50.888,75.15,50.739z M78.197,51.894
	c0.086-0.387,0.435-0.084,0.632,0C78.743,52.282,78.396,51.979,78.197,51.894z M77.568,44.228c0.061,0.346,0.396,0.15,0.629,0.105
	c-0.554,0.777-1.234,1.424-1.574,2.414c0.863,0.023,1.517-1.072,2.311-1.471c-0.877,1.293-2.063,2.279-2.417,4.098
	c1.018-0.35,1.413-1.322,2.207-1.889c-0.253,0.936-0.672,1.705-0.946,2.623c-1.926-0.875-4.059-1.543-6.721-1.682
	c1.289-0.396,2.731,0.244,4.199,0.213c-1.332-1.262-3.793-1.389-5.775-1.994c-0.549-0.572-1.224-1.021-1.892-1.475
	c1.702,0.365,3.314,1.73,5.253,2.207c0.295-0.814-0.775-1.568-1.366-1.996c-0.848-0.615-1.985-1.072-2.94-1.68
	c2.042,0,3.146,1.473,5.043,1.785c0.244-1.029-1.264-1.178-1.473-2.104c1.642,0.533,2.819,1.523,4.518,1.998
	c-0.153-1.248-1.502-1.297-1.994-2.203c-0.855-0.268-1.271-0.975-2.103-1.26c0.859,0.049,1.745,0.982,3.046,0.943
	c0.065-0.072-0.138-0.77-0.526-0.738c0.588-0.021,1.173,0.348,1.892,0.633c-0.529-1.398-2.408-2.352-3.781-3.256
	c1.967,0.381,3.863,1.74,5.882,2.418c0.022-1.076-1.491-1.52-2.205-2.207c0.426-0.119,0.804,0.098,1.262,0.209
	c0.014-0.914-1.054-1.131-1.578-1.469c-0.589-0.385-1.154-0.953-1.888-1.055c1.77,0.234,3.33,1.643,5.144,2.418
	c-0.084,0.373-0.552,0.355-0.521,0.84c0.668,0.428,1.387-0.781,1.992-0.105C79.936,41.694,78.383,42.589,77.568,44.228z
	 M67.589,30.991c0.562-0.385,1.361-0.527,2.207-0.629C69.649,31.333,68.192,30.683,67.589,30.991z M72.316,29.837
	c0.139,0,0.282,0,0.421,0c-0.13,0.219-0.293,0.41-0.421,0.631C72.084,30.714,72.421,30.118,72.316,29.837z M70.635,27.735
	c0.117-0.408,1.069-0.889,1.682-1.156C71.962,27.14,71.111,27.636,70.635,27.735z M72.737,29.415
	c0.013-0.371,0.415-0.352,0.63-0.523C73.28,29.188,73.073,29.368,72.737,29.415z M80.929,36.665
	c-1.062-0.48-1.645-1.438-2.521-2.102c1.104,0.016,2.287,0.863,3.257,1.365C81.609,36.364,80.951,36.198,80.929,36.665z
	 M82.401,36.771c0.245,0.256-0.66,0.684-0.947,0.422C81.475,36.753,82.219,37.044,82.401,36.771z M80.824,37.819
	c-1.163,0.336-2.211-1.207-3.36-1.576C78.466,36.468,79.665,37.401,80.824,37.819z M81.875,50.739
	c-0.129,0.893-1.074,1.547-1.154,2.309c-0.533-0.301-1.256-0.248-0.948-1.154c0.39-0.074,0.45,0.178,0.841,0.105
	c0.188-0.262-0.416-0.631-0.63-0.842c0.012-0.617,0.191-1.068,0.316-1.574c0.231,0.016,0.044,0.447,0.104,0.631
	c1.05-0.072,0.85-1.391,1.051-2.311C81.469,48.632,82.003,49.843,81.875,50.739z M81.562,40.128
	c0.318-0.309,0.805-0.451,1.364-0.521C82.783,40.04,81.901,40.563,81.562,40.128z M82.504,49.478
	c0.436-0.965,0.137-2.664,0.736-3.467C83.467,47.159,83.526,48.849,82.504,49.478z M82.608,35.401
	c0.012-0.467,0.712-0.357,0.947-0.312C83.35,35.304,83.027,35.401,82.608,35.401z M82.504,32.987
	c0.029-0.217,0.392-0.098,0.422-0.314c0.231,0.117,0.283,0.418,0.523,0.525c0.436-0.057,0.827-0.156,1.261-0.211
	c-0.241,0.352-0.873,0.318-1.154,0.631C83.114,33.497,82.874,33.177,82.504,32.987z M83.976,28.47
	c0.367,0.242-0.33,0.291-0.314,0.527C83.273,28.735,83.915,28.634,83.976,28.47z M84.501,46.646
	c-0.271-2.322,0.143-4.805,0.734-6.83C84.979,41.704,86.163,45.454,84.501,46.646z M85.655,27.212
	c0.028,0.482-1.029,0.789-1.364,1.258C84.199,27.923,85.19,27.55,85.655,27.212z M85.972,29.521
	c-0.46,0.555-1.167,0.865-1.681,1.365C84.368,30.37,85.342,29.839,85.972,29.521z M84.081,26.267
	c-1.06,0.725-1.955,1.615-3.152,2.203c0.38-0.496,0.725-1.025,0.841-1.783C82.45,26.839,83.295,26.55,84.081,26.267z M82.294,19.333
	c-0.25,0.207-0.727-0.246-0.84-0.525C81.907,18.812,81.842,19.331,82.294,19.333z M81.562,20.804
	c-0.316,0.203-0.538-0.582-0.948-0.631C80.784,19.735,81.216,20.728,81.562,20.804z M82.294,34.247
	c-0.102,0.143-0.279,0.211-0.419,0.316c-0.617-0.084-0.761-0.639-1.367-0.734C81.078,33.28,81.711,34.146,82.294,34.247z
	 M79.983,24.688c-0.142,0.328-1.066,1.297-1.681,1.158C78.771,25.37,79.482,25.132,79.983,24.688z M78.305,26.579
	c0.461-0.068,1.2-0.189,1.679-0.525c-0.252,0.59-1.464,1.129-2.101,1.682C77.952,27.28,78.348,27.153,78.305,26.579z M77.673,26.054
	c-0.332,1-1.613,1.961-2.101,3.154C75.389,27.692,76.585,26.649,77.673,26.054z M72.737,26.267c1.235-0.312,2.473-0.68,3.465-1.473
	c-0.739,1.326-2.557,2.482-3.57,3.889C72.468,27.88,72.812,26.987,72.737,26.267z M70.216,26.054
	c0.579-0.609,1.059-1.318,2.311-1.26C71.927,25.382,71.128,25.776,70.216,26.054z M72.316,22.169
	c0.356,0.262-0.362,0.332-0.42,0.525C71.577,22.468,72.297,22.403,72.316,22.169z M69.164,24.06c0.728-0.463,1.624-0.76,2.312-1.26
	c0.217-0.117,0.224-0.115,0.104,0.105c-0.297,0.158-0.446,0.461-0.839,0.523c-0.475,0.332-0.785,0.824-1.366,1.049
	c0.006,0.182-0.078,0.273-0.211,0.316c-0.007,0.531-0.132,0.555-0.314,1.053C68.544,25.257,69.283,24.81,69.164,24.06z
	 M70.635,28.366c-0.406,1.457-2.248,0.805-3.466,1.258C68.056,28.938,69.281,28.587,70.635,28.366z M61.708,31.833
	c0.205,0.145,0.128,0.891,0,1.049C61.32,32.665,61.562,32.108,61.708,31.833z M61.603,52.839c0.302,1.135-0.211,3.082,0.734,3.572
	c0.588-0.322,0.675-1.145,0.736-1.996c0.149,0.938-0.126,2.645,0.313,3.572c1.373-0.984,1.05-4.076,1.683-5.465
	c-0.089,1.629-0.295,5.02-0.211,7.355c0.839,0.053,1.112-0.986,1.261-1.576c0.62-2.467,0.445-6.23,1.26-8.613
	c-0.115,3.195-1.381,6.68-0.42,9.979c0.403-0.135,0.542-0.637,0.63-0.947c0.614-2.125,0.692-4.871,1.261-7.141
	c0.156,2.73-0.826,6.221-0.21,8.822c1.343-0.957,0.868-4.053,1.89-5.566c-0.066,2.125-0.344,3.311,0,5.359
	c1.239-1.041,0.955-3.6,1.787-5.045c-0.215,2.15-1.214,5.176-0.42,7.143c1.13-1.285,1.247-3.582,1.786-5.459
	c0.32,2.141-1.071,4.801-0.631,6.406c1.385-0.438,1.7-1.939,1.891-3.572c0.244,1.264-0.352,3.057,0.42,3.889
	c0.89-1.039,1.041-2.812,1.365-4.414c0.278,2.285-0.947,3.99-1.577,5.779c-0.364,1.045-0.569,2.197-0.943,3.148
	c-0.134,0.338-0.501,0.617-0.629,0.947c-0.348,0.877-0.482,1.746-0.841,2.625c-0.977,2.381-1.832,4.707-3.153,6.934
	c-1.722,2.908-3.12,5.941-4.2,9.244c-0.009-0.266-0.538-0.92-0.105-0.945c-0.504-0.779-0.688-1.775-0.841-2.732
	c-0.301-1.883-0.629-3.777-0.95-5.729c0.467,0.057,0.941,0.051,1.416-0.062c-0.108-0.381-0.396-0.428-0.526-0.77
	c0.579-0.193,0.868,0.15,1.43-0.012c0.017-0.344-0.423-0.443-0.545-0.836c0.154-0.027,0.239-0.094,0.221-0.211
	c-0.847-1.029-1.74-1.971-2.718-2.758c-0.055-0.396-0.108-0.803-0.162-1.205c1.048,0.287,2.271,0.242,3.41,0.357
	c-0.033-0.316-0.224-0.338-0.313-0.549c0.691,0.215,1.314,0.549,2.245,0.309c0.033-0.217-0.281-0.279-0.121-0.395
	C68,72.3,68.308,72.37,68.433,72.163c-0.65-0.979-1.601-1.396-2.518-1.869c0.308-0.275,0.628,0.051,0.996-0.021
	c-0.499-0.85-1.275-1.178-1.866-1.859c-0.003-0.111,0.189-0.117,0.051-0.301c-0.712-0.555-1.422-1.113-2.198-1.541
	c0.176-0.035,0.332-0.078,0.2-0.275c-0.312-0.307-0.807-0.273-1.159-0.504c0.188-0.066,0.44-0.096,0.502-0.227
	c-0.173-0.115-0.369-0.191-0.575-0.248C61.492,60.872,60.665,57.132,61.603,52.839z M60.867,33.093c0,0.174,0,0.35,0,0.525
	C60.566,33.56,60.438,33.122,60.867,33.093z M37.982,70.444c0.53-0.824,0.891-1.865,1.562-2.162
	c-0.111,0.355-0.259,0.678-0.35,1.053C38.838,69.733,38.429,70.103,37.982,70.444z M43.369,65.888
	c0.206-0.385,0.428-0.75,0.69-1.072c-0.023,0.369-0.086,0.697-0.143,0.996c-0.089-0.031-0.178-0.062-0.275-0.074
	C43.765,66.149,43.595,66.056,43.369,65.888z M50.059,65.396c-0.216,0.068-0.292,0.213-0.569,0.248
	c-0.077-0.27,0.326-0.486,0.079-0.672c-0.316-0.035-0.604,0.359-1.004,0.455c-0.062-0.242,0.01-0.275-0.145-0.457
	c-0.346,0.109-0.425,0.361-0.703,0.508c0.054-0.139,0.106-0.275-0.011-0.502c-0.755,0.422-1.753,0.85-2.756,1.287
	c-0.05-0.01-0.094-0.033-0.143-0.047c0.9-1.562,1.464-3.455,2.614-4.762c-0.484,1.146-1.135,2.559-0.735,3.783
	c0.954-0.975,1.469-2.385,2.206-3.574c-0.13,0.633-0.385,1.238,0,1.785c1.298-0.979,1.568-2.98,2.627-4.197
	c-0.178,0.695-0.438,1.309-0.422,2.203c1.643-1.09,2.196-3.828,3.361-5.043c-0.264,0.744-0.465,1.254-0.419,2.102
	c0.319-0.078,0.308,0.178,0.63,0.104c0.387-0.908,0.915-1.674,1.47-2.416c0.163,0.375-0.06,0.75,0.106,1.264
	c1.273-1.072,1.433-3.26,2.52-4.52c0.138,4.006,0.394,8.141,0.758,12.309c-0.161,0.006-0.321,0.006-0.475,0.002
	c0.202-0.07,0.374-0.162,0.31-0.381c-0.956-0.885-2.788-0.104-4.018-0.473c-0.003-0.201-0.145-0.141-0.167-0.307
	c-1.025,0.066-1.923-0.051-2.908,0.328C51.522,64.71,50.985,65.583,50.059,65.396z M57.013,99.581
	c-0.011-0.191-0.295,0.145-0.304-0.051c-0.092-1.449-0.689-2.736-1.106-4.029c-0.44-1.361-0.156-2.904-0.604-4.256
	c-0.197-0.17-0.219,0.303-0.308,0.168c-0.14-0.418,0.081-1.631-0.544-1.984c0.175-0.848-0.337-1.83-0.438-2.803
	c-0.03-0.287,0.068-0.588,0.017-0.863c-0.131-0.711-0.518-1.018-0.728-1.426c-0.639-1.24-0.432-2.861-1.218-3.92
	c0.146-0.322,0.212-0.193,0.523-0.164c0.024-0.254-0.169-0.283-0.077-0.477c1.184,0.697,1.927,2.229,3.485,2.217
	c0.141-0.152-0.112-0.395,0.098-0.607c-0.196-0.344-0.745-1.051-0.571-1.613c-0.326-0.225-0.482-0.406-0.612-0.812
	c0.23,0.014,0.414,0.111,0.669,0.078c0.06-0.24-0.312-0.4-0.417-0.656c0.157,0.002,0.31,0.24,0.432,0.006
	c-0.589-0.717-1.565-1.506-2.425-2.043c0.148-0.299-0.104-0.408-0.271-0.631c0.365,0.068,0.597,0.391,0.897,0.58
	c0.278-0.291,0.55-0.029,0.711,0.209c0.543-0.34,0.82,0.355,1.29,0.461c0.474-0.422,0.689,0.434,1.147,0.002
	c0.239,0.234,0.605,0.234,0.857,0.451c1.134-0.361,2.219,0.746,3.414,0.303c0.706,5.102,1.565,10.105,2.56,14.826
	c-2.069,3.973-3.137,8.605-4.094,13.23c-0.086,0.412-0.174,0.816-0.267,1.219c-0.123-0.412-0.241-0.822-0.344-1.227
	c-0.227-0.895-0.144-1.889-0.397-2.672C58.001,101.897,57.607,100.708,57.013,99.581z"/>
</svg>
