<?xml version="1.0" encoding="utf-8"?>
<!-- Generator: Adobe Illustrator 13.0.2, SVG Export Plug-In  -->
<!DOCTYPE svg PUBLIC "-//W3C//DTD SVG 1.1 Tiny//EN" "http://www.w3.org/Graphics/SVG/1.1/DTD/svg11-tiny.dtd" [
	<!ENTITY ns_flows "http://ns.adobe.com/Flows/1.0/">
]>
<svg version="1.1" baseProfile="tiny"
	 xmlns="http://www.w3.org/2000/svg" xmlns:xlink="http://www.w3.org/1999/xlink" xmlns:a="http://ns.adobe.com/AdobeSVGViewerExtensions/3.0/"
	 x="0px" y="0px" width="108px" height="109px" viewBox="-0.062 -0.908 108 109" xml:space="preserve">
<defs>
</defs>
<path fill-rule="evenodd" d="M102.356,0c0.104,0.104,0.211,0.207,0.316,0.314c-0.104,0.104-0.207,0.211-0.309,0.316
	C102.026,0.426,102.024,0.215,102.356,0z"/>
<path fill-rule="evenodd" d="M105.659,6.191c0.105,0.105,0.213,0.211,0.318,0.312c-0.105,0.107-0.211,0.213-0.311,0.318
	C105.328,6.617,105.328,6.406,105.659,6.191z"/>
<path fill-rule="evenodd" d="M96.243,3.225c0.104,0.104,0.211,0.209,0.318,0.311c-0.104,0.107-0.207,0.215-0.314,0.32
	C95.911,3.646,95.909,3.438,96.243,3.225z"/>
<path fill-rule="evenodd" d="M100.1,9.805c-0.412,0.59-0.836,0.596-1.264,0.012C98.719,8.881,100.197,8.863,100.1,9.805z"/>
<path fill-rule="evenodd" d="M103.168,16.078c-0.287,0.342-0.573,0.281-0.869-0.07c0.034-0.105,0.068-0.211-0.003-0.314
	C102.659,15.021,103.459,15.607,103.168,16.078z"/>
<path fill-rule="evenodd" d="M86.903,0.332c0.107,0.105,0.212,0.209,0.32,0.314c-0.105,0.105-0.209,0.211-0.312,0.316
	C86.575,0.758,86.575,0.549,86.903,0.332z"/>
<path fill-rule="evenodd" d="M89.5,6.771c0.176-0.73,1.069-0.74,1.261-0.018C90.586,7.482,89.692,7.494,89.5,6.771z"/>
<path fill-rule="evenodd" d="M105.991,21.645c0.107,0.104,0.217,0.209,0.319,0.309c-0.103,0.107-0.209,0.215-0.315,0.32
	C105.663,22.07,105.661,21.857,105.991,21.645z"/>
<path fill-rule="evenodd" d="M93.738,11.846c0.675,0.285,1.025,0.928,0.725,1.492c-0.89,1.678-3.392-0.141-1.75-1.4
	C92.889,11.801,93.186,11.615,93.738,11.846z"/>
<path fill-rule="evenodd" d="M96.961,17.961c0.673,0.285,1.025,0.928,0.729,1.49c-0.895,1.678-3.395-0.139-1.754-1.4
	C96.112,17.916,96.415,17.729,96.961,17.961z"/>
<path fill-rule="evenodd" d="M80.79,3.557c0.955,0.125-0.309,1.242-0.392,0.242C80.531,3.678,80.658,3.455,80.79,3.557z"/>
<path fill-rule="evenodd" d="M84.244,9.115c0.235-0.121,0.478,0.406,0.712,0.543c0.367,1.543-2.217,1.572-1.889,0.023
	C83.457,9.197,83.845,8.912,84.244,9.115z"/>
<path fill-rule="evenodd" d="M99.952,24.473c0.609,0.197,0.752,0.727,0.407,1.178C99.184,27.189,98.23,23.912,99.952,24.473z"/>
<path fill-rule="evenodd" d="M87.934,14.752c1.615,0.932,0.664,3.082-0.755,3.004C84.71,17.623,85.677,13.447,87.934,14.752z"/>
<path fill-rule="evenodd" d="M103.42,31.607c-0.283,0.342-0.573,0.281-0.865-0.068c0.034-0.105,0.068-0.211-0.005-0.314
	C102.911,30.555,103.715,31.139,103.42,31.607z"/>
<path fill-rule="evenodd" d="M71.373,0.588c0.106,0.104,0.212,0.209,0.32,0.312c-0.105,0.105-0.208,0.215-0.312,0.318
	C71.043,1.012,71.042,0.801,71.373,0.588z"/>
<path fill-rule="evenodd" d="M91.395,20.941c1.924,1.418-0.498,4.213-2.18,2.707C87.797,22.375,89.382,19.459,91.395,20.941z"/>
<path fill-rule="evenodd" d="M75.234,7.168c-0.413,0.59-0.837,0.596-1.264,0.014C73.852,6.244,75.331,6.229,75.234,7.168z"/>
<path fill-rule="evenodd" d="M106.245,37.176c0.106,0.102,0.213,0.209,0.318,0.311c-0.103,0.105-0.206,0.213-0.31,0.32
	C105.917,37.598,105.917,37.389,106.245,37.176z"/>
<path fill-rule="evenodd" d="M94.225,27.139c0.798,0.426,1.145,1.34,0.654,2.043c-1.205,1.727-4.054-0.189-2.229-1.867
	C93.042,26.953,93.503,26.754,94.225,27.139z"/>
<path fill-rule="evenodd" d="M78.6,12.174c1.557,1.191-0.706,3.045-1.796,1.836C75.92,13.018,77.193,11.098,78.6,12.174z"/>
<path fill-rule="evenodd" d="M82.055,17.734c2.404,1.459-0.186,4.525-2.017,3.178C78.399,19.703,79.805,16.373,82.055,17.734z"/>
<path fill-rule="evenodd" d="M97.292,33.57c0.915,0.467,0.841,1.146,0.413,1.65c-0.943,1.121-2.736-0.229-1.748-1.398
	C96.346,33.359,96.743,33.287,97.292,33.57z"/>
<path fill-rule="evenodd" d="M65.258,3.811c0.956,0.125-0.309,1.242-0.391,0.242C64.997,3.934,65.127,3.711,65.258,3.811z"/>
<path fill-rule="evenodd" d="M85.434,23.691c2.777,1.838-0.485,5.441-2.643,3.498C80.926,25.508,83.173,22.193,85.434,23.691z"/>
<path fill-rule="evenodd" d="M100.442,40.08c0.483,0.221,0.682,0.645,0.328,1.1C99.551,42.752,98.684,39.273,100.442,40.08z"/>
<path fill-rule="evenodd" d="M68.711,9.371c0.236-0.121,0.478,0.406,0.716,0.541c0.364,1.543-2.22,1.572-1.894,0.023
	C67.925,9.449,68.314,9.168,68.711,9.371z"/>
<path fill-rule="evenodd" d="M88.342,29.807c2.767,1.385,0.123,4.826-1.773,3.727C84.165,32.141,86.196,28.619,88.342,29.807z"/>
<path fill-rule="evenodd" d="M72.325,14.928c0.906,0.463,1.338,1.352,0.891,2.117c-1.404,2.422-4.777-0.625-2.232-2.18
	C71.248,14.699,71.769,14.645,72.325,14.928z"/>
<path fill-rule="evenodd" d="M103.676,47.139c-0.285,0.342-0.575,0.281-0.869-0.068c0.033-0.105,0.072-0.213-0.004-0.314
	C103.168,46.088,103.966,46.67,103.676,47.139z"/>
<path fill-rule="evenodd" d="M55.842,0.842c0.104,0.104,0.211,0.207,0.317,0.312c-0.103,0.105-0.206,0.211-0.312,0.318
	C55.515,1.266,55.51,1.057,55.842,0.842z"/>
<path fill-rule="evenodd" d="M76.254,20.955c1.664,1.4,0.129,4.533-2.086,3.73C71.073,23.562,73.473,18.611,76.254,20.955z"/>
<path fill-rule="evenodd" d="M91.729,36.393c1.923,1.418-0.496,4.211-2.18,2.705C88.131,37.826,89.717,34.91,91.729,36.393z"/>
<path fill-rule="evenodd" d="M106.5,52.705c0.105,0.105,0.213,0.209,0.318,0.314c-0.105,0.105-0.206,0.209-0.312,0.316
	C106.168,53.129,106.167,52.92,106.5,52.705z"/>
<path fill-rule="evenodd" d="M59.782,7.498c-0.416,0.592-0.836,0.6-1.264,0.016C58.402,6.576,59.877,6.561,59.782,7.498z"/>
<path fill-rule="evenodd" d="M79.396,26.518c1.454,0.873,2.073,2.934,0.284,4.334c-2.484,1.947-5.909-1.982-3.045-4.225
	C77.35,26.066,78.299,25.861,79.396,26.518z"/>
<path fill-rule="evenodd" d="M94.635,42.666c0.922,0.57,1.007,1.453,0.42,2.127c-1.152,1.316-3.654-0.41-2.149-1.947
	C93.301,42.436,93.719,42.1,94.635,42.666z"/>
<path fill-rule="evenodd" d="M63.069,12.432c1.38,0.916-0.159,3.262-1.551,2.066C60.325,13.479,61.641,11.477,63.069,12.432z"/>
<path fill-rule="evenodd" d="M82.775,32.787c1.438,0.992,1.647,2.623,0.438,3.859c-2.392,2.447-5.971-1.229-3.664-3.586
	C80.398,32.191,81.479,31.893,82.775,32.787z"/>
<path fill-rule="evenodd" d="M66.367,17.99c1.737,0.998,1.12,3.518-0.748,3.637c-0.998,0.064-2.008-0.859-2.071-1.869
	C63.454,18.293,65.044,17.234,66.367,17.99z"/>
<path fill-rule="evenodd" d="M97.548,49.1c0.909,0.471,0.839,1.146,0.413,1.652c-0.948,1.123-2.736-0.23-1.75-1.398
	C96.602,48.889,96.999,48.818,97.548,49.1z"/>
<path fill-rule="evenodd" d="M86.001,39.217c0.901,0.709,1.32,2.32,0.274,3.387c-0.781,0.801-2.242,1.01-3.23,0.117
	C81.09,40.951,83.517,37.266,86.001,39.217z"/>
<path fill-rule="evenodd" d="M70.057,23.783c1.472,1,1.729,3.244-0.268,4.262c-2.512,1.281-5.334-2.902-2.1-4.551
	C68.168,23.25,69.163,23.176,70.057,23.783z"/>
<path fill-rule="evenodd" d="M49.727,4.066c0.956,0.121-0.308,1.24-0.39,0.238C49.466,4.188,49.594,3.965,49.727,4.066z"/>
<path fill-rule="evenodd" d="M100.696,55.609c0.484,0.223,0.682,0.648,0.33,1.102C99.803,58.283,98.94,54.807,100.696,55.609z"/>
<path fill-rule="evenodd" d="M53.417,9.699c0.549,0.312,0.76,0.898,0.333,1.418c-0.915,1.104-2.336-0.35-1.591-1.244
	C52.39,9.598,52.766,9.332,53.417,9.699z"/>
<path fill-rule="evenodd" d="M73.591,29.58c3.415,2.475-0.841,6.979-3.575,4.457C67.405,31.623,70.721,27.502,73.591,29.58z"/>
<path fill-rule="evenodd" d="M88.676,45.418c1.416,0.826,1.633,2.871-0.197,3.709c-2.025,0.924-4.207-2.332-1.619-3.768
	C87.272,45.129,87.875,44.949,88.676,45.418z"/>
<path fill-rule="evenodd" d="M57.114,15.492c2.093,1.5-0.676,3.867-2.105,2.473C53.782,16.762,55.335,14.225,57.114,15.492z"/>
<path fill-rule="evenodd" d="M76.893,35.615c1.446,1.047,1.861,3.037,0.443,4.488c-1.095,1.125-3.023,1.252-4.254,0.049
	c-1.291-1.262-1.078-3.203-0.049-4.258C74.137,34.766,75.585,34.666,76.893,35.615z"/>
<path fill-rule="evenodd" d="M104.01,62.59c-0.288,0.344-0.578,0.281-0.867-0.07c0.032-0.104,0.066-0.209-0.006-0.314
	C103.499,61.535,104.3,62.121,104.01,62.59z"/>
<path fill-rule="evenodd" d="M40.393,1.176c0.104,0.102,0.212,0.207,0.317,0.311c-0.105,0.105-0.209,0.213-0.312,0.32
	C40.061,1.598,40.061,1.389,40.393,1.176z"/>
<path fill-rule="evenodd" d="M60.645,21.131c2.582,1.834-0.588,5.348-2.72,3.424C56.066,22.873,58.346,19.496,60.645,21.131z"/>
<path fill-rule="evenodd" d="M91.982,51.926c1.925,1.416-0.495,4.209-2.177,2.703C88.383,53.357,89.97,50.441,91.982,51.926z"/>
<path fill-rule="evenodd" d="M79.965,42.045c3.358,2.396-0.871,6.793-3.503,4.217C74.067,43.922,77.241,40.105,79.965,42.045z"/>
<path fill-rule="evenodd" d="M106.831,68.156c0.108,0.105,0.212,0.209,0.32,0.312c-0.104,0.105-0.209,0.213-0.312,0.318
	C106.503,68.582,106.503,68.373,106.831,68.156z"/>
<path fill-rule="evenodd" d="M64.02,26.77c3.912,2.561-1.737,7.533-3.906,3.357c-0.445-0.865-0.271-2.785,1.38-3.643
	C62.031,26.203,63.062,26.145,64.02,26.77z"/>
<path fill-rule="evenodd" d="M44.249,7.754c-0.412,0.592-0.834,0.596-1.262,0.016C42.872,6.83,44.347,6.814,44.249,7.754z"/>
<path fill-rule="evenodd" d="M94.891,58.199c1.004,0.596,0.938,1.525,0.42,2.125c-1.229,1.41-3.617-0.447-2.151-1.947
	C93.575,57.949,94.236,57.809,94.891,58.199z"/>
<path fill-rule="evenodd" d="M47.536,12.684c1.382,0.918-0.158,3.262-1.552,2.068C44.794,13.732,46.108,11.732,47.536,12.684z"/>
<path fill-rule="evenodd" d="M67.635,32.645c3.629,2.648-0.938,7.496-3.888,4.775C60.893,34.791,64.569,30.404,67.635,32.645z"/>
<path fill-rule="evenodd" d="M83.03,48.318c1.439,0.992,1.646,2.623,0.439,3.859c-2.391,2.445-5.971-1.229-3.668-3.584
	C80.653,47.723,81.733,47.426,83.03,48.318z"/>
<path fill-rule="evenodd" d="M50.836,18.246c0.484,0.273,0.672,0.395,0.873,0.699c1.167,1.756-1.908,4.248-3.448,1.934
	C47.497,19.723,48.931,17.166,50.836,18.246z"/>
<path fill-rule="evenodd" d="M98.041,64.707c0.59,0.361,0.846,0.955,0.333,1.574c-1.041,1.256-2.667-0.463-1.67-1.479
	C96.946,64.551,97.344,64.285,98.041,64.707z"/>
<path fill-rule="evenodd" d="M71.093,38.676c1.442,1.129,1.787,3.438,0.371,4.885c-1.205,1.232-3.445,1.311-4.729,0.055
	C63.825,40.77,67.887,36.172,71.093,38.676z"/>
<path fill-rule="evenodd" d="M86.336,54.826c1.146,0.965,1.123,3.154-0.665,3.871c-2.353,0.941-4.79-3.127-1.628-4.396
	C84.567,54.092,85.311,53.963,86.336,54.826z"/>
<path fill-rule="evenodd" d="M54.448,23.959c1.363,0.873,1.669,2.316,0.826,3.463c-2.134,2.902-6.628-0.832-3.585-3.35
	C52.397,23.486,53.394,23.289,54.448,23.959z"/>
<path fill-rule="evenodd" d="M34.277,4.396c0.954,0.123-0.31,1.242-0.391,0.242C34.017,4.52,34.145,4.295,34.277,4.396z"/>
<path fill-rule="evenodd" d="M74.162,44.949c1.401,1.098,1.767,3.297,0.368,4.727c-1.133,1.162-3.23,1.295-4.492,0.131
	C67.08,47.074,71.016,42.496,74.162,44.949z"/>
<path fill-rule="evenodd" d="M100.952,71.141c0.482,0.221,0.682,0.646,0.329,1.1C100.057,73.814,99.196,70.338,100.952,71.141z"/>
<path fill-rule="evenodd" d="M37.966,10.031c0.551,0.312,0.762,0.898,0.334,1.42c-0.917,1.102-2.335-0.352-1.591-1.246
	C36.938,9.93,37.316,9.664,37.966,10.031z"/>
<path fill-rule="evenodd" d="M58.06,29.834c2.722,1.832,0.748,6.1-2.304,5.232c-1.508-0.432-2.491-2.201-2.09-3.605
	c0.156-0.549,0.74-1.676,2.026-2.072C56.104,29.262,56.862,29.027,58.06,29.834z"/>
<path fill-rule="evenodd" d="M89.006,60.867c2.947,1.721-0.637,5.363-2.566,2.949c-0.463-0.584-0.932-1.75,0.439-2.846
	C87.37,60.58,88.167,60.377,89.006,60.867z"/>
<path fill-rule="evenodd" d="M41.58,15.75c2.092,1.498-0.67,3.863-2.102,2.467C38.25,17.016,39.807,14.48,41.58,15.75z"/>
<path fill-rule="evenodd" d="M77.231,51.225c1.445,1.047,1.861,3.037,0.441,4.488c-1.1,1.123-3.023,1.252-4.256,0.049
	c-1.29-1.264-1.08-3.203-0.047-4.258C74.474,50.375,75.92,50.273,77.231,51.225z"/>
<path fill-rule="evenodd" d="M104.26,78.121c-0.281,0.34-0.572,0.279-0.865-0.07c0.035-0.104,0.07-0.211-0.004-0.314
	C103.754,77.068,104.556,77.652,104.26,78.121z"/>
<path fill-rule="evenodd" d="M24.86,1.43c0.105,0.104,0.211,0.205,0.319,0.311c-0.103,0.105-0.209,0.213-0.312,0.318
	C24.532,1.852,24.53,1.643,24.86,1.43z"/>
<path fill-rule="evenodd" d="M45.115,21.387c2.581,1.832-0.588,5.35-2.721,3.422C40.533,23.127,42.812,19.752,45.115,21.387z"/>
<path fill-rule="evenodd" d="M92.315,67.533c0.225,0.18,0.539,0.459,0.641,0.781c0.48,1.488-1.723,3.129-3.057,1.691
	C88.618,68.619,90.501,66.08,92.315,67.533z"/>
<path fill-rule="evenodd" d="M80.296,57.496c3.339,2.338-0.87,6.789-3.499,4.219C74.397,59.369,77.606,55.615,80.296,57.496z"/>
<path fill-rule="evenodd" d="M107.087,83.688c0.104,0.105,0.211,0.207,0.319,0.311c-0.107,0.109-0.209,0.215-0.312,0.32
	C106.759,84.111,106.757,83.902,107.087,83.688z"/>
<path fill-rule="evenodd" d="M48.49,27.027c3.912,2.555-1.738,7.529-3.907,3.354c-0.449-0.863-0.27-2.787,1.378-3.643
	C46.503,26.459,47.532,26.398,48.49,27.027z"/>
<path fill-rule="evenodd" d="M28.717,8.01c-0.41,0.588-0.833,0.594-1.259,0.014C27.341,7.086,28.816,7.07,28.717,8.01z"/>
<path fill-rule="evenodd" d="M95.225,73.809c1.001,0.596,0.939,1.525,0.417,2.125c-1.226,1.41-3.616-0.449-2.147-1.949
	C93.909,73.559,94.569,73.416,95.225,73.809z"/>
<path fill-rule="evenodd" d="M31.851,12.941c1.038,0.602,0.966,1.404,0.339,2.045c-1.166,1.193-3.273-0.48-1.913-1.869
	C30.749,12.633,31.184,12.555,31.851,12.941z"/>
<path fill-rule="evenodd" d="M52.105,32.9c3.63,2.648-0.937,7.494-3.89,4.773C45.359,35.043,49.038,30.662,52.105,32.9z"/>
<path fill-rule="evenodd" d="M83.442,63.848c2.719,2.035-0.612,6.254-3.188,3.902C78.012,65.695,80.79,61.861,83.442,63.848z"/>
<path fill-rule="evenodd" d="M35.305,18.5c1.384,0.723,1.785,2.531,0.116,3.547c-1.778,1.086-4.419-1.992-1.776-3.607
	C33.881,18.295,34.664,18.17,35.305,18.5z"/>
<path fill-rule="evenodd" d="M98.296,80.238c0.587,0.361,0.843,0.955,0.331,1.576c-1.041,1.254-2.668-0.463-1.674-1.482
	C97.202,80.08,97.598,79.814,98.296,80.238z"/>
<path fill-rule="evenodd" d="M86.592,70.357c1.145,0.965,1.123,3.154-0.665,3.871c-2.351,0.943-4.79-3.129-1.628-4.398
	C84.824,69.621,85.563,69.494,86.592,70.357z"/>
<path fill-rule="evenodd" d="M38.996,24.295c1.362,0.869,1.669,2.312,0.829,3.459c-2.14,2.902-6.632-0.832-3.588-3.352
	C36.948,23.816,37.944,23.623,38.996,24.295z"/>
<path fill-rule="evenodd" d="M18.746,4.652c0.955,0.123-0.307,1.242-0.39,0.24C18.483,4.771,18.614,4.553,18.746,4.652z"/>
<path fill-rule="evenodd" d="M74.731,60.635c1.007,0.885,1.367,2.529,0.91,3.537c-1.953,4.311-7.474,0.752-6.023-2.453
	c0.23-0.504,0.644-1.236,1.716-1.756C72.049,59.619,73.319,59.389,74.731,60.635z"/>
<path fill-rule="evenodd" d="M101.125,86.596c0.596,0.125,0.629,0.682,0.485,0.938C100.863,88.877,99.374,86.51,101.125,86.596z"/>
<path fill-rule="evenodd" d="M22.356,10.207c0.915,0.422,0.8,1.027,0.411,1.496c-0.836,1.014-2.51-0.133-1.591-1.242
	C21.518,10.047,21.8,9.955,22.356,10.207z"/>
<path fill-rule="evenodd" d="M42.451,30.012c4.067,2.555-1.239,7.969-3.974,4.064c-0.622-0.885-0.73-2.965,0.9-4.107
	C40.097,29.461,41.361,29.326,42.451,30.012z"/>
<path fill-rule="evenodd" d="M89.262,76.4c2.948,1.721-0.637,5.361-2.57,2.945c-0.461-0.582-0.929-1.748,0.44-2.846
	C87.623,76.111,88.422,75.906,89.262,76.4z"/>
<path fill-rule="evenodd" d="M26.05,16.002c2.092,1.5-0.671,3.867-2.103,2.469C22.72,17.271,24.274,14.732,26.05,16.002z"/>
<path fill-rule="evenodd" d="M77.485,66.754c1.441,1.049,1.861,3.039,0.443,4.488c-1.1,1.125-3.026,1.256-4.258,0.053
	c-1.291-1.266-1.078-3.205-0.05-4.26C74.729,65.906,76.17,65.807,77.485,66.754z"/>
<path fill-rule="evenodd" d="M104.118,93.105c0.953,0.123-0.306,1.238-0.392,0.24C103.853,93.225,103.986,93.006,104.118,93.105z"/>
<path fill-rule="evenodd" d="M92.651,82.982c0.223,0.182,0.533,0.463,0.639,0.781c0.477,1.488-1.727,3.131-3.059,1.691
	C88.951,84.07,90.831,81.531,92.651,82.982z"/>
<path fill-rule="evenodd" d="M9.329,1.684c0.106,0.102,0.212,0.209,0.32,0.311c-0.105,0.107-0.209,0.213-0.313,0.32
	C9.002,2.107,8.999,1.898,9.329,1.684z"/>
<path fill-rule="evenodd" d="M29.583,21.639c2.582,1.836-0.588,5.35-2.722,3.422C25.002,23.383,27.284,20.004,29.583,21.639z"/>
<path fill-rule="evenodd" d="M80.79,73.262c1.305,1.121,1.275,3.684-0.739,4.582c-2.952,1.32-5.712-3.572-2.108-5.18
	C78.568,72.385,79.459,72.121,80.79,73.262z"/>
<path fill-rule="evenodd" d="M107.342,99.219c0.104,0.104,0.211,0.209,0.318,0.312c-0.104,0.105-0.207,0.211-0.314,0.318
	C107.013,99.645,107.01,99.434,107.342,99.219z"/>
<path fill-rule="evenodd" d="M33.117,27.436c3.196,2.234-0.687,6.488-3.263,4.137c-1.042-0.949-1.367-2.588-0.123-3.861
	C30.817,26.6,31.958,26.627,33.117,27.436z"/>
<path fill-rule="evenodd" d="M13.267,8.342c-0.413,0.59-0.834,0.596-1.262,0.014C11.888,7.418,13.364,7.402,13.267,8.342z"/>
<path fill-rule="evenodd" d="M95.402,89.26c0.639,0.33,0.876,0.852,0.878,1.172c0.031,2.77-4.492,0.748-2.219-1.076
	C94.258,89.195,94.563,88.828,95.402,89.26z"/>
<path fill-rule="evenodd" d="M16.241,13.275c1.057,0.502,0.968,1.242,0.65,1.727c-1.022,1.559-3.032-0.004-2.221-1.234
	C15.202,12.957,15.641,12.992,16.241,13.275z"/>
<path fill-rule="evenodd" d="M36.574,33.311c3.553,2.609-0.991,7.297-3.812,4.539c-1.687-1.65-0.754-4.434,1.203-5.062
	C34.725,32.545,35.731,32.691,36.574,33.311z"/>
<path fill-rule="evenodd" d="M83.698,79.539c0.953,0.756,1.384,2.412,0.279,3.543c-2.083,2.129-5.633-1.119-3.587-3.35
	C81.346,78.689,82.622,78.678,83.698,79.539z"/>
<path fill-rule="evenodd" d="M20.013,19.146c1.925,1.418-0.495,4.211-2.176,2.707C16.416,20.58,18.003,17.666,20.013,19.146z"/>
<path fill-rule="evenodd" d="M98.395,95.93c0.673,0.354,0.63,0.883,0.327,1.258c-0.711,0.893-2.173-0.16-1.431-1.088
	C97.586,95.73,97.937,95.691,98.395,95.93z"/>
<path fill-rule="evenodd" d="M71.129,69.586c2.11,1.299,2.279,4.061-0.02,5.441c-3.14,1.887-7.084-3.066-3.059-5.486
	C68.838,69.068,69.971,68.875,71.129,69.586z"/>
<path fill-rule="evenodd" d="M39.719,39.188c2.843,1.883,1.409,5.977-1.67,6.012c-1.669,0.02-3.33-1.502-3.349-3.273
	C34.67,39.434,37.612,37.795,39.719,39.188z"/>
<path fill-rule="evenodd" d="M86.533,85.893c0.981,0.672,1.301,2.02,0.349,2.99c-1.812,1.854-4.721-0.914-2.869-2.805
	C84.809,85.26,85.643,85.285,86.533,85.893z"/>
<path fill-rule="evenodd" d="M3.215,4.908C3.32,5.012,3.428,5.117,3.533,5.219C3.429,5.322,3.326,5.432,3.222,5.535
	C2.886,5.332,2.884,5.121,3.215,4.908z"/>
<path fill-rule="evenodd" d="M23.311,24.865c2.747,1.762-0.529,5.252-2.565,3.262C19.202,26.617,21.063,23.426,23.311,24.865z"/>
<path fill-rule="evenodd" d="M74.434,76.252c3.342,2.332-0.87,6.789-3.498,4.219C68.538,78.125,71.749,74.371,74.434,76.252z"/>
<path fill-rule="evenodd" d="M101.228,102.443c0.956,0.121-0.308,1.24-0.393,0.24C100.967,102.561,101.095,102.342,101.228,102.443z
	"/>
<path fill-rule="evenodd" d="M26.849,30.82c1.102,0.801,1.443,2.51,0.357,3.621c-2.216,2.266-5.761-1.127-3.509-3.43
	C24.683,30,25.765,30.029,26.849,30.82z"/>
<path fill-rule="evenodd" d="M6.917,11.49c-0.156,0.158-0.312,0.318-0.467,0.477c-0.211,0.008-0.425-0.26-0.639-0.465
	C5.868,10.781,6.844,10.77,6.917,11.49z"/>
<path fill-rule="evenodd" d="M89.288,92.484c0.922,0.568,1.008,1.449,0.417,2.125c-1.153,1.316-3.653-0.41-2.151-1.947
	C87.954,92.254,88.367,91.918,89.288,92.484z"/>
<path fill-rule="evenodd" d="M9.972,16.814c0.505,0.199,0.82,0.709,0.568,1.18c-0.58,1.064-2.283,0.283-1.745-0.77
	C9.184,16.463,9.5,16.627,9.972,16.814z"/>
<path fill-rule="evenodd" d="M77.586,82.92c1.148,0.963,1.124,3.152-0.666,3.869c-2.352,0.943-4.787-3.129-1.625-4.4
	C75.817,82.182,76.559,82.055,77.586,82.92z"/>
<path fill-rule="evenodd" d="M30.068,36.775c3.196,2.234-0.687,6.486-3.263,4.135c-1.04-0.947-1.367-2.588-0.123-3.859
	C27.769,35.939,28.91,35.967,30.068,36.775z"/>
<path fill-rule="evenodd" d="M92.2,99.234c0.484,0.221,0.682,0.645,0.33,1.098C91.309,101.904,90.448,98.428,92.2,99.234z"/>
<path fill-rule="evenodd" d="M65.177,73.125c1.446,1.045,1.86,3.039,0.441,4.488c-1.099,1.121-3.024,1.25-4.256,0.047
	c-1.291-1.264-1.081-3.203-0.046-4.256C62.42,72.273,63.866,72.174,65.177,73.125z"/>
<path fill-rule="evenodd" d="M13.349,22.613c1.059,0.502,0.972,1.24,0.651,1.727c-1.022,1.559-3.031-0.006-2.221-1.236
	C12.311,22.297,12.751,22.328,13.349,22.613z"/>
<path fill-rule="evenodd" d="M33.449,42.727c1.707,1.139,2.031,3.846-0.258,5.053c-1.492,0.785-3.327-0.176-3.956-1.375
	c-0.529-1.004-0.371-3.041,1.372-3.959C31.125,42.172,32.239,41.924,33.449,42.727z"/>
<path fill-rule="evenodd" d="M80.34,89.51c0.225,0.18,0.539,0.461,0.639,0.783c0.483,1.486-1.72,3.129-3.053,1.689
	C76.645,90.598,78.524,88.057,80.34,89.51z"/>
<path fill-rule="evenodd" d="M16.808,28.488c1.614,0.932,0.66,3.08-0.754,3.004C13.582,31.357,14.549,27.182,16.808,28.488z"/>
<path fill-rule="evenodd" d="M36.908,48.762c3.622,2.66-0.946,7.488-3.89,4.775C30.198,50.934,33.825,46.498,36.908,48.762z"/>
<path fill-rule="evenodd" d="M95.112,105.664c0.105,0.105,0.213,0.211,0.32,0.314c-0.104,0.105-0.207,0.213-0.313,0.318
	C94.788,106.092,94.783,105.879,95.112,105.664z"/>
<path fill-rule="evenodd" d="M68.167,79.635c2.719,2.035-0.613,6.254-3.19,3.898C62.735,81.482,65.513,77.646,68.167,79.635z"/>
<path fill-rule="evenodd" d="M0.247,14.324c0.104,0.104,0.213,0.207,0.318,0.311c-0.104,0.105-0.209,0.213-0.312,0.318
	C-0.082,14.748-0.085,14.539,0.247,14.324z"/>
<path fill-rule="evenodd" d="M20.266,34.52c0.755,0.508,1.156,1.43,0.814,2.199c-0.472,1.062-1.714,1.484-2.511,1.131
	C16.21,36.803,17.913,32.941,20.266,34.52z"/>
<path fill-rule="evenodd" d="M82.937,95.947c0.913,0.467,0.841,1.146,0.416,1.652c-0.946,1.119-2.737-0.229-1.751-1.402
	C81.991,95.734,82.387,95.664,82.937,95.947z"/>
<path fill-rule="evenodd" d="M55.678,69.916c1.523,0.947,2.186,2.881,1.23,4.326c-1.184,1.785-4.017,2.229-5.519,0.061
	c-0.242-0.35-0.498-1.443-0.492-1.727C50.931,70.389,53.592,68.625,55.678,69.916z"/>
<path fill-rule="evenodd" d="M70.92,86.068c2.949,1.723-0.639,5.363-2.569,2.945c-0.464-0.582-0.932-1.746,0.442-2.84
	C69.279,85.785,70.079,85.578,70.92,86.068z"/>
<path fill-rule="evenodd" d="M3.469,20.436c0.107,0.107,0.213,0.211,0.317,0.314c-0.103,0.104-0.207,0.211-0.31,0.318
	C3.139,20.863,3.139,20.65,3.469,20.436z"/>
<path fill-rule="evenodd" d="M23.406,40.242c2.72,1.525,0.172,5.17-1.928,3.885C19.169,42.713,20.952,38.863,23.406,40.242z"/>
<path fill-rule="evenodd" d="M86.098,103.244c-0.286,0.342-0.577,0.283-0.868-0.068c0.031-0.105,0.067-0.213-0.003-0.314
	C85.586,102.189,86.387,102.775,86.098,103.244z"/>
<path fill-rule="evenodd" d="M58.907,76.506c3.339,2.334-0.874,6.789-3.502,4.219C53.005,78.377,56.218,74.625,58.907,76.506z"/>
<path fill-rule="evenodd" d="M6.064,26.873c0.176-0.727,1.07-0.738,1.263-0.014C7.151,27.59,6.258,27.598,6.064,26.873z"/>
<path fill-rule="evenodd" d="M27.104,46.35c1.102,0.803,1.441,2.514,0.354,3.623c-2.215,2.266-5.759-1.127-3.509-3.43
	C24.936,45.533,26.021,45.561,27.104,46.35z"/>
<path fill-rule="evenodd" d="M73.837,92.818c0.997,0.596,0.937,1.525,0.415,2.121c-1.225,1.412-3.617-0.445-2.15-1.945
	C72.518,92.568,73.18,92.426,73.837,92.818z"/>
<path fill-rule="evenodd" d="M47.691,68.037c0.64,1.092,0.478,2.717-0.349,3.709c-2.986,3.576-7.97-1.086-5.176-4.275
	C43.445,66.01,46.27,65.609,47.691,68.037z"/>
<path fill-rule="evenodd" d="M10.228,32.189c0.233-0.123,0.475,0.406,0.714,0.543c0.363,1.541-2.221,1.572-1.892,0.021
	C9.437,32.27,9.829,31.984,10.228,32.189z"/>
<path fill-rule="evenodd" d="M30.402,52.227c1.625,1.059,1.866,3.014,0.285,4.332c-1.311,1.098-2.987,0.527-3.789-0.43
	C24.837,53.664,28.169,50.77,30.402,52.227z"/>
<path fill-rule="evenodd" d="M62.055,83.172c1.149,0.967,1.125,3.154-0.666,3.871c-2.35,0.943-4.789-3.129-1.627-4.396
	C60.286,82.438,61.028,82.309,62.055,83.172z"/>
<path fill-rule="evenodd" d="M76.671,99.488c0.48,0.221,0.679,0.645,0.328,1.098C75.778,102.162,74.915,98.684,76.671,99.488z"/>
<path fill-rule="evenodd" d="M13.605,38.145c1.058,0.502,0.971,1.242,0.652,1.727c-1.024,1.559-3.033-0.004-2.225-1.236
	C12.564,37.826,13.005,37.859,13.605,38.145z"/>
<path fill-rule="evenodd" d="M49.806,73.533c1.753,1.354,1.552,4.193-0.655,5.133c-2.331,0.994-4.861-1.711-3.987-3.898
	C45.866,73.016,48.038,72.17,49.806,73.533z"/>
<path fill-rule="evenodd" d="M33.702,58.26c1.711,1.137,2.033,3.842-0.258,5.051c-1.49,0.785-3.324-0.178-3.959-1.375
	c-0.526-1.004-0.367-3.039,1.377-3.959C31.38,57.705,32.492,57.455,33.702,58.26z"/>
<path fill-rule="evenodd" d="M64.811,89.766c0.223,0.18,0.537,0.459,0.639,0.781c0.482,1.488-1.721,3.127-3.054,1.689
	C61.113,90.85,62.995,88.312,64.811,89.766z"/>
<path fill-rule="evenodd" d="M16.982,43.939c0.906,0.465,1.334,1.352,0.892,2.119c-1.404,2.42-4.78-0.629-2.233-2.182
	C15.907,43.713,16.428,43.66,16.982,43.939z"/>
<path fill-rule="evenodd" d="M37.162,64.293c3.631,2.648-0.937,7.496-3.89,4.775C30.419,66.438,34.098,62.057,37.162,64.293z"/>
<path fill-rule="evenodd" d="M79.581,105.92c0.109,0.104,0.212,0.209,0.32,0.312c-0.105,0.105-0.206,0.211-0.312,0.32
	C79.256,106.346,79.254,106.135,79.581,105.92z"/>
<path fill-rule="evenodd" d="M52.713,79.965c2.863,2.086-0.747,6.137-3.185,3.9C47.366,81.889,50.101,78.061,52.713,79.965z"/>
<path fill-rule="evenodd" d="M0.579,29.777c0.105,0.102,0.211,0.205,0.317,0.309c-0.104,0.109-0.208,0.213-0.311,0.318
	C0.25,30.199,0.248,29.988,0.579,29.777z"/>
<path fill-rule="evenodd" d="M20.517,49.893c2.407,1.457-0.182,4.525-2.012,3.178C16.861,51.861,18.267,48.529,20.517,49.893z"/>
<path fill-rule="evenodd" d="M67.487,96.279c0.589,0.359,0.848,0.955,0.333,1.572c-1.04,1.256-2.666-0.461-1.671-1.479
	C66.396,96.121,66.792,95.854,67.487,96.279z"/>
<path fill-rule="evenodd" d="M40.304,70.33c2.57,1.756,1.301,5.223-1.194,5.689c-2.851,0.533-4.948-3.35-2.587-5.49
	C37.575,69.576,39.003,69.438,40.304,70.33z"/>
<path fill-rule="evenodd" d="M24.215,56.002c1.663,1.402,0.125,4.533-2.087,3.73C19.034,58.609,21.434,53.658,24.215,56.002z"/>
<path fill-rule="evenodd" d="M55.389,86.48c2.68,1.713-0.531,5.1-2.488,3.023C51.59,88.117,53.27,85.121,55.389,86.48z"/>
<path fill-rule="evenodd" d="M3.724,35.969c0.106,0.104,0.213,0.209,0.32,0.312c-0.104,0.105-0.209,0.213-0.313,0.32
	C3.396,36.393,3.393,36.184,3.724,35.969z"/>
<path fill-rule="evenodd" d="M70.644,103.576c-0.284,0.34-0.574,0.281-0.867-0.068c0.035-0.105,0.069-0.211-0.003-0.314
	C70.134,102.523,70.938,103.107,70.644,103.576z"/>
<path fill-rule="evenodd" d="M43.453,76.838c1.483,1.117,1.728,3.516-0.338,4.654c-1.243,0.688-3.103,0.043-3.801-1.217
	C38.18,78.223,40.809,74.84,43.453,76.838z"/>
<path fill-rule="evenodd" d="M6.397,42.482c0.179-0.729,1.073-0.736,1.265-0.014C7.486,43.197,6.592,43.207,6.397,42.482z"/>
<path fill-rule="evenodd" d="M27.358,61.879c1.47,1,1.729,3.244-0.268,4.262c-2.511,1.281-5.334-2.9-2.101-4.551
	C25.469,61.346,26.46,61.271,27.358,61.879z"/>
<path fill-rule="evenodd" d="M58.303,93.07c1.002,0.598,0.939,1.527,0.418,2.125c-1.227,1.41-3.617-0.447-2.151-1.947
	C56.988,92.822,57.648,92.68,58.303,93.07z"/>
<path fill-rule="evenodd" d="M10.48,47.721c0.234-0.121,0.477,0.406,0.717,0.543c0.362,1.543-2.223,1.572-1.893,0.021
	C9.693,47.799,10.083,47.518,10.48,47.721z"/>
<path fill-rule="evenodd" d="M30.655,67.758c3.912,2.557-1.736,7.531-3.905,3.357c-0.45-0.867-0.272-2.787,1.38-3.645
	C28.669,67.191,29.699,67.131,30.655,67.758z"/>
<path fill-rule="evenodd" d="M45.97,83.197c1.65,0.926,1.806,3.025-0.032,4.021c-2.215,1.199-4.923-2.27-2.098-4.078
	C44.245,82.883,45.173,82.748,45.97,83.197z"/>
<path fill-rule="evenodd" d="M14.254,53.75c1.556,1.188-0.707,3.043-1.792,1.834C11.57,54.592,12.847,52.672,14.254,53.75z"/>
<path fill-rule="evenodd" d="M61.141,99.742c0.48,0.221,0.68,0.645,0.324,1.102C60.247,102.416,59.381,98.938,61.141,99.742z"/>
<path fill-rule="evenodd" d="M33.877,73.715c1.239,0.783,1.746,2.154,1.374,3.217c-0.912,2.641-4.578,2.58-5.515,0.062
	c-0.298-0.801-0.222-2.875,1.851-3.65C32.234,73.105,33.075,73.203,33.877,73.715z"/>
<path fill-rule="evenodd" d="M48.964,89.863c0.913,0.488,1.347,1.504,0.89,2.277c-1.379,2.346-5.033-0.266-2.547-2.178
	C47.669,89.684,48.244,89.482,48.964,89.863z"/>
<path fill-rule="evenodd" d="M17.237,59.473c0.905,0.461,1.338,1.35,0.89,2.117c-1.403,2.422-4.778-0.629-2.231-2.184
	C16.162,59.244,16.684,59.189,17.237,59.473z"/>
<path fill-rule="evenodd" d="M64.049,106.174c0.109,0.105,0.213,0.209,0.32,0.312c-0.105,0.107-0.206,0.215-0.312,0.318
	C63.723,106.598,63.721,106.387,64.049,106.174z"/>
<path fill-rule="evenodd" d="M37.184,80.223c2.863,2.082-0.748,6.135-3.189,3.896C31.838,82.145,34.57,78.314,37.184,80.223z"/>
<path fill-rule="evenodd" d="M0.832,45.307c0.108,0.105,0.214,0.209,0.318,0.311c-0.104,0.107-0.208,0.213-0.311,0.318
	C0.505,45.73,0.501,45.52,0.832,45.307z"/>
<path fill-rule="evenodd" d="M20.694,65.346c1.738,0.998,1.121,3.516-0.748,3.637c-0.997,0.062-2.007-0.861-2.073-1.869
	C17.78,65.648,19.374,64.59,20.694,65.346z"/>
<path fill-rule="evenodd" d="M52.038,96.611c0.586,0.359,0.847,0.957,0.333,1.572c-1.043,1.256-2.667-0.461-1.674-1.477
	C50.944,96.453,51.34,96.188,52.038,96.611z"/>
<path fill-rule="evenodd" d="M4.057,51.418c0.106,0.105,0.211,0.209,0.318,0.314c-0.103,0.105-0.208,0.211-0.312,0.318
	C3.727,51.842,3.726,51.633,4.057,51.418z"/>
<path fill-rule="evenodd" d="M24.311,71.377c2.582,1.834-0.59,5.348-2.722,3.42C19.73,73.119,22.01,69.742,24.311,71.377z"/>
<path fill-rule="evenodd" d="M39.859,86.736c2.678,1.713-0.531,5.1-2.486,3.023C36.06,88.371,37.74,85.379,39.859,86.736z"/>
<path fill-rule="evenodd" d="M55.114,103.83c-0.285,0.342-0.574,0.283-0.868-0.068c0.035-0.105,0.07-0.211-0.003-0.316
	C54.603,102.779,55.405,103.361,55.114,103.83z"/>
<path fill-rule="evenodd" d="M7.917,58.158c-0.414,0.59-0.833,0.594-1.261,0.014C6.538,57.236,8.015,57.217,7.917,58.158z"/>
<path fill-rule="evenodd" d="M27.769,77.41c1.104,0.803,1.443,2.512,0.356,3.623c-2.213,2.264-5.759-1.129-3.509-3.43
	C25.602,76.592,26.687,76.619,27.769,77.41z"/>
<path fill-rule="evenodd" d="M42.93,93.482c1.353,1.049-0.351,3.398-1.785,2.148C40.027,94.654,41.256,92.176,42.93,93.482z"/>
<path fill-rule="evenodd" d="M10.735,63.252c0.235-0.123,0.478,0.406,0.715,0.543c0.363,1.543-2.22,1.57-1.893,0.021
	C9.947,63.332,10.338,63.047,10.735,63.252z"/>
<path fill-rule="evenodd" d="M30.599,83.605c1.291,0.799,1.824,2.66,0.123,3.863c-2.341,1.656-5.196-2.52-2.095-4.074
	C29.011,83.201,29.804,83.115,30.599,83.605z"/>
<path fill-rule="evenodd" d="M14.429,69.203c1.379,0.918-0.16,3.26-1.554,2.064C11.685,70.252,12.999,68.252,14.429,69.203z"/>
<path fill-rule="evenodd" d="M45.532,100.076c0.593,0.129,0.625,0.684,0.482,0.941C45.269,102.359,43.778,99.992,45.532,100.076z"/>
<path fill-rule="evenodd" d="M33.431,90.119c0.916,0.488,1.35,1.504,0.893,2.277c-1.38,2.344-5.034-0.27-2.545-2.182
	C32.138,89.939,32.713,89.736,33.431,90.119z"/>
<path fill-rule="evenodd" d="M17.964,75.154c0.701,0.564,0.846,1.619,0.264,2.285c-1.298,1.482-4.191-0.688-2.392-2.34
	C16.417,74.564,17.141,74.494,17.964,75.154z"/>
<path fill-rule="evenodd" d="M48.601,106.508c0.106,0.104,0.212,0.207,0.317,0.311c-0.105,0.105-0.207,0.213-0.312,0.32
	C48.273,106.932,48.272,106.721,48.601,106.508z"/>
<path fill-rule="evenodd" d="M1.087,60.838c0.106,0.104,0.213,0.207,0.32,0.312c-0.105,0.105-0.208,0.211-0.313,0.32
	C0.759,61.262,0.757,61.049,1.087,60.838z"/>
<path fill-rule="evenodd" d="M20.948,80.877c1.74,0.996,1.121,3.518-0.748,3.635c-0.999,0.064-2.007-0.859-2.071-1.869
	C18.036,81.18,19.626,80.121,20.948,80.877z"/>
<path fill-rule="evenodd" d="M37.068,97.887c-0.16,0.42-0.698,0.945-1.094,0.955c-0.526-0.014-1.193-0.775-1.117-1.246
	C35.271,96.145,37.095,96.672,37.068,97.887z"/>
<path fill-rule="evenodd" d="M4.391,67.027C5.345,67.152,4.082,68.27,4,67.27C4.129,67.15,4.257,66.928,4.391,67.027z"/>
<path fill-rule="evenodd" d="M24.252,87.068c1.739,0.998,1.119,3.518-0.75,3.637c-0.996,0.062-2.004-0.861-2.071-1.867
	C21.338,87.371,22.929,86.314,24.252,87.068z"/>
<path fill-rule="evenodd" d="M39.183,103.539c0.954,0.123-0.311,1.24-0.391,0.24C38.92,103.66,39.048,103.438,39.183,103.539z"/>
<path fill-rule="evenodd" d="M8.25,73.609c-0.412,0.59-0.834,0.594-1.261,0.012C6.87,72.686,8.346,72.67,8.25,73.609z"/>
<path fill-rule="evenodd" d="M27.483,93.814c1.348,1.051-0.357,3.4-1.791,2.148C24.575,94.988,25.804,92.508,27.483,93.814z"/>
<path fill-rule="evenodd" d="M11.305,78.779c0.548,0.311,0.761,0.895,0.332,1.414c-0.917,1.105-2.336-0.346-1.592-1.244
	C10.273,78.676,10.652,78.408,11.305,78.779z"/>
<path fill-rule="evenodd" d="M14.685,84.732c1.377,0.918-0.161,3.262-1.556,2.068C11.939,85.781,13.253,83.781,14.685,84.732z"/>
<path fill-rule="evenodd" d="M29.999,100.328c0.592,0.129,0.627,0.688,0.484,0.943C29.739,102.613,28.246,100.246,29.999,100.328z"
	/>
<path fill-rule="evenodd" d="M17.746,90.533c2.051,0.98,0.229,3.533-1.15,2.773C14.983,92.422,15.937,89.67,17.746,90.533z"/>
<path fill-rule="evenodd" d="M32.991,106.842c0.106,0.102,0.211,0.207,0.32,0.311c-0.106,0.107-0.209,0.213-0.315,0.32
	C32.662,107.266,32.659,107.055,32.991,106.842z"/>
<path fill-rule="evenodd" d="M1.5,76.365c0.107,0.105,0.212,0.209,0.319,0.312c-0.104,0.107-0.208,0.213-0.312,0.32
	C1.172,76.791,1.17,76.578,1.5,76.365z"/>
<path fill-rule="evenodd" d="M21.538,98.139c-0.163,0.42-0.701,0.949-1.092,0.959c-0.526-0.016-1.194-0.777-1.118-1.25
	C19.74,96.398,21.564,96.924,21.538,98.139z"/>
<path fill-rule="evenodd" d="M4.643,82.561c0.956,0.123-0.306,1.24-0.391,0.24C4.383,82.68,4.51,82.459,4.643,82.561z"/>
<path fill-rule="evenodd" d="M8.505,89.139c-0.416,0.594-0.835,0.596-1.263,0.014C7.123,88.219,8.601,88.201,8.505,89.139z"/>
<path fill-rule="evenodd" d="M23.731,103.873c0.956,0.121-0.308,1.24-0.391,0.238C23.47,103.992,23.601,103.77,23.731,103.873z"/>
<path fill-rule="evenodd" d="M11.32,94.234c0.235-0.123,0.479,0.406,0.716,0.541c0.365,1.543-2.22,1.572-1.891,0.025
	C10.534,94.316,10.925,94.031,11.32,94.234z"/>
<path fill-rule="evenodd" d="M14.548,100.66c0.22,0.09,0.748,0.357,0.326,0.945C13.932,102.92,12.919,100.02,14.548,100.66z"/>
<path fill-rule="evenodd" d="M17.46,107.096c0.106,0.104,0.212,0.205,0.317,0.311c-0.104,0.107-0.207,0.213-0.31,0.32
	C17.132,107.518,17.13,107.309,17.46,107.096z"/>
<path fill-rule="evenodd" d="M1.754,91.896c0.107,0.105,0.214,0.209,0.319,0.312c-0.104,0.105-0.208,0.213-0.312,0.32
	C1.426,92.32,1.422,92.111,1.754,91.896z"/>
<path fill-rule="evenodd" d="M4.976,98.01c0.955,0.125-0.307,1.242-0.391,0.24C4.715,98.133,4.845,97.91,4.976,98.01z"/>
<path fill-rule="evenodd" d="M8.123,104.205c0.105,0.104,0.212,0.205,0.318,0.311c-0.104,0.107-0.208,0.213-0.312,0.32
	C7.796,104.629,7.792,104.42,8.123,104.205z"/>
<path fill-rule="evenodd" d="M63.963,63.674c-0.734-0.07-2.15,0.107-3.164-0.91c-0.104,0.764,0.025,2.207-1.303,3.246
	c0.927,0.084,1.855-0.016,2.688,0.604c1.404,1.037,1.955,3.217,0.842,4.721c-1.305,1.764-3.787,2.137-5.44,0.139
	c-1.114-1.348-0.993-3.02,0.427-4.578c-1.159,0.203-2.314,0.232-3.483-0.904c-0.241,0.564-0.083,1.602-0.528,2.291
	c-2.729,4.256-9.085-0.242-5.567-4.195c-0.843-0.25-2.361,0.123-3.481-1.221c0.561,2.936-3.349,5.609-5.879,3.141
	c-1.195-1.168-1.596-3.312-0.057-4.891c1.458-1.486,3.228-1.332,4.892-0.053c0.067-0.736-0.118-2.154,0.751-3.162
	c-0.673-0.24-2.402-0.32-3.093-1.621c-0.003,0.938,0.229,1.898-0.364,2.764c-0.976,1.434-3.093,2.156-4.562,1.154
	c-2.011-1.375-2.409-3.996-0.063-5.676c0.994-0.711,3.093-0.832,4.426,0.896c-0.357-1.311-0.288-2.625,0.902-3.953
	c-2.66,0.598-5.527-3.059-3.374-5.641c1.303-1.561,3.44-1.795,5.201-0.215c0.037-0.947-0.127-2.574,1.535-3.801
	c-3.143,1.17-5.919-2.902-3.613-5.402c1.084-1.172,3.235-1.592,4.731-0.211c1.608,1.486,1.409,3.762-0.413,5.209
	c1.36-0.348,2.726-0.484,4.111,1.057c-0.718-2.607,2.843-5.639,5.479-3.688c1.696,1.258,1.872,3.326,0.688,5.037
	c0.633,0.166,1.943-0.057,2.848,0.914c0.395-0.469,0.223-1.484,0.841-2.295c0.293-0.387,0.706-0.705,1.174-1.039
	c-3.19,1.449-6.298-2.814-3.771-5.396c1.054-1.078,3.176-1.498,4.653-0.133c1.627,1.508,1.38,3.807-0.492,5.289
	c0.57-0.004,0.962-0.268,1.495-0.254c2.853,0.082,4.831,4.008,2.356,6.203c0.931-0.021,2.311,0.074,3.245,0.988
	c1.574,1.539,1.404,4.094-0.57,5.527c1.601-0.918,4.296,0.568,4.682,2.547c0.57,2.912-3.31,5.553-5.8,2.904
	c-0.1,0.896,0.193,2.467-1.221,3.641c2.811-0.525,5.582,3.266,3.219,5.799C65.912,71.721,60.621,67.262,63.963,63.674z
	 M60.545,47.391c0.342,0.838-0.238,1.684-0.441,2.529c0.838-0.199,1.688,0.484,2.529,0.758c-0.268-0.889,0.521-1.791,0.918-2.691
	C62.557,48.375,61.549,47.828,60.545,47.391z M63.928,53.502c0.098,0.895,0.024,1.789-0.758,2.688
	c0.974,0.139,1.949,0.518,2.934,1.311c-0.471-1.18,0.18-2.367,1.141-3.561C66.149,54.432,65.039,54.088,63.928,53.502z
	 M50.81,43.951c0.408,0.994-0.057,1.998-0.438,3.002c0.811-0.135,1.627,0.053,2.453,0.682c0.086-0.867,0.565-1.74,0.994-2.613
	C52.823,45.281,51.817,44.689,50.81,43.951z M54.515,51.006c0.248,0.656-0.398,1.318-0.372,1.977c0.632-0.088,1.266,0.314,1.9,0.451
	c-0.115-0.627,0.545-1.27,0.451-1.896C55.84,51.738,55.176,51.174,54.515,51.006z M58.136,57.352
	c-0.342,0.715-0.292,1.424-0.843,2.141c0.764,0.178,1.532,0.449,2.298,0.998c-0.108-0.812-0.077-1.629,0.522-2.449
	c0.047-0.078,0.023-0.158-0.082-0.236C59.405,57.895,58.773,57.771,58.136,57.352z M44.539,47.178
	c0.415,1.123-0.091,2.26-0.829,3.398c0.969-0.316,1.945,0.053,2.92,0.521c-0.284-0.918,0.399-1.846,0.682-2.77
	C46.392,48.537,45.466,47.869,44.539,47.178z M48.085,54.232c-0.057,0.711-0.097,1.422-0.843,2.141
	c0.843,0.164,1.683,0.156,2.533,0.602c-0.125-0.707,0.271-1.424,0.526-2.135C49.568,55.041,48.825,54.301,48.085,54.232z
	 M51.392,60.582c0.136,0.84-0.541,1.691-1.074,2.537c0.968-0.273,1.942-0.094,2.926,0.834c-0.04-0.92,0.258-1.844,0.521-2.766
	C52.978,61.348,52.184,60.783,51.392,60.582z"/>
</svg>
