<?xml version="1.0" encoding="utf-8"?>
<!-- Generator: Adobe Illustrator 15.0.0, SVG Export Plug-In  -->
<!DOCTYPE svg PUBLIC "-//W3C//DTD SVG 1.1 Tiny//EN" "http://www.w3.org/Graphics/SVG/1.1/DTD/svg11-tiny.dtd" [
	<!ENTITY ns_flows "http://ns.adobe.com/Flows/1.0/">
]>
<svg version="1.1" baseProfile="tiny"
	 xmlns="http://www.w3.org/2000/svg" xmlns:xlink="http://www.w3.org/1999/xlink" xmlns:a="http://ns.adobe.com/AdobeSVGViewerExtensions/3.0/"
	 x="0px" y="0px" width="101px" height="95px" viewBox="-0.06 -0.07 101 95" overflow="visible" xml:space="preserve">
<defs>
</defs>
<path d="M52.86,72.09c-0.03,0.03-0.1,0.01-0.18-0.01c-0.08-0.02-0.47-0.15-0.56-0.13c-0.08,0.02-0.15,0.05-0.31,0.29
	c-0.01,0.01-0.06,0.01-0.09,0.01c-0.03,0-0.06,0.03-0.02,0.08c0.05,0.05,0.09,0.05,0.12,0.08c0.03,0.03,0.02,0.09,0.1,0.11
	c0.04,0.03,0.16,0.09,0.23,0.32c0.01,0.04-0.01,0.24-0.13,0.38c-0.12,0.15-0.67,0.61-1.09,0.89s-0.85,0.57-1.14,0.7
	c-0.01,0-0.08,0.09-0.23,0.25c-0.15,0.16-0.44,0.43-0.64,0.91c0,0.02,0.03,0.04,0.03,0.04c-0.18,0.29-0.54,0.94-0.85,1.83
	c-0.31,0.89-0.28,1.45-0.29,1.97c0.01,0.04,0.1-0.05,0.1,0c0,0.05,0.05,0.04,0.07-0.01c0.01-0.05,0.11-0.34,0.14-0.28
	c0.03,0.06,0.06,0.27,0.1,0.12c0.04-0.15,0.11-0.38,0.18-0.29c0.03,0.04,0.04,0.01,0.07-0.08c0.03-0.09,0.13-0.31,0.17-0.25
	c0.04,0.06,0.08,0.02,0.1-0.05c0.02-0.07,0.14-0.33,0.17-0.29c0.03,0.04,0.07,0.03,0.09-0.03c0.03-0.06,0.2-0.35,0.22-0.35
	c0.03,0.01,0.07,0.07,0.16-0.08c0.09-0.15,0.15-0.25,0.15-0.25c0.04,0.01,0.09,0.05,0.14-0.03c0.04-0.09,0.14-0.33,0.18-0.32
	c0.04,0.01,0.11,0.01,0.13-0.08s0.11-0.26,0.13-0.25c0.02,0,0.1,0.05,0.13-0.07c0.04-0.11,0.08-0.17,0.12-0.22
	c0.04-0.05,0.13-0.18,0.13-0.19c0.1,0.02,0.18,0.04,0.19-0.03c0-0.03-0.04-0.07-0.04-0.07c0.04-0.02,0.1-0.07,0.12-0.07
	c0.02,0,0.12,0.07,0.16-0.04c0.04-0.1,0.03-0.13,0.1-0.11c0.14,0.01,0.07-0.16,0.15-0.16c0.08,0,0.11-0.04,0.15-0.14
	c0.03-0.07,0.11,0.02,0.16-0.05c0.05-0.08,0.02-0.06,0.03-0.09c0.04-0.03,0.13-0.06,0.19-0.11c0.06-0.05,0.17-0.12,0.24-0.18
	c0.07-0.05,0.43-0.33,0.54-0.42c0.1-0.09,0.14-0.07,0.16-0.11c0.02-0.04,0.05-0.07,0.11-0.12c0.06-0.05,0.07-0.1,0.1-0.11
	c0.03-0.01,0.09-0.01,0.15-0.11c0.04-0.02,0.11-0.03,0.13-0.07c-0.01-0.03,0-0.05,0.04-0.07c0.05-0.02,0-0.05,0.06-0.08
	c0.07-0.03,0.07-0.07,0.12-0.08c0.05,0,0.16-0.01,0.22-0.03c0.01,0.03-0.05,0.22-0.1,0.57c-0.05,0.35-0.08,0.47-0.09,0.53
	c-0.01,0.06,0.02,0.08,0.01,0.1c-0.01,0.02-0.11,0.15-0.07,0.22c0.04,0.07,0.11-0.01,0.17-0.04c0.06-0.02,0.09-0.13,0.11-0.12
	c0.02,0.01,0.04,0.16,0.07,0.24c0.02,0.02,0.08,0.08,0.19-0.03c0.11-0.11,0.12-0.09,0.21,0.01c0.05,0.05,0.09,0.05,0.16-0.03
	c0.07-0.08,0.16-0.16,0.24-0.08c0.03,0.03,0.09,0,0.15-0.05c0.05-0.05,0.12-0.16,0.18-0.15c0.05,0.01,0.11,0.06,0.16-0.01
	c0.05-0.07,0.08-0.06,0.09-0.13c0-0.07-0.04-0.3-0.15-0.46s-0.08-0.19-0.05-0.2c0.03-0.02,0.17,0.03,0.26,0.09s0.3,0.14,0.38,0.16
	c0.08,0.02,0.17-0.01,0.18-0.07c0.01-0.07,0.03-0.13,0.05-0.16c0.02-0.03,0.12-0.1,0.14-0.15c0.01-0.05-0.04-0.19-0.02-0.23
	c0.01-0.04,0.15-0.16,0.16-0.2c0.04-0.11-0.1-0.17-0.09-0.2c0.01-0.04,0.06-0.04,0.07-0.1c0.01-0.06-0.08-0.14-0.07-0.17
	c0-0.03,0-0.16,0.03-0.21c0.03-0.05,0.09-0.08,0.1-0.14c0.01-0.07-0.1-0.16-0.29-0.16c0-0.03,0.1-0.08,0.11-0.12
	c0.01-0.04,0-0.1,0.01-0.16c0.01-0.06-0.08-0.1-0.12-0.07s-0.19,0.12-0.33,0.14c-0.14,0.02-0.68,0.12-0.94,0.27
	c-0.03-0.04-0.14-0.1-0.12-0.19c0.03-0.09,0.08-0.29,0.09-0.37c0.02-0.04,0.03-0.12,0.04-0.16c0.01-0.04,0.05-0.11,0.04-0.13
	c0-0.02,0.04-0.08,0.04-0.1c0-0.03,0.01-0.07,0.02-0.09c0.01-0.02,0.01-0.11,0.01-0.14c0.01-0.04,0.04-0.07,0.04-0.13
	c0.04-0.07,0.02-0.12,0.02-0.17c0.05-0.04,0.08-0.17,0.03-0.32c0-0.03,0.02-0.02,0.05-0.01c0.03,0,0.06-0.01,0.07-0.07
	c0.01-0.06,0.01-0.09,0.03-0.13c0.02-0.04,0.05-0.14,0.05-0.19c0.01-0.04,0.03-0.1,0.03-0.14c0.02-0.04,0.03-0.06,0.07-0.07
	c0.03-0.01,0.06-0.1,0.06-0.16c0.01-0.02,0.07-0.03,0.08-0.07c0.01-0.04-0.04-0.17-0.03-0.2c0.01-0.03,0.07-0.11,0.14-0.12
	c0.07-0.01,0.11-0.14,0.12-0.2c0.06-0.08,0.15-0.13,0.18-0.25c0.07-0.07,0.16-0.17,0.17-0.25c0.05-0.05,0.17-0.15,0.21-0.31
	c0.08-0.04,0.21-0.19,0.25-0.3c0.09-0.09,0.21-0.2,0.22-0.25c0.01-0.05-0.06-0.06,0-0.09c0.06-0.03,0.18-0.03,0.19-0.08
	c0.01-0.05-0.06-0.11-0.02-0.13c0.04-0.02,0.18-0.05,0.2-0.1c0.02-0.05-0.15-0.09-0.1-0.12s0.15,0.01,0.16-0.04
	s-0.11-0.09-0.08-0.13c0.02-0.04-0.09-0.03-0.13-0.04c-0.43-0.02-1.27,0-2.53,1.02c-0.01-0.01,0.01-0.06,0-0.07
	c-0.01-0.01-0.09,0.04-0.18,0.12c-0.09,0.09-0.42,0.53-0.46,0.61c-0.05,0.08-0.05,0.16-0.05,0.22c0,0.07-0.13,0.83-0.2,1.09
	C53.12,71.44,53.05,71.87,52.86,72.09z"/>
<path d="M18.89,43.93c-0.1,0.11-0.36,0.04-0.65-0.06c-0.29-0.09-1.74-0.55-2.06-0.48c-0.31,0.07-0.57,0.19-1.15,1.08
	c-0.06,0.05-0.22,0.06-0.34,0.05c-0.12-0.01-0.23,0.12-0.07,0.29c0.17,0.17,0.33,0.19,0.45,0.31c0.11,0.12,0.06,0.33,0.38,0.39
	c0.16,0.1,0.58,0.34,0.82,1.19c0.04,0.17-0.07,0.88-0.52,1.4c-0.46,0.54-2.51,2.21-4.05,3.24c-1.55,1.03-3.16,2.08-4.23,2.56
	c-0.05,0.01-0.31,0.35-0.85,0.93c-0.54,0.58-1.66,1.58-2.4,3.32c0,0.07,0.11,0.15,0.11,0.15c-0.68,1.05-2.02,3.44-3.19,6.72
	c-1.16,3.27-1.08,5.34-1.13,7.24c0.03,0.13,0.37-0.19,0.39-0.01c0.01,0.17,0.2,0.15,0.25-0.04c0.04-0.18,0.42-1.24,0.53-1.03
	c0.11,0.21,0.22,0.98,0.38,0.43c0.16-0.54,0.43-1.38,0.69-1.07c0.12,0.13,0.15,0.05,0.26-0.29c0.11-0.33,0.47-1.15,0.63-0.91
	c0.16,0.24,0.28,0.08,0.36-0.2c0.08-0.27,0.5-1.2,0.63-1.07c0.12,0.13,0.23,0.09,0.35-0.12c0.12-0.22,0.75-1.31,0.84-1.27
	c0.09,0.03,0.26,0.25,0.61-0.3c0.34-0.55,0.57-0.92,0.57-0.92c0.13,0.04,0.35,0.21,0.5-0.12c0.15-0.34,0.54-1.22,0.67-1.16
	c0.14,0.06,0.4,0.06,0.5-0.28c0.1-0.34,0.4-0.94,0.49-0.92C8.72,63,9,63.16,9.14,62.75c0.13-0.41,0.28-0.62,0.44-0.81
	c0.16-0.19,0.5-0.65,0.52-0.71c0.36,0.06,0.67,0.18,0.69-0.09c0-0.13-0.16-0.25-0.16-0.25c0.15-0.08,0.36-0.25,0.44-0.27
	c0.08-0.01,0.44,0.24,0.59-0.13c0.15-0.38,0.13-0.47,0.38-0.42c0.5,0.04,0.28-0.59,0.56-0.59c0.28,0,0.42-0.16,0.54-0.5
	c0.11-0.24,0.4,0.09,0.59-0.2c0.17-0.29,0.07-0.22,0.13-0.33c0.14-0.12,0.48-0.23,0.7-0.41c0.21-0.19,0.63-0.46,0.9-0.66
	c0.27-0.2,1.6-1.21,1.98-1.53c0.38-0.32,0.5-0.25,0.59-0.39c0.09-0.14,0.18-0.26,0.41-0.45c0.23-0.19,0.25-0.36,0.37-0.4
	c0.13-0.05,0.34-0.04,0.55-0.42c0.15-0.08,0.42-0.09,0.49-0.27c-0.04-0.11-0.01-0.17,0.16-0.25c0.18-0.07-0.02-0.2,0.23-0.3
	c0.24-0.11,0.26-0.26,0.43-0.27c0.19-0.01,0.61-0.04,0.78-0.12c0.06,0.12-0.2,0.82-0.4,2.12c-0.19,1.3-0.3,1.74-0.35,1.96
	c-0.05,0.21,0.07,0.29,0.05,0.37c-0.03,0.08-0.41,0.57-0.27,0.82c0.14,0.26,0.41-0.05,0.63-0.12c0.22-0.07,0.33-0.47,0.41-0.45
	c0.08,0.03,0.13,0.59,0.24,0.89c0.08,0.07,0.31,0.3,0.7-0.08c0.39-0.38,0.43-0.33,0.79,0.03c0.2,0.18,0.33,0.19,0.59-0.09
	c0.26-0.29,0.58-0.58,0.88-0.3c0.12,0.1,0.35,0,0.55-0.17c0.2-0.18,0.46-0.58,0.65-0.54c0.2,0.04,0.4,0.21,0.6-0.03
	c0.21-0.24,0.32-0.23,0.33-0.48c0.01-0.25-0.14-1.12-0.53-1.7c-0.38-0.58-0.3-0.68-0.18-0.75c0.12-0.07,0.61,0.1,0.93,0.36
	c0.32,0.26,1.11,0.53,1.41,0.61c0.3,0.09,0.59-0.01,0.65-0.26c0.05-0.24,0.12-0.48,0.19-0.59c0.08-0.1,0.46-0.37,0.51-0.54
	c0.05-0.17-0.12-0.69-0.07-0.84c0.06-0.13,0.54-0.57,0.59-0.74c0.14-0.41-0.35-0.64-0.32-0.77c0.03-0.13,0.2-0.13,0.24-0.36
	c0.05-0.23-0.28-0.52-0.26-0.63c0.03-0.12,0.01-0.58,0.13-0.78c0.12-0.2,0.33-0.28,0.38-0.52c0.05-0.23-0.37-0.6-1.05-0.61
	c0-0.13,0.37-0.27,0.41-0.43c0.04-0.16,0-0.36,0.06-0.58c0.06-0.22-0.28-0.38-0.43-0.27c-0.15,0.11-0.72,0.43-1.25,0.5
	c-0.53,0.07-2.51,0.42-3.46,0.96c-0.11-0.14-0.53-0.37-0.42-0.71c0.09-0.34,0.3-1.05,0.35-1.35c0.06-0.16,0.11-0.43,0.16-0.57
	c0.04-0.14,0.18-0.41,0.16-0.49c-0.02-0.08,0.15-0.28,0.15-0.36c0-0.08,0.02-0.25,0.08-0.32c0.05-0.07,0.05-0.39,0.02-0.51
	c0.04-0.14,0.14-0.26,0.15-0.48c0.13-0.24,0.08-0.46,0.09-0.62c0.17-0.13,0.3-0.62,0.11-1.2c0.01-0.12,0.09-0.07,0.19-0.03
	c0.11,0.02,0.23-0.03,0.27-0.24c0.04-0.21,0.03-0.36,0.11-0.49c0.07-0.13,0.19-0.51,0.21-0.71c0.06-0.13,0.11-0.36,0.11-0.51
	c0.07-0.16,0.13-0.23,0.24-0.27c0.11-0.03,0.23-0.36,0.23-0.59c0.05-0.08,0.26-0.13,0.29-0.28c0.03-0.15-0.13-0.64-0.1-0.73
	c0.03-0.08,0.28-0.39,0.52-0.42c0.24-0.04,0.4-0.51,0.46-0.73c0.23-0.29,0.57-0.48,0.68-0.92c0.24-0.23,0.62-0.61,0.65-0.91
	c0.18-0.19,0.62-0.56,0.79-1.12c0.3-0.16,0.8-0.71,0.94-1.11c0.33-0.33,0.77-0.74,0.82-0.92c0.04-0.17-0.23-0.23-0.01-0.33
	c0.22-0.1,0.65-0.12,0.72-0.3c0.05-0.18-0.21-0.42-0.05-0.5c0.16-0.08,0.67-0.18,0.73-0.38c0.07-0.19-0.55-0.35-0.35-0.44
	c0.2-0.09,0.54,0.03,0.61-0.14c0.07-0.18-0.39-0.36-0.31-0.49c0.09-0.13-0.32-0.12-0.5-0.15c-1.59-0.09-4.69-0.05-9.38,3.68
	c-0.04-0.04,0.04-0.22,0-0.24c-0.05-0.03-0.35,0.13-0.68,0.45c-0.33,0.31-1.55,1.93-1.73,2.25c-0.18,0.31-0.19,0.58-0.2,0.82
	c0,0.24-0.49,3.06-0.75,4C19.91,41.54,19.63,43.14,18.89,43.93z"/>
<path d="M44.35,55.35c-0.05,0.03-0.13-0.02-0.23-0.08c-0.1-0.06-0.59-0.35-0.71-0.35c-0.12,0-0.22,0.02-0.51,0.3
	c-0.03,0.01-0.08,0-0.13-0.01c-0.04-0.01-0.09,0.03-0.05,0.1c0.05,0.08,0.11,0.1,0.13,0.15c0.03,0.05,0,0.13,0.11,0.17
	c0.05,0.05,0.18,0.17,0.2,0.5c0,0.07-0.1,0.31-0.31,0.47c-0.21,0.16-1.1,0.59-1.76,0.83c-0.65,0.24-1.33,0.49-1.76,0.57
	c-0.02,0-0.14,0.11-0.39,0.27c-0.24,0.16-0.74,0.43-1.16,1c-0.01,0.03,0.03,0.07,0.03,0.07c-0.34,0.33-1.03,1.08-1.74,2.18
	c-0.7,1.09-0.85,1.86-1.03,2.54c0,0.05,0.15-0.04,0.14,0.03c-0.01,0.06,0.06,0.07,0.1,0.01c0.03-0.07,0.26-0.42,0.28-0.33
	c0.02,0.08-0.01,0.38,0.1,0.19c0.11-0.18,0.28-0.47,0.34-0.33c0.03,0.06,0.05,0.03,0.12-0.08s0.27-0.38,0.31-0.28
	c0.04,0.1,0.1,0.06,0.15-0.04c0.05-0.09,0.29-0.39,0.33-0.34c0.04,0.06,0.08,0.05,0.13-0.01c0.06-0.07,0.38-0.41,0.42-0.39
	c0.03,0.02,0.07,0.11,0.24-0.06c0.18-0.18,0.29-0.29,0.29-0.29c0.04,0.03,0.11,0.11,0.19,0c0.08-0.11,0.3-0.4,0.34-0.36
	c0.04,0.03,0.14,0.05,0.2-0.06c0.07-0.11,0.23-0.3,0.26-0.29c0.03,0.01,0.12,0.09,0.2-0.04c0.08-0.14,0.16-0.2,0.23-0.26
	s0.24-0.2,0.25-0.22c0.13,0.05,0.23,0.12,0.26,0.03c0.01-0.05-0.04-0.11-0.04-0.11c0.06-0.01,0.15-0.06,0.18-0.06
	c0.03,0,0.14,0.13,0.23,0c0.09-0.12,0.09-0.16,0.17-0.12c0.18,0.06,0.16-0.19,0.25-0.16c0.1,0.03,0.16-0.02,0.24-0.14
	c0.06-0.08,0.14,0.07,0.23-0.02c0.09-0.09,0.04-0.07,0.08-0.11c0.06-0.03,0.19-0.04,0.29-0.09c0.09-0.05,0.27-0.12,0.39-0.16
	c0.11-0.05,0.69-0.3,0.85-0.39c0.16-0.08,0.2-0.05,0.25-0.09c0.04-0.04,0.09-0.08,0.19-0.13c0.1-0.05,0.12-0.11,0.17-0.11
	c0.05,0,0.13,0.01,0.24-0.11c0.06-0.01,0.16,0,0.2-0.05c0-0.04,0.01-0.07,0.08-0.08c0.07-0.01,0.01-0.08,0.11-0.09
	c0.09-0.02,0.11-0.07,0.18-0.06c0.07,0.01,0.23,0.03,0.3,0.02c0.01,0.05-0.14,0.28-0.33,0.74s-0.26,0.61-0.3,0.68
	c-0.04,0.07,0,0.11-0.01,0.14c-0.01,0.03-0.2,0.17-0.17,0.28c0.03,0.11,0.16,0.02,0.24,0.01c0.09-0.01,0.16-0.14,0.19-0.13
	c0.03,0.02,0,0.23,0.01,0.35c0.02,0.03,0.09,0.13,0.27,0.03c0.17-0.11,0.18-0.08,0.28,0.08c0.05,0.08,0.11,0.1,0.23,0.01
	c0.12-0.08,0.26-0.16,0.35-0.03c0.04,0.05,0.13,0.03,0.22-0.01c0.09-0.05,0.21-0.17,0.28-0.14c0.07,0.03,0.13,0.11,0.23,0.04
	c0.1-0.07,0.14-0.05,0.16-0.15c0.03-0.09,0.05-0.42-0.05-0.67c-0.09-0.24-0.05-0.27,0-0.29c0.05-0.01,0.22,0.09,0.31,0.21
	c0.09,0.12,0.36,0.29,0.46,0.35c0.1,0.05,0.22,0.04,0.26-0.04s0.08-0.17,0.12-0.2c0.04-0.03,0.2-0.1,0.23-0.15
	c0.03-0.06,0.01-0.27,0.05-0.31c0.03-0.04,0.24-0.16,0.28-0.22c0.08-0.14-0.07-0.27-0.05-0.31c0.02-0.04,0.08-0.03,0.12-0.11
	c0.04-0.08-0.06-0.21-0.04-0.25c0.02-0.04,0.05-0.21,0.11-0.27c0.06-0.07,0.14-0.08,0.18-0.16c0.04-0.08-0.08-0.25-0.33-0.31
	c0.01-0.05,0.16-0.07,0.19-0.12c0.03-0.05,0.03-0.13,0.07-0.2c0.04-0.08-0.07-0.16-0.13-0.13c-0.06,0.03-0.3,0.1-0.5,0.08
	c-0.2-0.02-0.95-0.07-1.35,0.05c-0.03-0.06-0.16-0.17-0.09-0.29c0.06-0.12,0.2-0.36,0.24-0.46c0.04-0.05,0.08-0.15,0.11-0.2
	c0.03-0.05,0.1-0.13,0.1-0.16c0-0.03,0.07-0.09,0.08-0.12c0-0.03,0.03-0.09,0.06-0.11c0.02-0.02,0.05-0.14,0.05-0.18
	c0.03-0.05,0.08-0.08,0.1-0.16c0.07-0.08,0.07-0.16,0.08-0.22c0.07-0.03,0.16-0.2,0.14-0.43c0.02-0.04,0.04-0.01,0.07,0
	c0.04,0.01,0.09,0.01,0.12-0.07c0.03-0.07,0.04-0.13,0.08-0.17c0.04-0.04,0.12-0.17,0.14-0.24c0.03-0.04,0.07-0.12,0.08-0.18
	c0.04-0.05,0.07-0.07,0.11-0.07c0.04-0.01,0.11-0.12,0.13-0.2c0.03-0.02,0.1-0.03,0.13-0.08c0.03-0.05,0.01-0.24,0.03-0.27
	c0.02-0.03,0.13-0.12,0.23-0.11c0.09,0,0.19-0.15,0.23-0.23c0.11-0.09,0.25-0.13,0.32-0.27c0.11-0.07,0.28-0.17,0.32-0.28
	c0.08-0.05,0.27-0.15,0.38-0.34c0.12-0.03,0.35-0.19,0.44-0.32c0.15-0.1,0.35-0.2,0.38-0.27c0.03-0.05-0.06-0.1,0.03-0.12
	c0.08-0.02,0.25,0.01,0.28-0.04c0.04-0.06-0.04-0.17,0.03-0.19c0.07-0.01,0.26-0.01,0.3-0.07c0.04-0.07-0.17-0.18-0.09-0.19
	c0.08-0.02,0.19,0.06,0.24,0c0.04-0.06-0.11-0.17-0.07-0.2c0.04-0.04-0.11-0.07-0.17-0.1c-0.57-0.17-1.71-0.42-3.74,0.54
	c-0.01-0.02,0.03-0.07,0.02-0.09c-0.01-0.01-0.14,0.02-0.28,0.11c-0.15,0.09-0.73,0.57-0.82,0.67c-0.09,0.1-0.12,0.19-0.14,0.28
	c-0.03,0.09-0.44,1.08-0.62,1.39C44.93,54.56,44.69,55.12,44.35,55.35z"/>
<path d="M32.9,77.02c0,0.08-0.13,0.13-0.28,0.18s-0.87,0.33-0.97,0.45c-0.11,0.13-0.17,0.26-0.12,0.79
	c-0.01,0.04-0.07,0.09-0.12,0.13c-0.05,0.04-0.05,0.12,0.07,0.14c0.12,0.01,0.19-0.03,0.28-0.01s0.12,0.11,0.27,0.04
	c0.1-0.01,0.34-0.04,0.7,0.22c0.07,0.05,0.25,0.37,0.23,0.73c-0.01,0.35-0.31,1.67-0.61,2.56c-0.3,0.9-0.61,1.82-0.9,2.35
	c-0.01,0.02-0.01,0.24-0.04,0.64c-0.04,0.39-0.17,1.15,0.08,2.08c0.02,0.03,0.09,0.02,0.09,0.02c0.05,0.64,0.27,2.01,0.82,3.69
	c0.56,1.67,1.24,2.47,1.81,3.25c0.05,0.05,0.09-0.19,0.15-0.13c0.06,0.06,0.13,0,0.09-0.09c-0.04-0.09-0.22-0.63-0.11-0.58
	c0.11,0.04,0.39,0.32,0.28,0.06c-0.11-0.27-0.26-0.69-0.06-0.65c0.09,0.02,0.07-0.03,0.02-0.2c-0.06-0.17-0.17-0.61-0.03-0.57
	s0.13-0.06,0.08-0.19c-0.05-0.13-0.17-0.63-0.08-0.63c0.09,0.01,0.12-0.04,0.1-0.16c-0.03-0.12-0.11-0.76-0.07-0.77
	c0.04-0.02,0.18,0.02,0.15-0.31c-0.04-0.33-0.06-0.55-0.06-0.55c0.06-0.03,0.21-0.03,0.16-0.2c-0.04-0.18-0.16-0.65-0.09-0.67
	c0.07-0.02,0.18-0.11,0.12-0.27c-0.07-0.17-0.13-0.5-0.09-0.52c0.03-0.02,0.2-0.05,0.12-0.25c-0.07-0.2-0.08-0.33-0.08-0.46
	c0.01-0.13-0.01-0.42-0.01-0.44c0.16-0.09,0.32-0.14,0.25-0.25c-0.04-0.05-0.14-0.05-0.14-0.05c0.04-0.08,0.07-0.21,0.09-0.24
	c0.02-0.03,0.25-0.04,0.19-0.25c-0.05-0.2-0.09-0.23,0.02-0.28c0.22-0.14-0.07-0.33,0.04-0.41c0.11-0.09,0.12-0.2,0.06-0.38
	c-0.04-0.13,0.19-0.09,0.17-0.26c-0.02-0.17-0.04-0.11-0.05-0.17c0.01-0.09,0.12-0.24,0.15-0.38c0.03-0.14,0.11-0.38,0.16-0.54
	c0.04-0.17,0.26-0.99,0.31-1.23c0.05-0.25,0.12-0.25,0.11-0.34c-0.01-0.08,0-0.16,0.03-0.31c0.03-0.15-0.01-0.22,0.03-0.27
	c0.04-0.06,0.12-0.12,0.09-0.35c0.04-0.08,0.14-0.17,0.12-0.25c-0.05-0.03-0.07-0.07-0.02-0.15c0.05-0.08-0.07-0.08,0-0.19
	c0.07-0.12,0.02-0.19,0.09-0.25c0.08-0.06,0.23-0.21,0.28-0.29c0.06,0.03,0.18,0.39,0.51,0.97c0.33,0.58,0.42,0.79,0.47,0.89
	c0.04,0.1,0.12,0.09,0.13,0.13c0.01,0.04,0.01,0.35,0.15,0.42c0.14,0.06,0.14-0.15,0.21-0.25s-0.01-0.29,0.03-0.31
	s0.24,0.2,0.38,0.28c0.05,0,0.21,0.03,0.26-0.25c0.04-0.28,0.07-0.27,0.33-0.24c0.13,0.01,0.19-0.03,0.21-0.22
	c0.01-0.2,0.05-0.41,0.26-0.39c0.08,0,0.14-0.11,0.16-0.24c0.03-0.13,0-0.37,0.09-0.42c0.09-0.05,0.23-0.04,0.23-0.2
	c0.01-0.16,0.05-0.19-0.02-0.29c-0.08-0.1-0.41-0.41-0.74-0.52c-0.34-0.11-0.33-0.18-0.31-0.25c0.03-0.07,0.27-0.15,0.49-0.15
	c0.21,0,0.61-0.14,0.75-0.2c0.15-0.06,0.23-0.19,0.18-0.3c-0.05-0.11-0.11-0.23-0.11-0.29c0-0.07,0.06-0.29,0.03-0.38
	c-0.03-0.08-0.27-0.24-0.28-0.31c-0.02-0.08,0.03-0.4,0-0.48c-0.08-0.21-0.34-0.15-0.36-0.21c-0.04-0.06,0.03-0.12-0.02-0.22
	c-0.05-0.11-0.28-0.12-0.3-0.18c-0.03-0.05-0.17-0.24-0.19-0.35c-0.01-0.12,0.05-0.21-0.01-0.33c-0.05-0.11-0.34-0.13-0.61,0.08
	c-0.04-0.05,0.06-0.23,0.03-0.3c-0.03-0.08-0.11-0.14-0.16-0.25c-0.05-0.11-0.23-0.06-0.26,0.03c-0.03,0.08-0.15,0.4-0.34,0.59
	c-0.19,0.19-0.87,0.96-1.08,1.47c-0.08-0.02-0.32,0.01-0.39-0.15c-0.07-0.16-0.21-0.51-0.28-0.65c-0.02-0.08-0.09-0.2-0.11-0.28
	c-0.03-0.07-0.06-0.22-0.09-0.24c-0.03-0.03-0.03-0.16-0.05-0.19c-0.03-0.04-0.07-0.11-0.07-0.15c0-0.04-0.1-0.17-0.15-0.21
	c-0.03-0.07-0.02-0.15-0.09-0.24c-0.02-0.14-0.11-0.21-0.16-0.28c0.03-0.11-0.07-0.34-0.33-0.51c-0.03-0.05,0.01-0.06,0.07-0.08
	c0.05-0.03,0.09-0.08,0.04-0.18c-0.05-0.09-0.1-0.15-0.11-0.23c-0.01-0.08-0.08-0.26-0.14-0.35c-0.01-0.07-0.07-0.18-0.11-0.24
	c-0.03-0.09-0.02-0.13,0.01-0.18c0.03-0.05-0.03-0.22-0.09-0.31c0-0.05,0.06-0.13,0.03-0.2c-0.03-0.07-0.25-0.22-0.27-0.27
	c-0.01-0.04-0.01-0.24,0.08-0.33c0.08-0.1,0-0.33-0.04-0.44c-0.01-0.19,0.07-0.37-0.02-0.58c0.02-0.17,0.06-0.44-0.03-0.57
	c0.01-0.13,0.07-0.42-0.04-0.7c0.07-0.16,0.1-0.53,0.03-0.74c0.03-0.24,0.08-0.54,0.04-0.62c-0.04-0.08-0.16-0.02-0.1-0.13
	c0.05-0.11,0.23-0.25,0.19-0.34c-0.04-0.09-0.22-0.11-0.18-0.18c0.04-0.08,0.21-0.28,0.17-0.38c-0.03-0.1-0.33,0.03-0.27-0.07
	c0.05-0.1,0.22-0.16,0.2-0.25c-0.03-0.09-0.27-0.02-0.27-0.1c-0.01-0.08-0.17,0.05-0.25,0.1c-0.66,0.46-1.89,1.45-2.59,4.4
	c-0.03,0-0.05-0.1-0.08-0.1c-0.03,0-0.09,0.16-0.13,0.39c-0.03,0.23-0.01,1.26,0.01,1.44c0.03,0.18,0.11,0.29,0.18,0.39
	c0.07,0.1,0.76,1.38,0.95,1.84C32.57,75.74,32.95,76.47,32.9,77.02z"/>
<path d="M46.46,10.65c0.23-0.07,0.3-0.47,0.36-0.94c0.06-0.46,0.39-2.76,0.7-3.15c0.31-0.39,0.65-0.65,2.32-0.86
	c0.11-0.04,0.23-0.26,0.3-0.43c0.07-0.18,0.34-0.24,0.46,0.11c0.13,0.34,0.05,0.58,0.15,0.82c0.1,0.24,0.43,0.3,0.31,0.78
	c0.03,0.29,0.1,1.02,1.15,1.92c0.21,0.17,1.29,0.5,2.37,0.23c1.08-0.27,4.87-1.96,7.4-3.39c2.53-1.43,5.14-2.95,6.55-4.1
	c0.05-0.05,0.72-0.19,1.92-0.55c1.19-0.35,3.39-1.21,6.4-1.08C76.96,0.05,77,0.26,77,0.26c1.98-0.23,6.32-0.47,11.81,0.12
	c5.48,0.59,8.4,2.09,11.17,3.28c0.17,0.12-0.53,0.38-0.28,0.51c0.24,0.14,0.08,0.38-0.22,0.32c-0.3-0.06-2.07-0.26-1.85,0.04
	c0.22,0.3,1.26,0.95,0.37,0.81c-0.89-0.14-2.27-0.32-2,0.23c0.12,0.26-0.03,0.24-0.58,0.17C94.85,5.67,93.43,5.62,93.66,6
	c0.23,0.38-0.08,0.44-0.53,0.36c-0.44-0.08-2.06-0.11-1.97,0.15c0.09,0.26-0.03,0.39-0.42,0.39s-2.38,0.16-2.4,0.3
	c-0.02,0.14,0.19,0.52-0.84,0.63c-1.03,0.11-1.71,0.16-1.71,0.16c-0.03,0.2,0.07,0.62-0.51,0.61c-0.58-0.01-2.11-0.08-2.12,0.15
	c-0.01,0.22-0.19,0.59-0.74,0.5c-0.55-0.09-1.62-0.07-1.65,0.05c-0.04,0.12,0,0.62-0.68,0.53c-0.68-0.09-1.08-0.02-1.46,0.07
	c-0.38,0.09-1.27,0.24-1.38,0.23c-0.16,0.53-0.2,1.04-0.59,0.89c-0.18-0.09-0.25-0.38-0.25-0.38c-0.21,0.16-0.61,0.33-0.68,0.42
	c-0.08,0.09,0.05,0.77-0.6,0.72c-0.64-0.04-0.76-0.14-0.85,0.24c-0.29,0.72-1.04-0.01-1.22,0.37c-0.18,0.39-0.52,0.47-1.09,0.41
	c-0.41-0.01-0.15,0.62-0.67,0.67c-0.53,0.05-0.37-0.05-0.56-0.03c-0.27,0.11-0.65,0.51-1.06,0.68c-0.41,0.17-1.09,0.55-1.56,0.8
	c-0.46,0.25-2.83,1.39-3.54,1.71c-0.71,0.31-0.7,0.52-0.96,0.55c-0.26,0.03-0.49,0.08-0.92,0.27c-0.44,0.19-0.69,0.09-0.83,0.24
	c-0.15,0.15-0.27,0.43-0.97,0.47c-0.22,0.15-0.42,0.52-0.72,0.5c-0.13-0.12-0.24-0.14-0.46,0.06c-0.22,0.2-0.28-0.16-0.6,0.1
	c-0.32,0.27-0.54,0.17-0.69,0.42c-0.14,0.25-0.47,0.8-0.69,1c0.13,0.16,1.31,0.27,3.31,0.87c2,0.59,2.71,0.76,3.05,0.82
	c0.34,0.07,0.37,0.3,0.5,0.31c0.13,0.02,1.09-0.19,1.36,0.18c0.28,0.36-0.35,0.53-0.6,0.78c-0.25,0.26-0.9,0.15-0.92,0.27
	c-0.01,0.12,0.77,0.58,1.11,0.93c0.05,0.15,0.22,0.62-0.6,0.91c-0.82,0.28-0.76,0.37-0.49,1.11c0.12,0.39,0.05,0.58-0.53,0.75
	s-1.22,0.41-1.02,1.01c0.05,0.23-0.24,0.48-0.63,0.63c-0.39,0.16-1.13,0.24-1.22,0.54c-0.08,0.3,0.04,0.68-0.46,0.8
	s-0.53,0.28-0.9,0.13c-0.37-0.15-1.52-0.94-2.09-1.86c-0.57-0.92-0.77-0.86-0.96-0.74c-0.19,0.12-0.27,0.91-0.12,1.52
	c0.15,0.62,0.01,1.88-0.07,2.34c-0.09,0.46-0.43,0.81-0.81,0.71c-0.38-0.09-0.78-0.16-0.98-0.13c-0.2,0.04-0.85,0.38-1.13,0.34
	c-0.27-0.04-0.91-0.64-1.15-0.65c-0.24-0.01-1.2,0.35-1.47,0.32c-0.68-0.09-0.68-0.91-0.89-0.96c-0.21-0.05-0.33,0.18-0.69,0.09
	c-0.35-0.09-0.55-0.73-0.74-0.78c-0.19-0.04-0.84-0.38-1.21-0.35c-0.37,0.03-0.62,0.27-1,0.17c-0.38-0.09-0.62-0.9-0.16-1.85
	c-0.18-0.08-0.65,0.32-0.9,0.27c-0.25-0.05-0.51-0.23-0.87-0.3c-0.36-0.07-0.35-0.64-0.09-0.77c0.26-0.13,1.11-0.7,1.57-1.37
	c0.46-0.68,2.31-3.16,3.73-4.1c-0.14-0.24-0.18-0.97-0.73-1.07c-0.55-0.09-1.71-0.29-2.17-0.41c-0.28-0.02-0.7-0.13-0.93-0.17
	c-0.24-0.03-0.71-0.03-0.81-0.11c-0.1-0.08-0.5,0.01-0.62-0.04c-0.12-0.06-0.37-0.13-0.5-0.11c-0.13,0.03-0.6-0.18-0.76-0.31
	c-0.23-0.03-0.46,0.02-0.78-0.13c-0.44,0.02-0.71-0.2-0.96-0.29c-0.3,0.14-1.11,0-1.79-0.65c-0.19-0.07-0.16,0.08-0.19,0.24
	c-0.04,0.16-0.19,0.31-0.53,0.22c-0.34-0.08-0.54-0.2-0.78-0.18c-0.24,0.01-0.88-0.08-1.17-0.18c-0.23-0.01-0.59-0.1-0.82-0.19
	c-0.28-0.01-0.41,0.03-0.54,0.15c-0.12,0.13-0.68,0.07-1.01-0.07c-0.15,0.02-0.36,0.26-0.59,0.21c-0.23-0.05-0.83-0.61-0.98-0.62
	c-0.15-0.02-0.75,0.12-0.97,0.43c-0.21,0.3-1,0.22-1.36,0.15c-0.58,0.11-1.08,0.45-1.77,0.32c-0.5,0.18-1.3,0.44-1.75,0.28
	c-0.39,0.11-1.23,0.47-2.15,0.33c-0.43,0.31-1.55,0.61-2.24,0.54c-0.7,0.23-1.59,0.57-1.86,0.51c-0.27-0.05-0.17-0.45-0.47-0.23
	c-0.29,0.23-0.61,0.82-0.9,0.78s-0.46-0.58-0.69-0.4c-0.22,0.18-0.71,0.79-1.03,0.74c-0.32-0.04-0.13-0.98-0.39-0.77
	c-0.27,0.21-0.32,0.76-0.62,0.74c-0.3-0.02-0.24-0.77-0.49-0.74c-0.24,0.03,0.05-0.53,0.13-0.78c0.94-2.24,3.11-6.47,11.65-10.4
	c-0.03-0.09-0.34-0.08-0.35-0.17c-0.01-0.08,0.42-0.39,1.1-0.63c0.68-0.24,3.83-0.82,4.4-0.87c0.57-0.05,0.96,0.13,1.31,0.28
	c0.35,0.15,4.73,1.37,6.25,1.64C42.33,10.44,44.81,11.12,46.46,10.65z"/>
<path d="M59.96,57.73c0.04-0.03,0.02-0.11-0.01-0.2c-0.03-0.09-0.17-0.52-0.14-0.62c0.03-0.1,0.08-0.17,0.41-0.38
	c0.02-0.02,0.03-0.07,0.02-0.1c0-0.04,0.05-0.08,0.11-0.03c0.06,0.05,0.06,0.09,0.11,0.13c0.04,0.03,0.12,0.01,0.13,0.11
	c0.03,0.05,0.11,0.17,0.42,0.22c0.06,0.01,0.32-0.04,0.52-0.19c0.2-0.15,0.84-0.81,1.24-1.31c0.4-0.5,0.81-1.01,1-1.35
	c0-0.01,0.13-0.1,0.35-0.28s0.6-0.54,1.24-0.81c0.03,0,0.05,0.03,0.05,0.03c0.39-0.23,1.28-0.7,2.49-1.13
	c1.2-0.43,1.95-0.46,2.63-0.52c0.05,0.01-0.08,0.12-0.01,0.12c0.06,0,0.05,0.06-0.01,0.08c-0.07,0.02-0.46,0.16-0.38,0.19
	s0.35,0.04,0.15,0.11c-0.2,0.06-0.5,0.16-0.4,0.23c0.05,0.03,0.01,0.04-0.11,0.09c-0.12,0.04-0.42,0.17-0.34,0.22
	c0.08,0.04,0.02,0.08-0.08,0.11s-0.44,0.18-0.4,0.21c0.04,0.04,0.03,0.07-0.05,0.11c-0.08,0.04-0.49,0.26-0.47,0.28
	c0.01,0.03,0.09,0.07-0.12,0.19c-0.21,0.12-0.34,0.19-0.34,0.19c0.01,0.04,0.07,0.1-0.05,0.16c-0.12,0.05-0.45,0.19-0.43,0.23
	c0.02,0.04,0.01,0.12-0.11,0.16c-0.12,0.04-0.34,0.15-0.34,0.17c0,0.03,0.06,0.11-0.09,0.16c-0.15,0.05-0.23,0.1-0.3,0.16
	c-0.07,0.06-0.24,0.17-0.27,0.17c0.01,0.11,0.05,0.2-0.04,0.21c-0.04,0-0.09-0.04-0.09-0.04c-0.03,0.05-0.1,0.12-0.11,0.14
	c-0.01,0.03,0.08,0.13-0.06,0.18c-0.14,0.06-0.17,0.05-0.16,0.12c0,0.15-0.22,0.1-0.22,0.18c0,0.08-0.07,0.13-0.19,0.18
	c-0.09,0.04,0.03,0.12-0.08,0.18c-0.11,0.06-0.08,0.03-0.12,0.05c-0.05,0.05-0.09,0.15-0.16,0.22s-0.18,0.2-0.25,0.29
	c-0.07,0.09-0.47,0.52-0.58,0.64c-0.12,0.12-0.1,0.16-0.15,0.19c-0.05,0.03-0.09,0.06-0.17,0.13c-0.07,0.08-0.13,0.08-0.15,0.12
	s-0.02,0.1-0.16,0.17c-0.03,0.05-0.04,0.13-0.1,0.16c-0.04-0.01-0.06,0-0.09,0.05s-0.07,0-0.12,0.08c-0.04,0.08-0.1,0.08-0.11,0.14
	c-0.01,0.06-0.03,0.19-0.06,0.24c0.04,0.01,0.3-0.08,0.77-0.17c0.47-0.09,0.63-0.13,0.71-0.15c0.08-0.02,0.11,0.01,0.13,0
	c0.03-0.01,0.21-0.14,0.3-0.1c0.09,0.04-0.03,0.12-0.05,0.19s-0.18,0.11-0.17,0.13c0.01,0.02,0.22,0.03,0.32,0.05
	c0.02,0.02,0.1,0.09-0.04,0.21c-0.15,0.13-0.12,0.14,0,0.24c0.06,0.05,0.06,0.1-0.04,0.18c-0.11,0.08-0.22,0.19-0.12,0.28
	c0.03,0.03-0.01,0.11-0.07,0.17c-0.07,0.07-0.22,0.15-0.21,0.21c0.01,0.06,0.07,0.12-0.02,0.18c-0.09,0.07-0.08,0.1-0.17,0.11
	c-0.09,0.01-0.41-0.02-0.61-0.12c-0.2-0.11-0.24-0.08-0.27-0.04c-0.03,0.04,0.03,0.19,0.11,0.28c0.09,0.09,0.17,0.33,0.2,0.41
	c0.03,0.09-0.02,0.18-0.11,0.2c-0.09,0.02-0.18,0.05-0.22,0.07c-0.04,0.03-0.14,0.15-0.2,0.17c-0.06,0.02-0.25-0.02-0.3,0
	c-0.05,0.02-0.22,0.18-0.28,0.2c-0.15,0.05-0.23-0.09-0.27-0.08c-0.05,0.01-0.05,0.07-0.13,0.08c-0.08,0.02-0.18-0.07-0.23-0.06
	c-0.04,0.01-0.21,0.01-0.28,0.06c-0.07,0.04-0.11,0.11-0.19,0.13c-0.09,0.02-0.21-0.1-0.2-0.31c-0.05,0-0.11,0.12-0.17,0.14
	c-0.05,0.01-0.13,0.01-0.21,0.03c-0.08,0.02-0.13-0.08-0.09-0.13c0.04-0.05,0.17-0.23,0.2-0.39c0.04-0.17,0.2-0.77,0.41-1.08
	c-0.05-0.03-0.12-0.15-0.25-0.11c-0.12,0.04-0.39,0.12-0.49,0.14c-0.06,0.02-0.16,0.04-0.21,0.06c-0.05,0.02-0.15,0.06-0.18,0.06
	c-0.03,0-0.1,0.05-0.13,0.05c-0.03,0-0.09,0.01-0.11,0.03c-0.03,0.01-0.14,0.03-0.19,0.02c-0.05,0.02-0.09,0.05-0.17,0.06
	c-0.09,0.05-0.17,0.04-0.23,0.04c-0.05,0.05-0.23,0.11-0.43,0.06c-0.04,0.01-0.03,0.03-0.02,0.06c0.01,0.03-0.01,0.07-0.09,0.09
	c-0.08,0.02-0.13,0.02-0.18,0.04c-0.05,0.03-0.19,0.07-0.26,0.08c-0.05,0.02-0.13,0.04-0.19,0.05c-0.06,0.03-0.08,0.04-0.1,0.08
	c-0.01,0.03-0.13,0.08-0.22,0.08c-0.03,0.02-0.05,0.08-0.11,0.09c-0.05,0.01-0.23-0.03-0.26-0.01c-0.03,0.01-0.15,0.09-0.16,0.17
	c-0.02,0.07-0.19,0.13-0.27,0.16c-0.11,0.07-0.19,0.18-0.34,0.23c-0.09,0.08-0.23,0.2-0.34,0.22c-0.07,0.06-0.22,0.21-0.42,0.27
	c-0.06,0.09-0.27,0.26-0.42,0.31c-0.12,0.11-0.28,0.26-0.34,0.27c-0.06,0.02-0.08-0.06-0.12,0.01c-0.04,0.07-0.05,0.2-0.12,0.23
	c-0.07,0.02-0.15-0.05-0.18,0c-0.03,0.05-0.08,0.21-0.15,0.23c-0.07,0.02-0.12-0.16-0.15-0.09c-0.04,0.06,0,0.16-0.06,0.19
	c-0.07,0.03-0.12-0.11-0.17-0.08c-0.05,0.03-0.04-0.09-0.04-0.15c0-0.48,0.07-1.43,1.5-2.94c-0.01-0.01-0.08,0.02-0.09,0
	c-0.01-0.01,0.05-0.11,0.17-0.22c0.12-0.11,0.73-0.52,0.84-0.58c0.12-0.06,0.21-0.07,0.3-0.08c0.08-0.01,1.11-0.22,1.46-0.33
	C59.07,58.1,59.66,57.98,59.96,57.73z"/>
<path d="M67.36,40.58c0.03-0.01,0.03-0.06,0.03-0.11c0-0.05-0.01-0.3,0.02-0.35c0.03-0.05,0.07-0.08,0.28-0.14
	c0.01-0.01,0.02-0.03,0.03-0.05c0-0.02,0.04-0.03,0.06,0s0.02,0.06,0.04,0.08c0.02,0.03,0.06,0.03,0.05,0.08
	c0.01,0.03,0.04,0.11,0.19,0.18c0.03,0.01,0.17,0.03,0.31-0.02c0.13-0.05,0.58-0.3,0.86-0.51c0.29-0.2,0.59-0.42,0.74-0.57
	c0-0.01,0.08-0.04,0.23-0.09c0.14-0.06,0.4-0.2,0.79-0.24c0.01,0,0.02,0.03,0.02,0.03c0.25-0.06,0.79-0.17,1.5-0.22
	c0.71-0.04,1.11,0.06,1.48,0.13c0.03,0.01-0.06,0.05-0.03,0.06c0.03,0.01,0.02,0.04-0.02,0.04c-0.04,0-0.27,0.01-0.23,0.04
	C73.76,38.95,73.9,39,73.78,39c-0.11,0-0.29,0.01-0.25,0.07c0.02,0.03,0,0.03-0.07,0.03c-0.07,0-0.25,0.03-0.21,0.06
	c0.04,0.04,0,0.05-0.06,0.05s-0.26,0.03-0.25,0.05c0.02,0.03,0,0.04-0.04,0.05c-0.05,0.01-0.3,0.06-0.3,0.08
	c0,0.01,0.04,0.05-0.09,0.08c-0.13,0.03-0.21,0.05-0.21,0.05c0,0.02,0.02,0.07-0.05,0.07c-0.08,0.01-0.27,0.03-0.27,0.06
	c0,0.02-0.01,0.07-0.08,0.07c-0.07,0-0.21,0.02-0.21,0.04s0.01,0.07-0.07,0.07c-0.09,0-0.14,0.02-0.18,0.04
	c-0.05,0.01-0.15,0.05-0.17,0.05c-0.01,0.06,0,0.12-0.06,0.11c-0.02,0-0.04-0.03-0.04-0.03c-0.03,0.02-0.07,0.05-0.08,0.06
	c-0.01,0.01,0.02,0.08-0.06,0.09c-0.08,0.01-0.1,0-0.1,0.04c-0.02,0.08-0.13,0.02-0.15,0.07c-0.02,0.04-0.06,0.06-0.13,0.07
	c-0.05,0.01-0.01,0.07-0.07,0.08c-0.07,0.01-0.05,0-0.07,0.01c-0.03,0.02-0.07,0.07-0.12,0.09c-0.05,0.03-0.13,0.08-0.18,0.12
	c-0.05,0.04-0.33,0.2-0.41,0.25s-0.08,0.07-0.11,0.08c-0.03,0.01-0.06,0.02-0.11,0.05s-0.09,0.02-0.1,0.04
	c-0.01,0.02-0.03,0.05-0.11,0.07c-0.03,0.02-0.04,0.06-0.08,0.07c-0.02-0.01-0.03-0.01-0.06,0.01c-0.02,0.03-0.04-0.01-0.07,0.02
	c-0.04,0.03-0.07,0.03-0.08,0.06c-0.01,0.03-0.04,0.09-0.07,0.12c0.02,0.01,0.17,0,0.44,0.03c0.27,0.03,0.36,0.03,0.4,0.03
	c0.04,0,0.05,0.02,0.07,0.02c0.02,0,0.13-0.04,0.18-0.01s-0.03,0.07-0.06,0.09c-0.03,0.03-0.11,0.03-0.11,0.05
	c0,0.01,0.11,0.04,0.16,0.08c0.01,0.01,0.04,0.06-0.05,0.11s-0.09,0.05-0.04,0.13c0.03,0.04,0.02,0.06-0.05,0.09
	c-0.07,0.03-0.14,0.07-0.11,0.13c0.01,0.03-0.02,0.06-0.07,0.08c-0.05,0.02-0.14,0.05-0.15,0.08s0.02,0.07-0.04,0.1
	c-0.06,0.02-0.06,0.04-0.11,0.03c-0.05-0.01-0.21-0.07-0.3-0.16c-0.09-0.09-0.12-0.08-0.14-0.06C69,42.21,69,42.3,69.04,42.36
	c0.03,0.06,0.04,0.2,0.04,0.25c0,0.05-0.04,0.09-0.08,0.09c-0.05,0-0.1,0-0.13,0c-0.03,0.01-0.1,0.06-0.13,0.06
	c-0.03,0-0.13-0.05-0.16-0.04c-0.03,0-0.15,0.06-0.18,0.06c-0.09,0-0.11-0.08-0.14-0.09c-0.03,0-0.04,0.03-0.09,0.03
	c-0.05,0-0.08-0.07-0.11-0.07s-0.11-0.03-0.16-0.01c-0.05,0.01-0.07,0.04-0.12,0.04c-0.05,0-0.09-0.08-0.06-0.2
	c-0.03-0.01-0.08,0.05-0.11,0.05c-0.03,0-0.07-0.01-0.12-0.01c-0.05,0-0.06-0.06-0.03-0.08s0.12-0.09,0.17-0.18
	c0.04-0.08,0.22-0.38,0.38-0.51c-0.02-0.02-0.04-0.1-0.11-0.1s-0.22,0-0.28,0c-0.04,0-0.09,0-0.12,0c-0.03,0-0.09,0.01-0.1,0
	c-0.01-0.01-0.06,0.01-0.08,0.01c-0.02,0-0.05-0.01-0.07,0c-0.01,0-0.08-0.01-0.1-0.02c-0.03,0-0.05,0.01-0.1,0
	c-0.05,0.01-0.09-0.01-0.13-0.01c-0.04,0.02-0.14,0.02-0.24-0.04c-0.03,0-0.02,0.01-0.01,0.03c0,0.02-0.02,0.03-0.06,0.03
	c-0.04,0-0.07-0.01-0.1,0c-0.03,0-0.11,0.01-0.15,0c-0.03,0-0.08,0-0.11,0c-0.03,0-0.05,0.01-0.06,0.03
	c-0.01,0.02-0.08,0.02-0.13,0.01c-0.02,0-0.04,0.03-0.07,0.03c-0.03,0-0.12-0.05-0.14-0.05c-0.02,0-0.1,0.03-0.11,0.07
	c-0.02,0.04-0.12,0.04-0.17,0.04c-0.07,0.02-0.13,0.07-0.22,0.07c-0.06,0.03-0.15,0.07-0.21,0.06c-0.05,0.02-0.15,0.08-0.26,0.08
	c-0.05,0.04-0.18,0.1-0.27,0.11c-0.08,0.04-0.19,0.09-0.23,0.09s-0.03-0.04-0.07-0.01c-0.03,0.03-0.06,0.1-0.1,0.1
	c-0.04,0-0.07-0.05-0.09-0.03c-0.02,0.02-0.07,0.1-0.11,0.1c-0.04,0-0.04-0.1-0.07-0.08c-0.03,0.03-0.03,0.09-0.06,0.09
	c-0.04,0-0.05-0.08-0.08-0.07c-0.03,0.01,0-0.05,0-0.08c0.07-0.26,0.26-0.75,1.25-1.34c-0.01-0.01-0.04,0-0.05-0.01
	s0.04-0.05,0.13-0.09c0.08-0.04,0.47-0.16,0.54-0.18c0.07-0.01,0.12,0,0.17,0c0.04,0.01,0.63,0.05,0.83,0.05
	C66.83,40.64,67.17,40.67,67.36,40.58z"/>
<path d="M75.1,27.85c0.03-0.03,0-0.09-0.04-0.16c-0.04-0.07-0.21-0.39-0.2-0.47c0.01-0.08,0.03-0.15,0.27-0.36
	c0.01-0.02,0.01-0.06,0-0.08c-0.01-0.03,0.03-0.07,0.08-0.04c0.05,0.03,0.07,0.07,0.1,0.09c0.04,0.02,0.1-0.01,0.12,0.07
	c0.03,0.03,0.11,0.11,0.36,0.11c0.05,0,0.25-0.08,0.38-0.23c0.14-0.15,0.55-0.77,0.79-1.23c0.24-0.45,0.49-0.93,0.59-1.22
	c0-0.01,0.09-0.1,0.24-0.27c0.15-0.18,0.39-0.52,0.87-0.83c0.02-0.01,0.04,0.01,0.04,0.01c0.28-0.24,0.92-0.74,1.8-1.27
	c0.89-0.52,1.48-0.65,2.01-0.8c0.04-0.01-0.04,0.11,0.01,0.09c0.05-0.01,0.05,0.04,0,0.07c-0.05,0.02-0.34,0.19-0.27,0.2
	c0.06,0.01,0.28-0.01,0.14,0.06c-0.15,0.08-0.38,0.2-0.28,0.24c0.04,0.02,0.02,0.03-0.07,0.09c-0.09,0.05-0.31,0.2-0.24,0.22
	c0.07,0.02,0.03,0.06-0.04,0.1c-0.08,0.04-0.32,0.21-0.28,0.23s0.03,0.05-0.02,0.09c-0.06,0.04-0.35,0.28-0.34,0.3
	c0.01,0.02,0.08,0.04-0.07,0.17c-0.15,0.12-0.24,0.21-0.24,0.21c0.02,0.03,0.07,0.07-0.02,0.13c-0.09,0.06-0.33,0.22-0.31,0.25
	c0.02,0.03,0.03,0.1-0.06,0.15c-0.09,0.05-0.25,0.16-0.25,0.18s0.06,0.08-0.05,0.14s-0.17,0.12-0.22,0.17
	c-0.05,0.05-0.17,0.17-0.19,0.18c0.03,0.08,0.07,0.15,0,0.17c-0.04,0.01-0.08-0.02-0.08-0.02c-0.02,0.04-0.06,0.11-0.06,0.13
	c0,0.02,0.08,0.09-0.02,0.15c-0.1,0.07-0.13,0.07-0.11,0.12c0.03,0.12-0.16,0.11-0.15,0.18c0.01,0.07-0.03,0.11-0.12,0.17
	c-0.07,0.04,0.04,0.09-0.04,0.16c-0.07,0.06-0.06,0.03-0.09,0.06c-0.03,0.04-0.05,0.13-0.09,0.2c-0.05,0.07-0.11,0.19-0.16,0.27
	c-0.05,0.08-0.29,0.48-0.37,0.6c-0.08,0.12-0.05,0.14-0.09,0.17c-0.04,0.03-0.07,0.07-0.11,0.13c-0.05,0.07-0.09,0.09-0.1,0.12
	c-0.01,0.04,0,0.08-0.1,0.16c-0.02,0.04-0.01,0.11-0.06,0.14c-0.03,0-0.05,0.01-0.07,0.06c-0.01,0.05-0.06,0.01-0.08,0.08
	c-0.02,0.07-0.07,0.08-0.06,0.13c0,0.05,0.01,0.15-0.01,0.2c0.03,0,0.22-0.11,0.59-0.25c0.36-0.14,0.48-0.2,0.54-0.23
	c0.06-0.03,0.09,0,0.11-0.01c0.02-0.01,0.15-0.14,0.23-0.12c0.08,0.01,0,0.1-0.01,0.16c-0.01,0.06-0.12,0.12-0.11,0.13
	c0.01,0.01,0.18-0.01,0.26,0c0.02,0.01,0.09,0.05,0,0.18c-0.09,0.12-0.08,0.13,0.03,0.19c0.06,0.04,0.07,0.07-0.01,0.15
	s-0.15,0.18-0.05,0.24c0.03,0.02,0.01,0.08-0.03,0.15c-0.04,0.06-0.15,0.15-0.13,0.2c0.01,0.05,0.07,0.08,0.01,0.15
	c-0.06,0.07-0.05,0.09-0.12,0.11c-0.07,0.02-0.32,0.05-0.5,0c-0.18-0.05-0.21-0.02-0.22,0.01c-0.02,0.03,0.05,0.14,0.13,0.2
	c0.08,0.06,0.18,0.23,0.21,0.3c0.03,0.07,0.02,0.15-0.05,0.18c-0.07,0.03-0.13,0.06-0.16,0.09c-0.03,0.03-0.1,0.14-0.14,0.17
	c-0.05,0.02-0.2,0.02-0.24,0.04c-0.04,0.03-0.15,0.18-0.19,0.2c-0.11,0.06-0.19-0.04-0.23-0.03c-0.04,0.02-0.03,0.06-0.09,0.09
	c-0.06,0.03-0.15-0.03-0.19-0.02c-0.03,0.01-0.16,0.04-0.22,0.09c-0.05,0.04-0.07,0.1-0.13,0.13c-0.07,0.03-0.18-0.05-0.21-0.21
	c-0.04,0.01-0.07,0.11-0.11,0.13c-0.04,0.02-0.1,0.03-0.16,0.05c-0.06,0.03-0.11-0.04-0.09-0.09s0.1-0.21,0.1-0.34
	c0-0.14,0.04-0.65,0.17-0.92c-0.04-0.01-0.12-0.1-0.22-0.05c-0.09,0.05-0.29,0.15-0.37,0.18c-0.04,0.03-0.12,0.06-0.16,0.08
	c-0.04,0.02-0.11,0.07-0.13,0.07c-0.02,0-0.07,0.06-0.1,0.06c-0.03,0-0.07,0.02-0.09,0.04c-0.01,0.02-0.11,0.04-0.15,0.04
	c-0.04,0.02-0.07,0.05-0.13,0.07c-0.06,0.05-0.12,0.05-0.17,0.07c-0.03,0.05-0.17,0.12-0.34,0.11c-0.03,0.01-0.01,0.03-0.01,0.05
	c0.01,0.03,0,0.06-0.06,0.08c-0.06,0.03-0.1,0.03-0.14,0.06c-0.04,0.03-0.14,0.08-0.2,0.11c-0.03,0.03-0.1,0.05-0.14,0.07
	c-0.04,0.03-0.06,0.05-0.07,0.08c-0.01,0.03-0.1,0.08-0.16,0.1c-0.02,0.02-0.03,0.07-0.07,0.09c-0.04,0.02-0.19,0.01-0.21,0.03
	c-0.03,0.01-0.1,0.09-0.11,0.16c0,0.06-0.13,0.14-0.19,0.17c-0.08,0.08-0.12,0.17-0.24,0.23c-0.05,0.08-0.15,0.19-0.24,0.22
	c-0.05,0.05-0.14,0.19-0.29,0.27c-0.03,0.08-0.17,0.24-0.29,0.31c-0.08,0.11-0.19,0.24-0.23,0.27c-0.04,0.02-0.07-0.04-0.09,0.02
	c-0.02,0.06-0.01,0.17-0.06,0.19c-0.05,0.03-0.13-0.02-0.14,0.03c-0.02,0.04-0.03,0.18-0.08,0.2c-0.06,0.03-0.12-0.11-0.14-0.05
	c-0.02,0.06,0.03,0.13-0.02,0.16c-0.05,0.03-0.11-0.07-0.15-0.04c-0.03,0.03-0.04-0.07-0.06-0.11c-0.08-0.38-0.16-1.14,0.75-2.56
	c-0.01-0.01-0.06,0.03-0.07,0.01c-0.01-0.01,0.03-0.09,0.11-0.2c0.08-0.1,0.5-0.52,0.58-0.59c0.08-0.07,0.16-0.08,0.22-0.11
	c0.07-0.02,0.85-0.34,1.11-0.47C74.46,28.27,74.9,28.09,75.1,27.85z"/>
<path d="M43.72,40.19c0.07-0.01,0.11-0.11,0.14-0.23c0.03-0.12,0.2-0.72,0.31-0.81s0.22-0.14,0.76-0.12
	c0.04-0.01,0.08-0.06,0.11-0.1c0.03-0.04,0.11-0.05,0.14,0.05s0,0.16,0.03,0.23c0.02,0.07,0.13,0.1,0.07,0.23
	c0,0.08,0,0.28,0.3,0.57c0.06,0.06,0.39,0.2,0.73,0.17c0.34-0.02,1.58-0.29,2.41-0.55c0.84-0.26,1.69-0.54,2.16-0.78
	c0.02-0.01,0.23-0.02,0.62-0.05c0.38-0.04,1.09-0.16,2.03,0.02c0.03,0.01,0.04,0.07,0.04,0.07c0.63,0.04,1.99,0.18,3.68,0.6
	c1.69,0.42,2.56,0.96,3.39,1.41c0.05,0.04-0.18,0.08-0.1,0.12c0.07,0.05,0.01,0.11-0.08,0.08c-0.09-0.03-0.64-0.17-0.58-0.08
	c0.06,0.09,0.36,0.31,0.09,0.23c-0.27-0.08-0.7-0.19-0.63-0.04c0.03,0.08-0.02,0.07-0.19,0.02c-0.17-0.05-0.62-0.13-0.55-0.01
	c0.06,0.11-0.04,0.11-0.17,0.07c-0.14-0.04-0.64-0.13-0.62-0.05c0.02,0.07-0.02,0.1-0.14,0.09c-0.12-0.02-0.75-0.07-0.76-0.04
	c-0.01,0.04,0.04,0.15-0.28,0.13c-0.32-0.02-0.54-0.04-0.54-0.04c-0.01,0.05,0,0.17-0.18,0.14c-0.18-0.03-0.66-0.12-0.67-0.06
	c-0.01,0.06-0.07,0.15-0.25,0.1c-0.17-0.05-0.5-0.1-0.52-0.07c-0.01,0.03-0.01,0.16-0.23,0.11c-0.21-0.06-0.34-0.06-0.46-0.05
	s-0.4,0-0.43,0c-0.06,0.14-0.09,0.27-0.21,0.21c-0.05-0.03-0.07-0.12-0.07-0.12c-0.07,0.03-0.2,0.06-0.23,0.08
	c-0.03,0.02,0,0.21-0.21,0.16c-0.2-0.04-0.23-0.08-0.27,0.02c-0.11,0.18-0.32-0.05-0.39,0.04s-0.17,0.1-0.35,0.05
	c-0.13-0.03-0.06,0.16-0.23,0.15c-0.16-0.01-0.11-0.03-0.17-0.04c-0.09,0.01-0.22,0.1-0.35,0.13s-0.36,0.1-0.51,0.14
	c-0.15,0.04-0.92,0.24-1.16,0.28c-0.23,0.05-0.23,0.11-0.32,0.1c-0.08-0.01-0.16,0-0.3,0.03c-0.14,0.03-0.22-0.01-0.27,0.02
	c-0.05,0.03-0.1,0.1-0.32,0.08c-0.07,0.03-0.15,0.12-0.24,0.1c-0.04-0.04-0.07-0.05-0.15,0c-0.07,0.04-0.08-0.06-0.19,0
	c-0.11,0.05-0.17,0.02-0.23,0.08c-0.05,0.06-0.17,0.19-0.24,0.23c0.04,0.05,0.4,0.14,1,0.39c0.61,0.26,0.82,0.33,0.93,0.36
	c0.1,0.03,0.11,0.1,0.15,0.11c0.04,0.01,0.35,0,0.42,0.11c0.07,0.11-0.13,0.12-0.21,0.18c-0.08,0.05-0.29-0.01-0.29,0.03
	c-0.01,0.03,0.22,0.19,0.32,0.3c0.01,0.04,0.05,0.18-0.22,0.21c-0.26,0.03-0.25,0.06-0.18,0.27c0.03,0.11,0,0.16-0.19,0.17
	c-0.19,0.01-0.39,0.05-0.35,0.22c0.01,0.07-0.08,0.12-0.21,0.14c-0.13,0.02-0.36,0.01-0.4,0.08c-0.04,0.08-0.01,0.18-0.17,0.19
	c-0.15,0.01-0.17,0.05-0.28-0.01c-0.11-0.06-0.45-0.32-0.6-0.6c-0.15-0.27-0.22-0.27-0.28-0.24c-0.06,0.02-0.11,0.23-0.08,0.4
	c0.03,0.17-0.05,0.5-0.09,0.62c-0.04,0.12-0.16,0.2-0.27,0.15c-0.11-0.04-0.24-0.08-0.3-0.08c-0.07,0-0.28,0.06-0.37,0.04
	c-0.08-0.02-0.27-0.21-0.34-0.23c-0.08-0.01-0.38,0.04-0.47,0.01c-0.21-0.06-0.19-0.28-0.25-0.3c-0.07-0.02-0.11,0.03-0.22-0.01
	c-0.11-0.04-0.15-0.22-0.21-0.24c-0.06-0.02-0.25-0.14-0.37-0.15c-0.12-0.01-0.2,0.04-0.31,0c-0.12-0.04-0.16-0.27,0-0.5
	c-0.05-0.03-0.21,0.05-0.29,0.03c-0.08-0.03-0.15-0.09-0.26-0.12c-0.11-0.04-0.09-0.19-0.01-0.21c0.08-0.02,0.37-0.13,0.53-0.29
	c0.16-0.16,0.81-0.73,1.28-0.92c-0.04-0.07-0.03-0.27-0.2-0.32c-0.17-0.05-0.53-0.16-0.67-0.21c-0.09-0.02-0.21-0.07-0.28-0.09
	c-0.07-0.02-0.22-0.04-0.25-0.07c-0.03-0.03-0.16-0.02-0.19-0.04c-0.04-0.02-0.11-0.05-0.15-0.05c-0.04,0-0.18-0.08-0.23-0.12
	c-0.07-0.02-0.14-0.02-0.24-0.07c-0.14-0.01-0.22-0.08-0.29-0.12c-0.1,0.02-0.34-0.05-0.54-0.26c-0.06-0.03-0.05,0.01-0.06,0.05
	c-0.02,0.04-0.07,0.07-0.17,0.03c-0.11-0.04-0.16-0.08-0.24-0.09c-0.07-0.01-0.27-0.06-0.36-0.11c-0.07-0.01-0.18-0.05-0.25-0.09
	c-0.09-0.01-0.13-0.01-0.17,0.01c-0.05,0.03-0.22-0.01-0.31-0.07c-0.05,0-0.12,0.06-0.19,0.03c-0.07-0.03-0.24-0.2-0.29-0.21
	c-0.04-0.01-0.24,0-0.32,0.07c-0.07,0.07-0.32,0.01-0.43-0.03c-0.18,0-0.35,0.07-0.57,0c-0.16,0.02-0.42,0.05-0.55-0.01
	c-0.12,0.01-0.4,0.07-0.68-0.01c-0.15,0.06-0.5,0.09-0.71,0.04c-0.23,0.03-0.51,0.07-0.6,0.05c-0.08-0.03-0.04-0.13-0.14-0.08
	c-0.1,0.04-0.22,0.19-0.31,0.16c-0.09-0.03-0.13-0.17-0.2-0.14c-0.07,0.04-0.24,0.18-0.34,0.15c-0.1-0.03-0.01-0.27-0.1-0.23
	c-0.09,0.04-0.12,0.19-0.22,0.17c-0.09-0.02-0.05-0.22-0.13-0.22c-0.08,0,0.03-0.14,0.06-0.2c0.36-0.55,1.16-1.58,3.94-2.22
	c-0.01-0.02-0.1-0.04-0.1-0.06c0-0.02,0.14-0.08,0.37-0.12c0.22-0.03,1.22-0.04,1.4-0.02c0.18,0.01,0.29,0.08,0.4,0.13
	c0.11,0.06,1.44,0.59,1.9,0.74C42.43,39.94,43.19,40.24,43.72,40.19z"/>
</svg>
