<?xml version="1.0" encoding="utf-8"?>
<!-- Generator: Adobe Illustrator 15.0.0, SVG Export Plug-In  -->
<!DOCTYPE svg PUBLIC "-//W3C//DTD SVG 1.1 Tiny//EN" "http://www.w3.org/Graphics/SVG/1.1/DTD/svg11-tiny.dtd" [
	<!ENTITY ns_flows "http://ns.adobe.com/Flows/1.0/">
]>
<svg version="1.1" baseProfile="tiny"
	 xmlns="http://www.w3.org/2000/svg" xmlns:xlink="http://www.w3.org/1999/xlink" xmlns:a="http://ns.adobe.com/AdobeSVGViewerExtensions/3.0/"
	 x="0px" y="0px" width="101px" height="134px" viewBox="-0.13 -0.56 101 134" overflow="visible" xml:space="preserve">
<defs>
</defs>
<path fill="#FFCA05" d="M43.2,132.88c23.8,0,43.2-19.4,43.2-43.2c0-23.8-19.4-43.2-43.2-43.2S0,65.89,0,89.68
	C0,113.48,19.4,132.88,43.2,132.88z"/>
<path fill="#00ADEE" d="M43.2,46.49c23.85,0,43.2,19.35,43.2,43.2c0,3.28-0.37,6.48-1.06,9.55c-7.31,4-15.91,6.31-25.1,6.31
	c-26.61,0-48.19-19.35-48.19-43.2c0-0.9,0.04-1.81,0.09-2.7C20,51.54,31.01,46.49,43.2,46.49z"/>
<path fill="#C96C38" d="M13.13,101.65C25.26,68.41,43.9,39.47,72.89,22.14c-24.66,18.14-42.49,45.54-47.5,79.51H13.13z"/>
<path fill="#EC1C24" d="M8.62,115.59c7.4-26.18,19.55-49.36,37.28-69.01c1.34,0.08-2.11,3.87-0.81,4.07
	c-17.67,22.28-21.43,48.71-20.5,78.04C18.27,125.65,12.8,121.15,8.62,115.59z"/>
<path fill="#FFFFFF" d="M42.44,81.83c4.68,5.4,4.76,6.79,11.83,6.83c2.84,0.01,5.69,0.04,8.54,0.05c6.11,0.04,6.43,0.28,10.56-4.17
	L42.44,81.83z"/>
<polygon fill="#FFFFFF" points="58.13,80.77 58.13,60.4 69.35,76.71 "/>
<polygon fill="#FFFFFF" points="57.07,80.77 57.07,67.6 49.83,78.15 "/>
<path fill="#00A551" d="M72.16,21.78C69.56,15.02,67.7,8.44,60.42,0.51c-6.74-1.22-13.47-0.09-20.22,1.7
	C53.34,6.25,62.81,13.96,72.16,21.78z"/>
<path fill="#00A551" d="M71.18,22.14c-7.32-2.21-14.5-4.54-24.21-4.76c-6.74,3.93-10.78,9.21-13.61,15.09
	C45.44,26.95,58.3,24.5,71.18,22.14z"/>
<path fill="#00A551" d="M74.29,21.81C84.57,21,93.64,21.43,100,24.54c-1.75-3.89-4.49-7.49-8.98-10.6
	C83.99,14.48,78.58,17.35,74.29,21.81z"/>
<path fill="#00A551" d="M73.47,23.59c5.74,3.19,11.17,6.71,14.56,12.65c0.24,4.9-1.22,8.96-2.59,13.06
	C83.59,38.59,79.23,30.4,73.47,23.59z"/>
</svg>
