<?xml version="1.0" encoding="utf-8"?>
<!-- Generator: Adobe Illustrator 15.0.2, SVG Export Plug-In  -->
<!DOCTYPE svg PUBLIC "-//W3C//DTD SVG 1.1 Tiny//EN" "http://www.w3.org/Graphics/SVG/1.1/DTD/svg11-tiny.dtd" [
	<!ENTITY ns_flows "http://ns.adobe.com/Flows/1.0/">
]>
<svg version="1.1" baseProfile="tiny"
	 xmlns="http://www.w3.org/2000/svg" xmlns:xlink="http://www.w3.org/1999/xlink" xmlns:a="http://ns.adobe.com/AdobeSVGViewerExtensions/3.0/"
	 x="0px" y="0px" width="543px" height="581px" viewBox="0.11 -2 543 581" overflow="visible" xml:space="preserve">
<defs>
</defs>
<path d="M280.78,53.41c0,0-39.35-15.65-81.37,0c0,0-18.78-16.1-27.72-30.4S140.84-1.59,122.95,0.2
	c-17.88,1.79-57.23,21.91-57.23,64.83c0,42.92,32.64,51.42,35.77,72.88c0,0,1.79-17.88-8.94-31.3
	C81.82,93.2,70.64,71.29,82.71,49.38c12.07-21.91,35.32-31.74,44.26-29.96c8.94,1.79,26.38,9.84,25.04,26.83s-24.14,17.88-30.4,2.24
	c0,0-8.05,41.13,67.96,60.36c0,0-32.64-17.44-37.56-41.13c0,0,19.23,0,17.44-25.93c0,0,15.2,19.67,34.43,28.62
	c19.23,8.94,21.46,11.18,21.46,11.18l-9.84-15.2c0,0-5.81-6.26,4.47-10.28C230.26,52.07,256.64,49.83,280.78,53.41z"/>
<path d="M294.64,54.75c0,0,40.69,7.6,66.62,21.91c0,0,8.94-4.47,13.41-15.2c4.47-10.73,19.67-16.54,34.87-13.41
	c15.2,3.13,46.95,33.98,16.99,81.37c0,0,6.71,7.15,15.65,11.18c8.94,4.02,42.03,40.69,31.75,63.94c0,0,1.79,6.71,1.79,25.48
	c0,0,29.06,17.44,36.66,29.96c7.6,12.52,30.85,33.09,29.96,58.57c0,0,1.79-17.88-35.32-58.57c0,0-17.88-18.78-21.01-12.97
	c0,0-20.12-21.01-27.27-24.14c-7.15-3.13-19.23-12.97-21.01-20.57c0,0,13.41,8.94,16.1,9.84c0,0-1.34-11.62,2.24-15.2
	c3.58-3.58,1.79-15.2-12.07-20.57c0,0,14.31,1.34,18.33,11.18c4.02,9.84-1.79,16.1-1.34,21.46c0,0,11.62-6.26,7.15-19.23
	c-4.47-12.97-13.86-21.46-29.96-21.91c-16.1-0.45-25.04-19.23-25.04-19.23s16.1,11.62,27.72,11.62c11.62,0,14.31,3.13,14.31,3.13
	s-9.84-16.1-38.45-22.36c0,0-20.57,2.68-18.78-13.86c0,0,3.13,4.02,9.39,4.02s5.37-6.71-1.34-9.84c-6.71-3.13-10.28-2.24-13.86-0.45
	c-3.58,1.79-16.1-1.34-17.88-4.92c-1.79-3.58-7.6-4.47-7.6-4.47s8.05-1.34,14.75,0.89s10.28-3.58,8.94-7.15
	c-1.34-3.58-18.78-14.31-25.04-8.5c0,0-3.58,2.68-3.13,6.71c0,0-16.99-5.81-15.2-23.7c0,0,4.02,9.84,12.07,8.94
	c8.05-0.89,7.15-4.47,11.18-3.13c0,0-30.85-17.88-58.12-21.46c0,0-3.13,2.24-0.45,5.37c0,0-8.94-2.24-4.47-9.84L294.64,54.75z"/>
<path d="M125.64,30.6c0,0-19.67,7.6-19.67,34.87s27.72,41.58,48.29,45.16c20.57,3.58,40.24,5.37,31.3,48.29c0,0-5.81,25.04-38,13.86
	c0,0,21.46,0.89,23.25-17.88c1.79-18.78-6.71-38-37.11-39.35c0,0-16.1-1.34-20.57,4.47c0,0-21.46-13.86-21.46-45.6
	S113.56,31.05,125.64,30.6z"/>
<path d="M100.6,146.41c0,0-6.71,14.31-33.53,30.4C40.24,192.9,18.78,209,15.2,217.94c0,0,7.15-6.71,19.23-10.28
	c12.07-3.58,19.23-5.81,19.23-5.81s-37.11,33.09-43.82,60.36c0,0,15.2-21.01,25.93-24.59c0,0-8.5,12.52-9.39,18.78
	C25.48,262.65,7.15,303.79,0,308.26c0,0,22.8-16.1,27.72-26.83c0,0-4.02,9.39-6.71,13.86c-2.68,4.47-16.54,27.27-16.54,40.24
	c0,0,10.73-16.99,15.2-18.78c0,0-12.07,24.14-10.28,37.56c0,0,12.07-26.38,21.46-28.17c0,0-2.68,26.38-18.78,55.89
	c0,0,13.41-8.05,20.12-23.25c0,0-4.92,31.74-16.54,51.42c0,0,21.01-25.04,25.04-25.04c0,0-12.97,28.17-4.02,47.39
	c0,0,0.89-22.8,12.52-33.53c0,0-0.89,16.1-3.13,21.91c-2.24,5.81-8.49,19.67-4.47,32.64c0,0,3.13-16.54,10.73-21.46
	c0,0-5.81,27.72,4.02,36.66c0,0-3.13-13.86,6.71-26.83c0,0,2.68,25.93-2.68,38.9c0,0,7.6-7.6,8.5-18.78c0,0-0.89,23.7,14.75,33.53
	c0,0-8.94-23.25-3.13-27.72c0,0,0.45,21.91,11.18,27.72c0,0-6.26-17.44-2.68-23.7c0,0,9.39,22.8,6.26,30.4c0,0,5.81-8.05,4.02-36.22
	c0,0,11.62,17.88,4.02,34.87c0,0,6.26-4.02,7.6-16.99l1.79,15.65c0,0,9.39-18.78,16.1-19.23c0,0-6.26,8.94-5.37,14.75
	c0,0,8.94-11.62,13.41-11.62c0,0,0.89,11.62-0.89,16.54c0,0,8.05-17.44,12.97-17.44c0,0-0.45,8.94-4.47,11.62l20.12-7.6
	c0,0-9.84,13.41-9.84,16.54c0,0,16.1-15.2,26.38-15.65c0,0-9.39-0.89-12.52,1.34c0,0,6.71-9.84,8.5-9.84l-20.12,7.15
	c0,0,10.28-12.97,7.6-23.7c0,0-6.71,13.86-8.05,14.75c0,0,0-9.39,2.68-9.84l-16.54,14.75c0,0-0.45-9.39,1.79-10.28l-8.5,6.71
	c0,0,1.34-10.73,4.02-15.2c0,0-8.94,4.02-13.41,9.84l2.68-14.75l-8.5,20.12c0,0-0.89-14.75,2.24-16.99l-6.26,12.07l-0.45-17.88
	c0,0-4.92,17.44-6.71,17.44c-1.79,0-10.28-13.41-10.28-35.77c0,0-4.47,29.06-6.71,30.4c0,0-1.79-20.57-0.45-26.38
	c0,0-4.47,11.18-4.47,13.86c0,0-3.58-12.97,4.92-27.27c0,0-8.5,5.81-14.31,24.59c0,0-2.24-21.01,14.31-48.29
	c0,0-11.18,8.5-16.1,19.67c0,0,9.84-29.51,16.1-38.45c0,0-18.33,16.1-27.72,42.48c0,0-2.24-16.54,3.58-26.38l-14.75,18.78
	c0,0,3.13-33.98,23.25-56.78c0,0-15.2,6.26-25.49,18.33c0,0,4.92-23.25,26.83-54.55c0,0-26.83,15.65-37.11,30.85
	c0,0,7.15-31.74,25.93-48.73c0,0-15.65,7.6-27.27,19.23c0,0,24.59-32.64,37.11-40.24c0,0-10.28-0.45-26.83,14.31
	c0,0,33.98-30.85,42.48-61.7c0,0-21.91,21.91-45.6,31.74c0,0,7.15-19.23,23.7-23.25c0,0-9.39-5.81-27.27,4.02
	c0,0,7.15-10.28,20.57-16.54c13.41-6.26,25.93-17.44,28.17-22.36c0,0-24.14,13.41-38.45,12.52c0,0,15.2-8.49,18.33-16.99
	c0,0-11.18,5.37-16.99,5.37c0,0,38.45-30.85,49.63-45.6c0,0-28.61,18.78-46.05,21.91C58.57,192.01,100.6,168.76,100.6,146.41z"/>
<path d="M173.03,55.2c0,0,11.62,33.98,38.9,35.32s23.25-10.73,53.21-8.5c0,0-44.71,12.07-44.26,38.9
	c0.45,26.83,3.58,43.82-15.2,57.23c-18.78,13.41-94.79,19.67-88.53,115.35c0,0,14.31-14.31,33.09-19.23
	c18.78-4.92,50.52-25.93,50.97-39.35c0.45-13.41-35.77-6.26-8.94,6.71c0,0-19.67,23.25-55.44,22.8c0,0,10.91-5.66,18.78-20.57
	c8.49-16.1,18.33-27.72,46.05-28.61c0,0,23.25,1.79,27.27,2.68c4.02,0.89,28.17,1.34,35.32-16.54c0,0-5.81,26.38-34.87,39.79
	c-29.06,13.41-34.43,29.51-36.66,39.79c0,0,11.18-5.37,23.25-4.02s34.87-0.45,49.18-12.97c0,0-6.71,26.83-54.1,28.61
	c-47.39,1.79-55.89,64.38-37.56,86.74c0,0-50.08-24.14-4.02-95.23c0,0-69.75,19.67-51.86,128.32c0,0,3.58-11.18,11.62-11.62
	c0,0-5.81,15.65,0,22.8c0,0,17.88-12.97,38-4.92c0,0-22.36,7.15-23.25,21.01c0,0,8.5-8.05,25.04-8.05c0,0-4.92,7.6-7.15,8.5
	c0,0,9.84,0.45,17.44-7.15c0,0,5.37,29.96-11.18,40.69c0,0,6.26-15.65,1.79-25.04c0,0-10.28,5.81-19.23,21.01
	c0,0,2.24-15.65,5.81-19.67l-11.18,12.97c0,0,1.79-13.86,4.92-15.2c0,0-10.28,1.79-16.1,13.41c0,0-2.68-16.99,4.47-29.06
	c0,0-10.28,1.34-15.65,23.7c0,0-6.26-16.99-3.13-33.09c0,0-9.84,13.86-10.73,32.19c0,0-14.75-55.44-8.94-89.42
	c0,0-12.97,19.67-29.96,27.27c0,0,22.8-25.93,28.17-55.89c0,0-7.15,12.97-31.3,23.7c0,0,28.61-29.06,29.06-62.15
	c0,0-15.2,25.49-38.9,35.32c0,0,19.23-19.67,27.27-49.18c8.05-29.51,14.75-50.97,20.12-52.76c0,0-27.27,8.94-34.43,8.94
	c0,0,42.48-19.67,45.16-42.48c0,0,2.68-7.15-11.62-7.15c-14.31,0-22.8,21.91-22.8,21.91s-1.57-17.77,24.14-30.4
	c26.38-12.97,34.43-46.5,19.67-46.05c0,0-8.05,0.45-12.52,6.26c0,0,6.71-16.1,21.91-16.1s22.36,15.2,15.2,24.59
	c0,0-12.52,15.2-7.6,24.14c4.92,8.94,18.33,15.65,41.13,0.45s29.96-23.25,21.91-37.56s-7.6-32.64-9.39-36.66
	c-1.79-4.02-4.92-9.84-15.2-18.33C169.9,74.87,173.03,55.2,173.03,55.2z"/>
<path d="M219.08,60.11c0,0,8.05,15.65,21.01,8.05c12.97-7.6,29.51-25.04,66.17,4.02c0,0-5.37-0.89-9.39-3.58
	c-4.02-2.68-19.67-8.5-21.46,1.79c-1.79,10.28,11.62,6.71,11.62,6.71s-23.25,7.6-21.01-12.52c0,0-9.39-2.68-16.99,4.92
	C241.44,77.1,220.42,78.89,219.08,60.11z"/>
<path d="M255.75,119.58c0,0-9.84,14.31-9.84,29.51s12.52,16.99,18.33,16.99s22.8,3.58,19.23,16.54
	c-3.58,12.97,10.28,21.91,32.19,28.61s42.03-7.6,58.12,4.47s17.44,14.75,26.38,17.88c8.94,3.13,13.41,9.39,15.2,14.75
	s3.13,8.05,21.46,7.15c0,0,12.52,1.34,21.01,14.31c0,0-15.2-8.05-23.7-6.71c0,0-13.86,0.89-21.46-3.13
	c-7.6-4.02-21.01-0.89-28.62,3.58c-7.6,4.47-33.53,24.59-50.52,21.46c-16.99-3.13-29.06,8.05-29.06,8.05s12.07-15.2,28.17-14.75
	c16.1,0.45,16.99,0,32.19-8.94c15.2-8.94,28.17-22.8,46.95-13.41c0,0-3.13-13.86-17.88-15.65c-14.76-1.79-11.62,5.81-30.4,4.47
	c-18.78-1.34-23.25-10.73-27.27-17.44c-4.03-6.71-8.05-6.71-8.05-6.71s4.47,4.92,5.81,8.94c1.34,4.02,4.92,27.27,41.58,18.33
	c0,0-16.99,11.62-38,4.02c0,0-4.02-1.79-5.37-8.94c-1.34-7.15-9.39-25.04-25.49-28.17c0,0,8.5,12.97,4.03,33.09
	c0,0,14.75,2.68,17.44,8.94c2.68,6.26,18.78,8.5,37.56,2.24c0,0-9.84,13.41-48.29,12.07c0,0,2.68-13.41-12.97-10.73
	c-15.65,2.68-25.04-6.26-25.04-6.26s25.49-20.57,18.33-36.22c-7.15-15.65-25.49-8.5-28.17,1.79c0,0-1.79-16.1,2.24-27.27
	s-1.34-12.97-6.26-11.18c-4.92,1.79-28.17,18.78-33.98,6.71C225.79,175.92,231.15,133.89,255.75,119.58z"/>
<path d="M263.79,187.54c0,0-3.58,13.41-28.17,25.04c0,0-69.3-35.77-111.78,63.49c0,0,5.81-66.17,69.3-87.63
	c0,0,5.81,12.07,30.4,12.07S263.79,187.54,263.79,187.54z"/>
<path d="M361.15,237.28c0,0,9.16-3.1,8.22-19.17c-1.74-0.84-3.52-1.49-5.31-1.98C362.65,220.09,360.17,228.62,361.15,237.28z"/>
<path fill="#FFFFFF" stroke="#000000" d="M366.53,242.22c10.28-0.44,18.88-5.17,18.88-5.17c-2.32-6.48-5.6-11.15-9.36-14.51
	C378.55,235.71,371.64,240.5,366.53,242.22z"/>
<path fill="#FFFFFF" stroke="#000000" d="M352.67,214.79c-9.21,0.17-16.56,2.93-16.56,2.93c4.38,14.02,11.82,20.52,19.61,23.1
	c-3.07-3.35-6.08-8.13-6.08-14.05C349.64,220.48,351.19,216.84,352.67,214.79z"/>
<path fill="#FFFFFF" stroke="#000000" d="M366.53,242.22c5.11-1.73,12.02-6.51,9.52-19.68c-2.1-1.87-4.35-3.32-6.67-4.44
	c0.94,16.08-8.22,19.17-8.22,19.17c-0.98-8.67,1.5-17.19,2.91-21.16c-3.87-1.06-7.77-1.4-11.38-1.34
	c-1.49,2.05-3.04,5.69-3.04,11.99c0,5.92,3.01,10.7,6.08,14.05C359.34,242.02,363.03,242.38,366.53,242.22z"/>
<path d="M147.25,311.54c0,0-14.01,16.69-14.01,46.8s19.67,28.02,28.91,30.11c9.24,2.08,28.91,5.37,34.58,15.2
	c0,0,2.39-4.77-12.22-21.46c-14.61-16.69-5.96-45.6,7.15-56.63c13.11-11.03,31.3-19.08,65.28-25.04
	c33.98-5.96,41.43-23.85,41.43-23.85s0,18.18-23.25,27.12c-23.25,8.94-60.51,27.72-68.56,66.47c0,0-2.68,9.24,6.56,19.08
	c9.24,9.84,5.07,24.44,4.47,27.12c-0.6,2.68-2.38,20.57,18.78,30.4c0,0-14.61-28.32,0-55.14c0,0-5.66,42.62,15.8,68.85
	c21.46,26.23,30.1,39.94,30.4,56.04c0.3,16.1,5.67,27.13,12.82,32.79c0,0-6.26-0.89-7.45-1.79c0,0,5.07,5.66,15.5,10.73l-5.66,4.17
	c0,0,29.51-0.3,37.56,3.28c8.05,3.58,13.71-2.38,17.88,0.3c0,0,6.86-1.79,7.45-0.89l-2.09,4.77c0,0,16.69-7.45,20.57-16.99
	c0,0,0.89,3.58,0.3,5.07c0,0,13.41-8.35,11.62-24.44c0,0-16.69,5.67-23.55-0.3c-6.85-5.96-23.84-3.58-23.84-3.58
	s-22.35,5.07-33.68-23.25c0,0-4.47-0.6-4.47,9.54c0,0-2.09,15.5,21.16,32.49c0,0-38.15,1.19-33.38-34.88
	c4.77-36.07-10.13-51.27-14.31-59.62c-4.17-8.34-11.62-32.79,21.16-76.3c0,0-9.24,21.46-6.86,31c0,0,50.08-75.41,119.82-73.92
	c0,0-15.2,4.47-15.8,6.56c0,0,25.93,3.88,32.49,12.82c6.56,8.94,22.95,17.88,38.45,12.82c0,0-26.53,11.33-39.05-3.87
	c-12.52-15.2-30.4-12.22-30.4-12.22s5.96,13.12,17.59,17.29c11.62,4.17,18.48,4.17,23.55,13.12c0,0,11.33,2.38,22.65-6.26
	s19.97-1.79,26.53-6.86c0,0-16.99-9.24-13.71-18.78c0,0,9.24,14.01,19.38,11.92c0,0,3.88-20.87-9.54-28.62
	c-13.41-7.75-21.46-20.86-20.86-29.81c0,0,6.26,18.78,20.27,18.78s32.19,5.66,24.74,27.72c0,0,5.37,3.87,18.78-8.94
	c13.41-12.82,5.66-18.48-1.19-14.61c-6.85,3.87-9.24-2.38-9.24-2.38s-19.97-20.57-36.36-3.88c0,0,11.62-23.55,40.83,4.47
	c0,0,14.01-3.87,19.38-1.79c0,0-0.9,11.92-4.17,14.61c0,0,0.6,21.76-26.23,42.92c0,0-5.07,1.49-7.15-0.89c0,0-7.75,15.8-13.12,14.31
	c0,0-10.13,38.75-29.21,40.84c0,0,7.75-16.1,5.37-39.34c0,0-4.47,4.47-5.96,4.17s0-5.07,0-5.07s-12.82,11.32-17.29,11.92
	c0,0,1.49-9.24-0.3-15.2c0,0-5.66,7.15-9.24,7.45c0,0,1.49-13.12-5.66-13.41c0,0-11.33,35.77-37.86,43.22c0,0,10.13-15.5,8.35-27.72
	c0,0-27.12,19.97-30.4,33.38c0,0,5.37,20.87,15.2,25.63c9.84,4.77,22.36,19.67,14.31,34.87c0,0,6.26,3.58,33.09-8.94
	c0,0-7.75,22.36-25.93,30.4c-18.18,8.05,0.6,27.12-11.92,40.54l0.3-4.77c0,0-9.24,16.69-24.74,23.84c0,0,7.15-6.56,6.56-13.71
	c0,0-12.82,16.99-31.3,19.38c0,0,8.65-6.86,8.65-9.24c0,0-11.93,7.16-19.38,5.66c0,0,9.84-5.37,10.43-6.56c0,0-7.15-0.6-9.54,1.19
	c-2.38,1.79-12.52,4.47-14.31,1.49c0,0,10.13-4.17,10.13-5.66c0,0-17.88-5.07-38.45,6.86c0,0,3.58-6.85,5.66-7.15
	c0,0-8.94-3.88-11.33-3.28c0,0,6.56-2.08,6.86-3.87c0.3-1.79-5.37-2.98-17.59-5.07c0,0,11.62-0.6,11.03-2.68
	c-0.6-2.08-9.24-2.39-11.33-8.05c0,0,6.86,3.58,8.05,3.28c0,0-4.47-8.35-10.13-11.33c0,0,6.56-1.19,8.35,1.79
	c0,0-6.26-11.62-8.64-22.65c-2.38-11.03-8.05-31.3-26.23-31.6c-18.18-0.3-31.89,30.4-31.89,30.4s1.49-14.31,5.96-19.37
	c0,0-11.33,15.5-28.91,17.88c0,0,16.39-11.92,15.2-23.55c0,0-19.97,26.53-36.96,22.65c0,0,21.16-10.73,23.55-22.95
	c0,0-19.38,19.67-33.68,16.1c0,0,32.49-11.92,31.6-40.54c0,0-6.85,8.05-15.5,10.43c0,0,28.91-31.89-5.66-62.3
	c0,0,27.42,13.41,28.91,42.62c0,0,10.43-13.12-3.58-32.49c-14.01-19.37-41.43-18.18-50.67-16.99
	C144.86,405.73,92.1,359.23,147.25,311.54z"/>
<path fill="#FFFFFF" d="M352.92,521.68c0,0,9.54-7.15,16.99-5.96C369.91,515.72,365.74,521.68,352.92,521.68z"/>
<path fill="#FFFFFF" d="M369.31,521.08c0,0,5.37-5.66,10.14-5.96C379.45,515.12,375.27,521.08,369.31,521.08z"/>
<path fill="#FFFFFF" d="M380.34,520.78c0,0,4.17-5.37,7.75-5.37C388.09,515.42,384.81,520.78,380.34,520.78z"/>
<path fill="#FFFFFF" d="M389.28,520.19c0,0,2.68-2.98,4.17-2.98C393.45,517.21,392.86,520.19,389.28,520.19z"/>
<path fill="#FFFFFF" d="M394.35,500.81c0,0,13.42,0.3,28.32-7.15c0,0-19.08,23.55-29.81,16.39c0,0,6.26-5.37,8.35-5.37
	C401.2,504.69,395.84,505.88,394.35,500.81z"/>
<path fill="#FFFFFF" d="M336.82,503.79c0,0,21.16,0.89,36.07-10.43c0,0-15.5,19.67-31.89,20.27
	C340.99,513.63,336.23,510.35,336.82,503.79z"/>
<path fill="#FFFFFF" d="M333.54,499.02c0,0,8.34,0.6,10.43-2.68c0,0-8.35-5.66-11.62-19.67s-8.35-26.23-16.69-32.79
	c0,0,11.62,5.07,16.1,16.99c4.47,11.92,25.34,40.54,46.8,21.46c0,0,3.88,4.17,0,10.73c0,0,14.31,1.49,16.1-9.84
	c1.79-11.33-13.41-18.78-14.9-20.27s-11.62-7.45-16.39-28.32c-4.77-20.86-24.15-28.91-24.15-28.91s11.62,14.31,10.13,22.06
	c-1.49,7.75,2.68,20.57,8.94,25.34c0,0-11.92-8.05-14.01-20.87c-2.09-12.82-11.33-25.34-18.78-27.72
	c-7.45-2.38-21.76,3.88-25.93,22.36c0,0,5.96,1.79,6.56,3.28l-1.49,3.28c0,0,5.36,2.68,4.77,4.47c-0.59,1.79-4.77,8.34-4.77,8.34
	s7.15,0.3,7.15,1.79c0,1.49-4.47,7.75-4.47,7.75s7.16,3.57,7.75,5.66c0.6,2.09,5.37,2.68,5.37,2.68s0.89,7.75-8.05,14.9
	C312.38,479.05,330.26,485.91,333.54,499.02z"/>
<path fill="#FFFFFF" d="M321.62,397.38c0,0,43.22-36.36,65.88-37.26c0,0,0.59,3.58-39.05,34.58c0,0,42.63-26.83,47.99-26.23
	c5.37,0.6-12.22,13.71-21.76,19.38c-9.54,5.66-13.41,15.8-13.41,15.8s38.15-31.89,40.83-15.8c0,0-32.19,23.25-35.77,31.3
	c0,0-2.38-4.77,10.73-16.69c0,0-6.86,1.79-9.54,5.07s-9.24,8.65-13.41,2.68c-4.17-5.96,10.13-16.69,10.13-16.69
	s-7.75,2.98-9.54,5.37c-1.79,2.39-5.66,7.45-9.84,4.47c-4.17-2.98-5.66-3.28-5.66-3.28s3.87-9.24,19.97-20.57
	c0,0-16.99,8.94-19.97,11.62C336.23,393.8,328.17,401.26,321.62,397.38z"/>
<path fill="#FFFFFF" d="M412.53,371.75c0,0,12.52,8.05,12.82,10.13c0,0-8.94,24.74-23.25,32.79
	C402.1,414.67,413.43,389.04,412.53,371.75z"/>
<path fill="#FFFFFF" d="M294.5,431.36c0,0,0.6,11.33,2.38,14.31c0,0,6.86-2.08,7.75-5.07s-4.17-5.07-4.17-5.07
	S304.63,431.36,294.5,431.36z"/>
<path fill="#FFFFFF" d="M297.77,448.95c0,0,6.56-0.3,9.24,1.19c0,0-3.58,5.96-5.96,5.66C298.67,455.51,297.77,448.95,297.77,448.95z
	"/>
<path fill="#FFFFFF" d="M303.14,460.57c0,0,1.79,10.13,5.96,11.92c0,0,5.07-2.38,5.96-5.37c0.89-2.98-3.88-2.98-3.88-2.98
	S311.19,459.97,303.14,460.57z"/>
<path fill="#FFFFFF" d="M436.82,387.4c0,0,5.21,0.15,5.51,1.04c0,0-4.02,4.62-5.21,5.51C437.12,393.95,437.42,387.99,436.82,387.4z"
	/>
<path fill="#FFFFFF" d="M449.64,398.87c0,0,8.49-7,8.35-14.31c0,0-6.41,3.13-6.41,3.88C451.58,388.44,450.53,397.38,449.64,398.87z"
	/>
<path fill="#FFFFFF" d="M464.54,393.06c0,0,8.05-9.09,7.6-13.56c0,0-4.47-0.15-8.2,2.39C463.95,381.88,465.59,390.53,464.54,393.06z
	"/>
<path fill="#FFFFFF" d="M473.49,389.19c0,0,4.17-2.09,7.15-10.73C480.64,378.45,475.42,376.67,473.49,389.19z"/>
<path fill="#FFFFFF" d="M482.87,378.45c0,0,5.07-0.89,5.37,0.15c0,0-3.72,9.09-4.92,9.84C483.32,388.44,482.73,380.99,482.87,378.45
	z"/>
<path fill="#FFFFFF" d="M494.05,377.11c0,0,6.11,0.3,6.41,1.19c0,0-4.92,9.54-6.56,10.43C493.9,388.74,494.95,379.05,494.05,377.11z
	"/>
<path fill="#FFFFFF" d="M475.13,391.42c0,0,3.72-0.74,3.87-1.94c0,0,4.03,2.53,6.86,2.24c0,0-1.94,16.39-12.37,28.32
	C473.49,420.04,477.21,402.75,475.13,391.42z"/>
<path fill="#FFFFFF" d="M533.1,340.9c0,0-17.88,13.56-18.63,19.08c0,0,8.79-4.62,9.54-3.28c0,0-13.56,9.54-13.71,11.92
	s3.43,3.43,5.81,1.64C518.5,368.47,535.04,355.5,533.1,340.9z"/>
<path fill="#FFFFFF" d="M364.54,78.45c0,0,8.35,0,10.73-4.47s12.82-18.48,26.53-15.5c13.71,2.98,20.27,9.54,16.1,17.89
	s-12.22-0.6-11.62-2.38c0,0-4.77,7.15-0.6,12.52c4.18,5.37,12.82,5.07,14.91,3.87s12.82,4.47,1.19,34.28c0,0-2.68,2.98-6.56-2.38
	c0,0,6.26-14.9,1.19-25.63c0,0-4.17,17.29-11.03,19.67l-5.37-4.77c0,0,12.22-12.52,11.92-17.88c0,0-10.73-1.19-15.5-7.75
	c-4.77-6.56-3.58-8.64,0.3-13.71s9.24-6.56,16.1-0.6c0,0-1.79-10.13-13.71-9.24c-11.92,0.89-22.36,18.78-5.67,30.4
	c0,0,1.79,5.66-1.79,5.96s-5.96-2.09-5.96-2.09S368.71,81.43,364.54,78.45z"/>
<path d="M315.06,72.19c0,0,21.46-2.68,25.63,14.9c0,0-8.64-5.96-12.22-6.56S316.25,76.96,315.06,72.19z"/>
<path d="M307.61,79.04c0,0,19.67-1.19,54.55,33.09c0,0-21.76-10.13-34.28-9.84c-12.52,0.3-22.65,2.38-27.42,12.52
	c-4.77,10.13-19.67,21.16-40.24,7.45c0,0,11.62,3.58,22.06-1.19c10.43-4.77,11.62-15.5,10.13-28.62c0,0,5.66-2.68,9.24-0.6
	c3.58,2.09,15.5,7.75,28.62,4.77C330.26,96.63,328.48,86.79,307.61,79.04z"/>
<path d="M306.42,85.3c0,0-28.61-10.43-51.57,13.11c0,0,19.08-8.64,19.37,3.88c0.3,12.52-17.58,5.37-19.67,3.88
	c-2.09-1.49-26.83-12.82-28.02,35.17c0,0,5.37-27.12,18.48-27.12c13.12,0,15.2,7.75,32.49,0c17.29-7.75-2.39-23.25,15.2-28.02
	C292.7,86.19,301.35,84.71,306.42,85.3z"/>
<path d="M264.09,136.57c0,0,16.99,9.54,31.3-0.3c14.31-9.84,9.84-38.15,45.61-26.23c0,0-14.61,1.79-20.87,12.52
	C313.87,133.29,293,155.35,264.09,136.57z"/>
<path d="M285.25,149.09c0,0,16.1,1.79,27.72-8.05s27.72-28.91,34.28-29.51c6.56-0.6,12.22,4.77,15.8,8.35
	c3.58,3.58,18.18,22.06,38.45,22.35c0,0-9.54,5.37-32.19-4.47c-22.65-9.84-25.04-7.45-32.19-2.68
	C329.96,139.85,309.4,162.5,285.25,149.09z"/>
<path d="M262.6,141.64c0,0,7.15,18.18,32.19,18.18c25.04,0,38.75-20.27,70.64-16.69c0,0-37.56,10.43-36.36,25.63
	s14.01,14.31,18.18,25.04s17.29,13.12,17.29,13.12s-26.82,2.68-36.07-14.01c-9.24-16.69-22.95-22.95-40.84-27.42
	C269.75,161.01,263.79,150.58,262.6,141.64z"/>
<path d="M333.84,170.55c0,0,6.56-18.78,29.21-22.06c22.65-3.28,35.77,2.98,43.22,8.94c0,0-39.05-11.92-47.1,7.15
	c0,0-2.09,5.66,1.79,10.14c3.88,4.47,3.28,12.52,2.98,17.29c-0.3,4.77,14.6,16.69,17.88,17.88c0,0-27.42-13.12-29.51-21.16
	C350.23,180.68,346.36,167.87,333.84,170.55z"/>
<path d="M287.04,171.74c0,0,20.87,2.38,27.42,16.1c6.56,13.71,10.43,17.59,21.16,20.27c0,0-25.63,1.19-31.3-11.62
	C298.67,183.67,293,174.43,287.04,171.74z"/>
<path d="M374.98,170.25c0,0,16.39-2.38,33.38,16.1c16.99,18.48-23.54,17.59,0.9,34.87c0,0-11.33,2.68-16.99-7.45
	c-5.66-10.13,0.3-18.18,0.3-18.18S403.59,180.39,374.98,170.25z"/>
<path d="M383.92,161.61c0,0,30.11,3.88,31.3,22.36c1.19,18.48,0.89,18.78,17.88,30.7c0,0-10.73-10.73-8.34-17.29
	c2.38-6.56-0.9-14.31-7.75-23.55C410.15,164.59,392.26,161.61,383.92,161.61z"/>
<path d="M419.69,163.4c0,0,3.57,19.08,14.9,25.04c11.33,5.96,14.9,15.5,14.9,15.5s0.89-18.18-5.96-21.16
	C436.67,179.79,420.58,170.25,419.69,163.4z"/>
<path d="M411.94,207.51c0,0,13.71,2.38,16.1,16.99c2.38,14.61,3.28,13.11,3.28,13.11s-11.03-4.47-14.61-4.17
	c-3.58,0.3-16.1,3.88-30.1-16.1c0,0,15.5,13.11,22.95,13.11S427.44,220.92,411.94,207.51z"/>
<path d="M202.99,271.3c0,0,11.03-22.95,46.2-24.74c35.17-1.79,38.15-25.93,38.45-29.81c0,0,5.07,37.85-37.56,40.54
	S202.99,271.3,202.99,271.3z"/>
<path d="M446.86,220.1c0,0,5.75,6.19,3.83,16.06c0,0-10.32-2.21-17.68-9.58c0,0,7.66,2.65,12.97,2.5
	C445.98,229.09,448.48,225.4,446.86,220.1z"/>
<path d="M457.18,229.23c0,0,20.78,9.87,20.33,20.19c0,0-3.98-0.74-5.16-5.01C471.18,240.14,457.18,229.23,457.18,229.23z"/>
<path d="M437.58,239.55c0,0,8.54,10.76,25.79,13.41c17.24,2.65,20.34,10.31,20.19,12.52c0,0-4.42-1.03-7.52-3.68
	c-3.09-2.65-5.31-4.13-18.71-7.22C443.91,251.48,437.58,239.55,437.58,239.55z"/>
<path d="M491.36,255.76c0,0,3.39,11.79,18.27,21.22c14.88,9.43,15.47,27.7,15.47,27.7s0.3,7.81,2.65,9.43c0,0,5.01-2.65,4.12-9.87
	s-10.75-22.69-19.16-28.44C504.33,270.05,493.27,261.8,491.36,255.76z"/>
<path d="M466.02,264.6c0,0,6.63,6.19,12.23,6.93c5.6,0.74,12.53,3.24,17.98,10.46c5.45,7.22,6.33,11.2,12.52,13.85
	c6.19,2.65,13.26,10.46,13.56,16.36c0,0-6.49-8.55-17.69-12.82c-11.2-4.27-19.6-0.29-26.52-9.87c0,0-2.06-1.33-2.36-6.34
	c-0.29-5.01-9.28-8.1-9.28-8.1s10.02,0.29,11.93,6.34c1.92,6.04,10.32,10.46,17.1,10.32c0,0-1.33-10.76-12.97-16.21
	C470.88,270.05,466.02,264.6,466.02,264.6z"/>
<path d="M438.31,270.64c0,0,24.02-2.51,32.86,16.95c8.84,19.45,29.32,17.24,29.32,17.24s-26.67,4.12-32.56-10.91
	C462.04,278.89,457.91,274.62,438.31,270.64z"/>
<path d="M400.89,271.97c0,0,14.44-10.91,30.8,0c16.36,10.91,17.98,12.97,27.26,14.44c0,0-9.14,1.33-18.72-6.19
	C430.65,272.7,421.37,269.91,400.89,271.97z"/>
<path d="M374.07,289.21c0,0,12.08-3.09,17.39-7.07s24.17-9.14,34.78-3.24c0,0,2.66,1.92,4.87,1.92c0,0-6.78-0.29-11.2-1.77
	s-14.14,0.88-17.09,2.65C399.85,283.46,385.71,289.94,374.07,289.21z"/>
<path d="M355.79,304.83c0,0,24.76-3.24,33.89-9.87c9.13-6.63,26.97-13.85,43.77-5.3c0,0,12.97,7.66,16.21,7.96
	c0,0-4.72,2.5-13.41-1.47c-8.69-3.98-23.43-10.61-38.31-2.8C383.06,301.15,366.99,305.57,355.79,304.83z"/>
<path d="M371.56,328.55c0,0,18.56,0.88,34.92-8.69c16.36-9.58,39.79-17.24,51.13,0.44c0,0-8.99-6.33-19.74-4.86
	c-10.76,1.47-12.08,5.16-12.08,5.16s8.4,0.29,16.36,10.46s21.81,13.41,26.82,13.41c0,0-14.44,3.1-28-6.92
	c-13.56-10.02-20.33-13.71-40.08-9.58C381.14,332.09,371.56,328.55,371.56,328.55z"/>
<path d="M413.85,341.23c0,0,22.1-4.28,26.23,2.21c4.13,6.48,13.71,19.89,32.57,17.09c0,0-16.95,6.78-28.44-2.65
	C432.72,348.45,427.85,341.08,413.85,341.23z"/>
<path d="M442.74,323.99c0,0,10.76,9.28,19.6,8.84c8.84-0.44,17.98,1.03,22.25,10.61c4.27,9.58,8.1,13.56,8.1,13.56
	s-9.28-2.65-13.56-8.69c-4.27-6.04-3.83-11.05-16.36-13.12C450.25,333.12,443.92,326.64,442.74,323.99z"/>
<path d="M400.89,298.35c0,0-10.17,19.3-42.29,24.46s-35.52,29.03-35.66,36.25c0,0-11.05,0.88-14-1.47s-42.15-6.63-47.45,48.78
	c0,0-0.88,4.57-2.95,6.63c-2.06,2.06-13.11,16.8-5.6,29.91c0,0-9.28-8.4-5.16-39.05c0,0-3.24-20.78-15.77-30.36
	c0,0,0.89-41.7,50.1-60.71c0,0-42.74,35.22-30.36,74.86c0,0,16.06-25.79,33.3-33.6c0,0,3.1-14.29-2.65-19.3
	c0,0,1.77-29.18,42.44-33.75c0,0-37.14,14.88-29.47,36.25c7.66,21.37,19.45,4.72,22.99-1.33c3.53-6.04,16.8-17.39,36.4-17.68
	C374.36,317.94,397.79,304.98,400.89,298.35z"/>
<path d="M322.93,366.57c0,0,9.73-7.22,13.41-16.95s22.1-14.29,30.8-13.11c0,0-12.08,1.03-17.39,8.84
	C344.45,353.16,326.32,366.28,322.93,366.57z"/>
<path d="M308.64,325.75c0,0,0.14-12.67,17.98-15.77c0,0,2.36-1.03,3.98-3.83c1.62-2.8,15.18-25.35,46.42-28.88
	c0,0,8.55,0.15,16.8-8.55c0,0,0.44,7.52-22.1,11.94c-22.55,4.42-24.61,31.83-40.53,32.86C315.27,314.55,308.64,325.75,308.64,325.75
	z"/>
<path d="M271.95,402.09c0,0,1.47-37.58,39.64-40.23C311.59,361.86,280.79,368.93,271.95,402.09z"/>
<path d="M267.23,410.05c0,0-8.55,30.94,4.86,47.01c13.41,16.06,17.24,18.86,14.44,34.33c-2.8,15.47,1.03,20.19,1.03,20.19
	s-9.58-17.24-10.02-30.06c-0.44-12.82-4.86-17.09-11.64-24.31S254.12,422.72,267.23,410.05z"/>
<path d="M312.83,520.19c0,0,5.36,6.86,13.56,9.39s15.2,9.24,15.05,11.03c0,0-14.46,5.66-21.31-3.13
	C313.27,528.68,312.83,520.19,312.83,520.19z"/>
<path d="M331.01,560.73c0,0,9.83-6.11,12.82-14.75c2.98-8.65,12.37-9.84,12.82-4.62C357.09,546.57,346.21,562.22,331.01,560.73z"/>
<path d="M363.5,540.01c0,0,6.86,4.02,21.02,1.34c0,0-6.11,11.77-18.18,19.67c0,0,1.49-3.72,0.89-4.62c0,0-5.96,5.07-9.54,5.81
	C357.69,562.22,365.29,544.63,363.5,540.01z"/>
</svg>
