<?xml version="1.0" encoding="utf-8"?>
<!-- Generator: Adobe Illustrator 14.0.0, SVG Export Plug-In . SVG Version: 6.00 Build 43363)  -->
<!DOCTYPE svg PUBLIC "-//W3C//DTD SVG 1.1//EN" "http://www.w3.org/Graphics/SVG/1.1/DTD/svg11.dtd">
<svg version="1.1" id="Layer_1" xmlns="http://www.w3.org/2000/svg" xmlns:xlink="http://www.w3.org/1999/xlink" x="0px" y="0px"
	 width="851px" height="1057px" viewBox="0 0 851 1057" enable-background="new 0 0 851 1057" xml:space="preserve">
<path fill="#888A8C" d="M809.443,878.943c-0.018-4.133-1.088-8.275-3.389-12.072c-3.426-5.652-9.008-9.877-15.293-11.861
	c-6.641-2.098-15.723-2.24-21.002,3.039c0,0-11.727,11.729-11.771,11.777c-2.734,2.795-3.932,6.592-3.432,10.311
	c0.166,1.24-1.088,3.621-2.168,3.549c-1.926-0.133-3.842-0.395-5.717-0.84c-0.797-0.189-1.404-2.201-0.961-2.99
	c5.061-9.006,6.887-20.145,3.447-30.031c-3.121-8.971-10.975-15.602-20.074-17.979c-5.078-1.326-10.629-1.504-15.664,0.115
	c-1.816,0.584-3.758,1.35-5.254,2.578c-2.307,1.898-4.496,3.971-6.639,6.09c-2.01,1.984-4.211,1.059-3.818-1.506
	c0.479-3.127,0.449-6.324-0.17-9.449c-1.002-5.078-3.539-9.75-7.086-13.502c-6.877-7.275-16.965-10.674-26.82-10.756
	c-9.432-0.078-19.402,3-26.191,9.789c-0.996,1.141-2.16,2.17-3.227,3.244c-2.219,2.234-4.434,4.469-6.641,6.713
	c-1.139,0.385-1.135-0.932-1.354-1.703c-0.279-0.986-0.66-1.945-1.146-2.85c-0.988-1.834-2.41-3.402-4.113-4.6
	c-3.535-2.486-7.951-3.324-12.236-3.342c-0.668-0.002-2.027-1.449-2.086-2.195c-0.455-5.828-2.572-11.486-6.66-15.773
	c-4.447-4.662-10.586-7.33-16.822-8.596c-10.422-2.844-22.502-0.021-30.23,7.646c0,0-8.207,8.406-12.863,13.488
	c-1.6,1.744-4.645,2.037-5.512,1.367c-2.641-2.045-5.721-3.494-8.846-4.664c-4.727-1.771-9.754-2.816-14.809-2.869l-0.369-0.002
	c-10.359,0-20.291,4.455-28.734,12.891c-0.055,0.051-0.107,0.102-0.16,0.152l-4.57,4.57c0,0-4.059,3.865-4.58-2.074
	c-0.752-8.604-3.004-17.316-8.947-23.713c-7.504-8.072-20.088-10.701-30.063-5.824c-2.502,1.223-4.704,2.898-6.713,4.814
	l-11.727,11.727c-0.038,0.039-0.076,0.078-0.113,0.117c-2.402,2.396-4.461,5.266-6.147,8.557c-3.626,0.205-7.164,1.568-9.765,4.148
	c0,0-3.236,2.213-4.164-0.912c-1.319-4.453-5.277-7.645-9.648-9.598c-4.359-2.398-9.746-3.486-14.641-2.35
	c-3.043,0.707-5.41,2.316-7.58,4.461c-3.771,3.729-7.514,7.488-11.248,11.254l-0.002-0.002c-0.789,0.797-2.753,0.797-3.189-0.109
	c-3.488-7.236-10.312-12.754-18.955-14.811c-7.979-2.457-16.66-2.438-24.613,0.111c-6.617,2.119-12.575,5.908-17.635,10.635
	c-0.678,0.633-2.963,0.881-3.468,0.352c-7.781-8.121-18.271-15.32-32.396-22.242c-0.886-0.434-1.631-3.631-1.152-4.814
	c8.636-21.313,5.304-46.023-8.018-64.809c-6.465-9.115-15.089-16.711-25.019-21.854c-10.462-5.418-22.213-8.064-33.952-8.428
	c-21.614-0.668-45.07,6.387-60.551,22.014l-11.501,11.5c-0.035,0.035-0.069,0.07-0.102,0.105
	c-7.791,7.85-13.428,18.246-13.946,29.449c-0.128,2.764,0.114,5.564,0.79,8.246L76.764,884.82c-1.554,1.328-3.034,2.758-4.496,4.236
	c-3.513,3.549-7.034,7.092-10.492,10.695c-2.916,3.039-5.196,6.486-6.66,10.467c-1.141,3.105-1.685,6.285-1.672,9.428
	c0.025,6.494,2.427,12.826,6.844,17.98c7.278,8.49,18.43,13.244,29.288,14.967c11.741,1.863,23.601-0.234,33.687-6.295
	c1.44-0.867,6.019-1.018,7-0.217c6.87,5.598,16.085,7.648,24.773,8.469c10.264,0.967,20.683,0.471,30.925-0.846
	c2.01-0.258,4.15,1.313,4.15,1.313c-7.636,7.635-7.976,19.939-2.667,28.912c5.094,8.607,14.306,14.617,23.987,16.727
	c11.26,2.449,23.033-0.83,31.227-8.988c0.092-0.08,0.181-0.162,0.268-0.248l12.011-12.016c0.066-0.066,0.129-0.133,0.191-0.203
	c6.419-6.625,10.552-15.355,12.034-24.432c0.259-1.59,0.416-3.182,0.494-4.768c0.003,0,0.007,0.002,0.01,0.004
	c0.572-1.766,1.44-2.762,2.555-3.777l0,0l87.466-29.684c2.104,0.496,4.33,0.756,6.67,0.756l0.346-0.002
	c7.271-0.08,13.876-3.057,19.658-8.848c0.059-0.053,4.338-0.844,5.079,0.186c1.782,2.475,3.868,4.727,6.365,6.5
	c4.235,3.006,9.407,4.305,14.565,4.096c9.83-0.398,18.971-5.68,25.752-12.547c0.068-0.061,0.135-0.123,0.199-0.188
	c0,0,11.273-11.271,11.33-11.334c0.975-0.98,1.928-2.021,2.855-3.115c1.027-1.211,4.016,0.434,4.803,2.443
	c2.566,6.568,7.088,12.143,13.744,15.244c4.865,2.266,10.363,3.152,15.691,2.492c4.143-0.516,8.102-1.938,11.754-3.928
	c1.217-0.664,4.699,0.332,5.402,1.508c4.928,8.24,13.867,13.971,23.725,13.52c8.668-0.098,16.557-5.486,22.404-11.504
	c0.096-0.084,0.189-0.17,0.279-0.26l12.787-12.787c0.139-0.137,3.773-3.631,6.188,1.805c3.564,8.021,9.811,15.098,18.436,17.426
	c11.375,3.07,22.455-2.898,30.676-10.342c0.959-0.867,1.893-1.764,2.807-2.68c0.045-0.043,0.859-1.371,2.098,0.408
	c3.631,5.396,8.211,9.676,13.449,12.535c18.67,13.781,45.287,9.807,65.188,1.045c3.678-1.619,7.26-3.457,10.719-5.506
	c9.961,5.66,21.41,8.434,32.789,9.105c6.512,0.387,13.064,0.082,19.512-0.926c5.371-0.838,10.717-2.115,15.688-4.357
	c3.996-1.805,7.715-4.238,10.832-7.332c0.064-0.059,0.129-0.119,0.189-0.182l11.762-11.76c0.053-0.053,0.104-0.105,0.152-0.16
	C806.574,892.686,809.471,885.83,809.443,878.943z M92.937,822.26l3.458-19.551c0,0,0.382-1.535,1.293-0.273
	c1.704,2.359,3.981,4.369,6.221,6.088c1.146,0.875,2.273,1.717,3.464,2.297c1.878,0.918-0.006,2.045-0.006,2.045l-12.932,10.32
	C93.419,823.678,92.806,823.006,92.937,822.26z M87.566,852.629l2.503-14.156c0.504-0.865,0.782-1.279,1.742-0.607l11.569,12.801
	c0,0,0.065,1.314-0.547,1.26c-1.094-0.1-2.143-0.148-3.144-0.148c-4.459-0.004-8.1,0.764-10.849,1.994
	C87.219,854.498,87.566,852.629,87.566,852.629z M102.337,877.553c-0.197,0.879-2.854,1.646-4.007,1.311
	c-4.712-1.371-9.754-1.109-14.277,1.125c-1.489,0.736-1.147-1.01-1.147-1.01l3.233-18.281c1.288-0.721,2.727-1.533,4.536-2.24
	c2.326-0.91,5.218-1.645,9.013-1.648c2.002,0,4.256,0.207,6.803,0.723c0.005,0.002,0.01,0,0.016,0.002
	C105.197,864.225,103.829,870.904,102.337,877.553z M114.292,815.734c-1.207,5.32-1.944,10.736-2.939,16.098
	c-0.925,4.982-1.845,9.969-2.783,14.951c-0.344,1.615-1.411,0.561-1.411,0.561l-13.292-14.707c-0.61-1.088-0.442-1.914,0.256-2.766
	l18.883-15.068C113.006,814.803,114.827,813.375,114.292,815.734z M115.979,805.992l-2.167,1.73l-0.052,0.014
	c-0.048,0.008-0.125,0.018-0.231,0.016c-0.313,0.004-0.871-0.086-1.553-0.328c-1.2-0.414-2.757-1.26-4.333-2.396
	c-2.372-1.699-4.812-4.045-6.573-6.436c-0.882-1.195-1.594-2.396-2.065-3.502c-0.474-1.105-0.695-2.104-0.692-2.879
	c0-0.238,0.02-0.459,0.055-0.656l2.904-16.418c0,0,1.687-1.125,2.378-0.453c2.836,2.752,6.503,4.629,10.405,5.33
	c1.416,0.254,2.859,0.354,4.295,0.289c0.495-0.021,1.345,0.953,1.275,1.492C118.58,789.885,117.333,797.947,115.979,805.992z
	 M230.813,838.266c0,0,0.683-2.133,2.139-0.121c4.496,5.059,7.939,10.902,9.395,17.461c0.208,0.938-0.139,2.896-0.45,2.896
	c-0.367-0.002-0.728-0.014-1.083-0.037c-2.566-0.166-4.822-0.93-6.642-2.293c-1.997-1.51-3.574-3.783-4.443-7.256L230.813,838.266z
	 M194.589,744.436c0.165-1.736,3.19-2.326,4.435-1.025c8.708,9.102,12.762,22.318,11.178,34.801
	c-3.458-0.57-6.729-0.848-9.932-0.848h-0.444c-2.462,0.021-4.803,0.227-7.01,0.615c-0.846,0.148-2.187-1.391-2.046-2.334
	C192.672,762.865,193.874,751.975,194.589,744.436z M209.278,887.555c-3.744-1.768-7.878-2.555-11.896-3.543
	c-7.98-1.957-16.242-3.066-24.461-2.619c-1.24,0.066-2.824-2.453-2.4-3.84c3.896-12.746,6.632-25.748,9.146-38.527
	c0.139-0.705,0.005-2.137,2.911-1.58c6.134,1.09,12.302,0.553,18.175-1.17l10.31,49.43
	C211.061,885.705,211.999,888.838,209.278,887.555z M223.758,857.863l-3.47,34.074c-1.016-0.455-2.038-0.895-3.065-1.324
	l-6.858-32.885c1.107,0.137,2.243,0.223,3.4,0.223c2.7,0,5.509-0.432,8.197-1.57C224.325,855.379,223.758,857.863,223.758,857.863z
	 M219.986,851.752c-1.921,0.822-4.048,1.168-6.221,1.168c-1.51,0-3.035-0.17-4.496-0.447l-3.731-17.889
	c4.858-2.006,9.435-4.787,13.521-8.074c2.521,1.615,4.997,3.402,7.348,5.352l-1.657,16.27
	C223.337,849.863,221.739,850.998,219.986,851.752z M242.888,866.469c-0.879,8.076-4.294,15.93-10.175,23.393
	c-2.113,1.711-4.324,3.273-6.541,4.846c-0.35-0.174-0.705-0.34-1.056-0.512l3.454-33.914c0,0,0.535-1.885,2.583-0.084
	c2.567,2.256,5.964,3.23,9.397,3.305C243.067,863.555,242.987,865.553,242.888,866.469z M273.364,915.305
	c2.928,1.775,6.023,3.248,9.225,4.447c1.232,0.344,0.311,1.301,0.311,1.301l-13.838,14.662h0c-1.72,0.797-2.471,0.459-3.304-0.822
	c-1.005-3.313-2.382-6.527-4.104-9.592C265.996,922.119,269.92,918.77,273.364,915.305z M309.806,927.48l-33.518,11.375l0,0
	c-1.038,0.26-2.235-0.082-1.547-1.826l14.385-15.242c0.376,0.096,0.752,0.199,1.13,0.289c5.699,1.35,11.725,2.066,17.568,1.357
	c0.163-0.02,0.323-0.051,0.485-0.074c0.637,0.818,1.316,1.547,1.998,2.195C311.998,927.014,309.806,927.48,309.806,927.48z
	 M348.734,914.27l-31.053,10.537c-0.514-0.293-1.331-0.793-2.236-1.479c-1.561-1.094-0.065-1.607,0.606-1.844
	c8.345-2.926,15.779-8.434,22.104-14.508c0.473-0.455,4.435-1.09,5.117-0.127c1.645,2.311,3.594,4.264,5.805,5.834
	C351.557,913.932,348.734,914.27,348.734,914.27z M673.078,887.758c-3.365-1.707-5.275-6.449-6.357-11.117
	c3.605-2.098,6.783-4.508,9.482-7.191l6.625-6.633c0,0,3.586-0.242,3.299,2.111c-0.9,7.377,0.463,14.65,2.035,20.049
	C683.33,886.568,678.197,887.814,673.078,887.758z"/>
</svg>
